<svg id="svg" version="1.1" xmlns="http://www.w3.org/2000/svg" xmlns:xlink="http://www.w3.org/1999/xlink" width="400" height="364.5783769495109" viewBox="0, 0, 400,364.5783769495109"><g id="svgg"><path id="path0" d="M189.667 0.679 C 188.796 0.752,186.883 0.899,185.417 1.005 C 180.565 1.355,176.915 1.774,172.333 2.508 C 171.829 2.589,170.892 2.733,170.250 2.829 C 168.764 3.051,165.594 3.635,164.833 3.826 C 164.512 3.906,163.912 4.022,163.500 4.083 C 163.087 4.145,162.487 4.260,162.167 4.340 C 160.442 4.770,158.654 5.188,157.917 5.334 C 157.458 5.425,155.808 5.840,154.250 6.257 C 152.692 6.674,150.999 7.121,150.489 7.249 C 149.978 7.377,148.966 7.673,148.239 7.907 C 147.512 8.140,146.542 8.445,146.083 8.585 C 143.156 9.476,138.510 11.073,135.583 12.196 C 133.538 12.980,130.973 13.998,130.417 14.245 C 130.142 14.368,129.429 14.670,128.833 14.917 C 128.237 15.164,127.276 15.583,126.697 15.849 C 126.117 16.116,125.610 16.333,125.568 16.333 C 125.149 16.333,114.354 21.760,111.829 23.239 C 111.272 23.566,110.782 23.833,110.741 23.833 C 110.625 23.833,104.078 27.771,102.967 28.508 C 102.422 28.870,101.946 29.167,101.909 29.167 C 101.843 29.167,96.416 32.780,96.083 33.046 C 95.992 33.119,95.017 33.822,93.917 34.609 C 91.927 36.032,88.826 38.330,88.667 38.500 C 88.621 38.548,88.106 38.962,87.523 39.419 C 86.940 39.876,86.144 40.512,85.754 40.833 C 83.223 42.915,82.395 43.601,82.231 43.749 C 82.129 43.841,81.273 44.592,80.328 45.417 C 73.582 51.306,65.662 59.424,60.500 65.741 C 59.996 66.357,59.321 67.178,59.000 67.564 C 58.679 67.950,58.192 68.556,57.917 68.912 C 57.642 69.267,57.225 69.789,56.991 70.071 C 56.756 70.353,55.789 71.633,54.840 72.917 C 53.892 74.200,52.919 75.512,52.678 75.833 C 52.437 76.154,52.092 76.631,51.912 76.894 C 51.731 77.156,51.358 77.694,51.083 78.088 C 49.023 81.042,45.549 86.382,44.617 88.029 C 44.392 88.426,43.911 89.237,43.547 89.833 C 42.868 90.946,42.328 91.895,41.460 93.500 C 41.187 94.004,40.908 94.492,40.838 94.583 C 40.352 95.226,34.833 106.249,34.833 106.576 C 34.833 106.613,34.580 107.192,34.271 107.863 C 33.768 108.956,33.496 109.558,32.742 111.250 C 32.619 111.525,32.170 112.650,31.743 113.750 C 31.316 114.850,30.630 116.612,30.219 117.667 C 28.854 121.163,27.193 126.130,25.676 131.250 C 25.293 132.542,25.201 132.874,24.588 135.167 C 24.355 136.037,24.091 137.012,24.002 137.333 C 23.912 137.654,23.723 138.442,23.580 139.083 C 23.438 139.725,23.251 140.512,23.165 140.833 C 23.079 141.154,22.889 141.979,22.743 142.667 C 22.597 143.354,22.408 144.217,22.324 144.583 C 22.240 144.950,22.060 145.850,21.925 146.583 C 21.790 147.317,21.527 148.742,21.341 149.750 C 20.718 153.120,20.669 153.410,20.487 154.750 C 20.387 155.483,20.237 156.590,20.153 157.208 C 20.069 157.827,19.926 158.877,19.835 159.542 C 18.481 169.455,18.114 185.149,18.990 195.750 C 19.376 200.429,19.717 203.621,20.155 206.667 C 20.254 207.354,20.442 208.667,20.574 209.583 C 20.706 210.500,20.893 211.681,20.990 212.208 C 21.273 213.747,21.501 214.990,21.759 216.417 C 21.891 217.150,22.068 218.050,22.151 218.417 C 22.233 218.783,22.384 219.533,22.486 220.083 C 22.588 220.633,22.742 221.346,22.830 221.667 C 22.917 221.987,23.181 223.075,23.415 224.083 C 23.806 225.765,24.330 227.836,24.680 229.083 C 25.599 232.357,26.245 234.595,26.509 235.417 C 27.386 238.151,28.709 242.086,29.225 243.500 C 29.544 244.371,30.079 245.833,30.414 246.750 C 30.750 247.667,31.128 248.642,31.254 248.917 C 31.381 249.192,31.716 250.017,32.000 250.750 C 32.284 251.483,32.617 252.308,32.740 252.583 C 32.864 252.858,33.128 253.458,33.328 253.917 C 34.221 255.967,34.828 257.330,35.369 258.500 C 36.253 260.411,38.719 265.376,39.426 266.667 C 39.802 267.354,40.373 268.404,40.695 269.000 C 41.881 271.198,43.060 273.274,43.606 274.128 C 43.914 274.611,44.167 275.045,44.167 275.092 C 44.167 275.302,50.335 284.877,50.657 285.167 C 50.708 285.212,51.120 285.802,51.572 286.477 C 52.024 287.151,52.476 287.789,52.577 287.893 C 52.678 287.998,53.244 288.758,53.835 289.583 C 54.426 290.408,55.398 291.710,55.996 292.476 C 56.594 293.241,57.271 294.114,57.500 294.414 C 58.655 295.928,58.945 296.297,59.411 296.846 C 60.171 297.741,61.329 299.125,61.658 299.530 C 61.977 299.925,62.129 299.561,58.546 307.000 C 57.951 308.237,56.917 310.412,56.250 311.833 C 55.582 313.254,54.353 315.834,53.518 317.565 C 52.683 319.297,52.000 320.735,52.000 320.761 C 52.000 320.787,51.287 322.284,50.417 324.088 C 49.546 325.891,48.833 327.387,48.833 327.411 C 48.833 327.435,48.188 328.796,47.399 330.436 C 46.610 332.075,44.950 335.554,43.710 338.167 C 42.469 340.779,41.006 343.854,40.459 345.000 C 39.911 346.146,39.180 347.683,38.834 348.417 C 38.487 349.150,37.812 350.575,37.332 351.583 C 35.350 355.748,35.171 356.179,35.382 356.260 C 35.495 356.303,43.762 356.356,53.752 356.378 L 71.917 356.417 72.333 355.582 C 72.563 355.124,73.008 354.186,73.324 353.499 C 73.640 352.812,74.484 351.024,75.199 349.525 C 75.915 348.026,76.500 346.779,76.500 346.752 C 76.500 346.726,76.977 345.702,77.560 344.477 C 78.977 341.498,79.720 339.922,80.308 338.645 C 80.577 338.061,81.330 336.468,81.982 335.104 C 82.633 333.741,83.167 332.602,83.167 332.572 C 83.167 332.543,83.573 331.671,84.069 330.635 C 84.565 329.598,85.425 327.775,85.981 326.583 C 87.139 324.098,87.138 324.099,88.250 325.006 C 89.667 326.161,90.580 326.850,93.250 328.779 C 96.370 331.033,101.309 334.384,102.917 335.337 C 103.283 335.555,103.621 335.779,103.667 335.837 C 103.712 335.894,103.862 335.991,104.000 336.053 C 104.269 336.173,104.523 336.329,105.611 337.042 C 105.995 337.294,106.347 337.500,106.392 337.500 C 106.437 337.500,107.078 337.875,107.817 338.333 C 108.556 338.792,109.237 339.167,109.330 339.167 C 109.424 339.167,109.500 339.225,109.500 339.297 C 109.500 339.368,109.706 339.513,109.958 339.619 C 110.392 339.801,110.759 340.002,113.596 341.613 C 114.723 342.254,121.912 345.852,123.833 346.738 C 126.104 347.784,127.706 348.500,127.777 348.500 C 127.820 348.500,128.265 348.688,128.766 348.917 C 129.267 349.146,129.716 349.333,129.764 349.333 C 129.812 349.333,130.172 349.479,130.564 349.658 C 130.956 349.837,131.683 350.139,132.180 350.329 C 132.677 350.520,133.233 350.746,133.417 350.831 C 133.600 350.917,134.688 351.332,135.833 351.754 C 136.979 352.175,138.067 352.590,138.250 352.674 C 138.630 352.850,146.488 355.470,147.250 355.675 C 147.525 355.750,148.162 355.933,148.667 356.083 C 150.088 356.507,150.466 356.613,152.208 357.074 C 155.048 357.826,157.061 358.341,157.833 358.515 C 158.246 358.607,158.846 358.748,159.167 358.826 C 159.487 358.905,160.350 359.097,161.083 359.253 C 161.817 359.408,162.679 359.593,163.000 359.664 C 164.203 359.930,166.135 360.308,167.667 360.577 C 168.537 360.729,169.625 360.921,170.083 361.003 C 172.393 361.416,173.028 361.517,174.333 361.680 C 175.112 361.778,176.275 361.927,176.917 362.012 C 189.455 363.671,202.656 363.920,216.250 362.754 C 219.526 362.474,221.248 362.291,223.167 362.020 C 228.202 361.310,228.827 361.214,230.917 360.835 C 231.467 360.735,232.554 360.542,233.333 360.405 C 236.234 359.895,241.048 358.861,243.000 358.329 C 243.321 358.241,244.183 358.025,244.917 357.849 C 246.743 357.410,248.690 356.895,250.083 356.482 C 253.729 355.402,259.925 353.408,260.339 353.182 C 260.479 353.105,260.852 352.986,261.167 352.917 C 261.481 352.848,261.854 352.734,261.995 352.665 C 262.413 352.459,262.957 352.244,265.583 351.248 C 266.958 350.727,268.479 350.120,268.963 349.900 C 269.447 349.680,269.883 349.500,269.932 349.500 C 269.981 349.500,270.431 349.313,270.932 349.083 C 271.433 348.854,271.887 348.667,271.941 348.667 C 271.995 348.667,272.599 348.404,273.284 348.083 C 273.969 347.762,274.559 347.500,274.595 347.500 C 275.012 347.500,285.840 342.062,288.301 340.617 C 288.878 340.278,289.388 340.000,289.434 340.000 C 289.479 340.000,289.926 339.737,290.428 339.417 C 290.929 339.096,291.377 338.833,291.422 338.833 C 291.467 338.833,292.102 338.458,292.833 338.000 C 293.565 337.542,294.199 337.167,294.242 337.167 C 294.383 337.167,298.841 334.305,301.750 332.348 C 305.496 329.827,308.919 327.354,311.272 325.469 C 311.651 325.165,312.354 324.617,312.836 324.250 C 313.803 323.513,315.003 322.536,315.711 321.908 C 316.319 321.370,316.278 321.347,316.819 322.542 C 317.078 323.115,318.238 325.513,319.395 327.873 C 320.553 330.232,321.500 332.191,321.500 332.226 C 321.500 332.261,321.977 333.293,322.561 334.520 C 323.144 335.746,323.811 337.162,324.042 337.667 C 324.273 338.171,325.774 341.358,327.376 344.750 C 331.250 352.949,331.278 353.009,332.104 354.833 L 332.822 356.417 350.578 356.459 L 368.335 356.502 366.150 352.126 C 364.949 349.719,362.861 345.537,361.511 342.833 C 359.534 338.873,356.774 332.964,353.999 326.750 C 353.746 326.183,348.281 314.097,344.505 305.750 C 343.882 304.375,343.205 302.875,342.999 302.417 C 342.793 301.958,342.365 301.021,342.047 300.333 C 340.471 296.915,340.487 296.995,341.208 296.172 C 341.506 295.831,342.050 295.157,342.417 294.674 C 342.783 294.190,343.332 293.484,343.635 293.105 C 345.696 290.534,348.077 287.221,351.077 282.750 C 352.711 280.315,355.181 276.436,355.318 276.089 C 355.356 275.994,355.749 275.336,356.193 274.627 C 356.637 273.917,357.000 273.261,357.000 273.168 C 357.000 273.076,357.066 273.000,357.147 273.000 C 357.228 273.000,357.337 272.869,357.388 272.708 C 357.475 272.437,357.882 271.694,358.963 269.833 C 360.600 267.014,364.131 259.905,366.082 255.500 C 366.427 254.721,366.887 253.687,367.105 253.203 C 367.322 252.719,367.500 252.284,367.500 252.236 C 367.500 252.188,367.642 251.834,367.816 251.449 C 367.990 251.065,368.633 249.438,369.245 247.833 C 369.858 246.229,370.420 244.767,370.495 244.583 C 370.570 244.400,370.758 243.875,370.912 243.417 C 371.066 242.958,371.259 242.433,371.340 242.250 C 371.473 241.950,372.675 238.318,373.491 235.750 C 374.004 234.135,374.619 232.031,375.073 230.333 C 375.306 229.463,375.565 228.525,375.649 228.250 C 375.780 227.818,376.214 226.052,376.858 223.333 C 376.956 222.921,377.070 222.452,377.112 222.292 C 377.185 222.015,376.365 222.000,361.610 222.000 L 346.031 222.000 345.748 222.958 C 345.593 223.485,345.404 224.104,345.330 224.333 C 345.255 224.563,345.065 225.200,344.908 225.750 C 344.438 227.400,342.344 233.728,342.166 234.039 C 342.075 234.199,342.000 234.412,342.000 234.514 C 342.000 234.616,341.880 234.973,341.733 235.308 C 341.356 236.167,341.284 236.346,340.405 238.583 C 339.636 240.543,339.345 241.236,338.587 242.917 C 338.380 243.375,338.035 244.162,337.821 244.667 C 337.155 246.230,333.293 253.914,333.142 253.972 C 333.064 254.003,333.000 254.100,333.000 254.188 C 333.000 254.377,330.379 258.991,329.178 260.917 C 328.414 262.141,327.628 263.415,327.120 264.250 C 327.008 264.433,326.876 264.621,326.827 264.667 C 326.778 264.712,326.580 265.004,326.387 265.315 L 326.036 265.880 325.708 265.149 C 325.527 264.746,324.064 261.604,322.458 258.167 C 318.397 249.478,318.356 249.390,317.750 248.083 C 317.105 246.693,317.039 246.551,312.418 236.667 C 310.425 232.404,308.606 228.504,308.377 228.000 C 308.147 227.496,307.106 225.341,306.063 223.212 C 305.020 221.084,304.167 219.310,304.167 219.271 C 304.167 219.232,303.801 218.424,303.353 217.475 C 302.906 216.526,302.106 214.813,301.577 213.667 C 301.047 212.521,300.138 210.581,299.557 209.357 C 298.976 208.132,298.500 207.106,298.500 207.075 C 298.500 207.045,298.134 206.247,297.687 205.302 C 297.240 204.357,296.158 202.046,295.284 200.167 C 294.409 198.287,293.266 195.850,292.744 194.750 C 290.506 190.037,290.167 189.299,290.167 189.151 C 290.167 189.064,289.985 188.639,289.762 188.205 C 289.374 187.450,288.265 185.105,287.378 183.167 C 286.439 181.115,282.206 172.034,276.502 159.833 C 273.180 152.729,269.150 144.104,267.547 140.667 C 265.944 137.229,264.368 133.854,264.046 133.167 C 263.723 132.479,263.215 131.392,262.917 130.750 C 262.619 130.108,262.112 129.021,261.790 128.333 C 261.467 127.646,260.700 125.996,260.083 124.667 C 258.662 121.601,258.083 120.364,257.004 118.083 C 256.076 116.121,255.544 114.986,254.621 113.000 C 253.652 110.913,249.576 102.177,248.867 100.667 C 248.502 99.888,247.661 98.087,246.999 96.667 C 245.596 93.654,245.553 93.563,242.290 86.583 C 240.918 83.650,238.312 78.063,236.498 74.167 C 233.589 67.921,232.378 65.326,230.052 60.353 C 229.454 59.075,228.800 57.669,227.871 55.667 C 227.595 55.071,227.070 53.946,226.704 53.167 C 226.339 52.387,224.989 49.500,223.706 46.750 C 222.423 44.000,220.927 40.813,220.383 39.667 C 218.870 36.483,216.833 31.914,216.833 31.704 C 216.833 31.586,219.696 31.795,220.833 31.997 C 221.338 32.086,222.950 32.354,224.417 32.592 C 229.682 33.447,240.006 35.764,242.500 36.651 C 242.729 36.732,243.479 36.966,244.167 37.170 C 246.150 37.758,250.366 39.163,250.942 39.426 C 251.231 39.558,251.527 39.667,251.601 39.667 C 251.753 39.667,257.074 41.716,258.083 42.163 C 258.450 42.326,259.575 42.815,260.583 43.250 C 261.592 43.686,262.979 44.304,263.667 44.624 C 264.354 44.945,265.535 45.495,266.292 45.846 C 267.048 46.197,267.667 46.421,267.667 46.343 C 267.667 46.265,268.082 45.319,268.591 44.242 C 269.099 43.165,269.655 41.976,269.826 41.600 C 269.998 41.224,270.489 40.167,270.918 39.250 C 271.347 38.333,271.888 37.171,272.120 36.667 C 272.352 36.162,273.027 34.737,273.621 33.500 C 274.214 32.262,275.435 29.675,276.334 27.750 C 277.232 25.825,278.456 23.223,279.053 21.967 C 279.650 20.711,280.184 19.542,280.239 19.369 C 280.346 19.031,280.266 18.982,277.583 17.739 C 276.850 17.399,275.627 16.831,274.865 16.477 C 274.103 16.123,273.449 15.833,273.412 15.833 C 273.374 15.833,272.947 15.653,272.463 15.432 C 271.979 15.211,270.908 14.756,270.083 14.421 C 269.258 14.085,268.351 13.705,268.067 13.576 C 265.856 12.572,256.724 9.371,252.417 8.091 C 251.592 7.846,250.729 7.577,250.500 7.494 C 250.271 7.410,249.783 7.269,249.417 7.180 C 249.050 7.091,248.487 6.947,248.167 6.858 C 244.653 5.891,238.390 4.410,235.750 3.923 C 234.925 3.771,233.950 3.581,233.583 3.501 C 232.632 3.294,231.172 3.040,229.250 2.748 C 228.333 2.609,227.171 2.425,226.667 2.341 C 224.807 2.029,223.374 1.832,221.667 1.653 C 220.704 1.552,219.317 1.404,218.583 1.324 C 217.850 1.244,216.162 1.101,214.833 1.006 C 213.504 0.911,211.442 0.758,210.250 0.666 C 207.739 0.472,192.008 0.482,189.667 0.679 M188.897 32.504 C 188.495 33.330,188.167 34.034,188.167 34.068 C 188.167 34.147,187.268 36.054,183.332 44.333 C 181.567 48.046,179.841 51.683,179.495 52.417 C 179.150 53.150,178.222 55.091,177.434 56.731 C 176.645 58.370,176.000 59.732,176.000 59.757 C 176.000 59.782,175.287 61.281,174.417 63.088 C 173.546 64.894,172.833 66.392,172.833 66.415 C 172.833 66.439,172.226 67.724,171.484 69.271 C 170.742 70.818,169.569 73.283,168.879 74.750 C 168.189 76.217,167.033 78.646,166.312 80.148 C 165.590 81.651,165.000 82.900,165.000 82.925 C 165.000 82.949,164.287 84.448,163.417 86.254 C 162.546 88.061,161.833 89.559,161.833 89.583 C 161.833 89.608,161.008 91.329,160.000 93.409 C 158.992 95.489,158.167 97.217,158.167 97.249 C 158.167 97.282,157.454 98.784,156.583 100.588 C 155.712 102.391,155.000 103.891,155.000 103.921 C 155.000 103.951,154.287 105.451,153.417 107.254 C 152.546 109.058,151.833 110.556,151.833 110.582 C 151.833 110.609,151.262 111.820,150.563 113.274 C 149.182 116.149,147.942 118.754,147.084 120.583 C 146.783 121.225,145.966 122.941,145.268 124.397 C 144.571 125.853,144.000 127.065,144.000 127.091 C 144.000 127.117,143.325 128.538,142.500 130.250 C 141.675 131.962,141.000 133.386,141.000 133.414 C 141.000 133.443,140.287 134.942,139.417 136.746 C 138.546 138.549,137.833 140.047,137.833 140.073 C 137.833 140.123,136.381 143.175,134.232 147.644 C 133.554 149.053,133.000 150.227,133.000 150.253 C 133.000 150.280,132.355 151.640,131.567 153.276 C 130.126 156.265,129.390 157.810,128.082 160.583 C 127.693 161.408,126.999 162.871,126.540 163.833 C 124.214 168.705,123.752 169.674,123.250 170.750 C 122.950 171.392,122.096 173.182,121.352 174.729 C 120.609 176.276,120.000 177.560,120.000 177.583 C 120.000 177.606,119.325 179.027,118.500 180.741 C 117.675 182.455,117.000 183.881,117.000 183.909 C 117.000 183.938,116.355 185.300,115.567 186.935 C 114.127 189.926,113.255 191.759,112.249 193.917 C 111.950 194.558,111.096 196.349,110.352 197.896 C 109.609 199.443,109.000 200.728,109.000 200.751 C 109.000 200.775,108.287 202.272,107.417 204.079 C 106.546 205.886,105.833 207.388,105.833 207.417 C 105.833 207.447,105.158 208.872,104.333 210.583 C 103.508 212.295,102.833 213.718,102.833 213.745 C 102.833 213.773,102.189 215.133,101.401 216.769 C 99.960 219.759,99.088 221.593,98.082 223.750 C 97.783 224.392,96.930 226.182,96.186 227.729 C 95.442 229.276,94.833 230.564,94.833 230.592 C 94.833 230.619,94.121 232.117,93.250 233.921 C 92.379 235.725,91.667 237.224,91.667 237.253 C 91.667 237.281,90.992 238.705,90.167 240.417 C 89.342 242.128,88.667 243.551,88.667 243.578 C 88.667 243.606,88.112 244.780,87.435 246.189 C 85.331 250.564,83.833 253.710,83.833 253.757 C 83.833 253.781,83.188 255.140,82.399 256.776 C 81.610 258.412,80.756 260.200,80.500 260.750 C 78.549 264.957,76.466 269.167,76.334 269.167 C 76.121 269.167,70.167 259.996,70.167 259.668 C 70.167 259.576,70.092 259.500,70.000 259.500 C 69.908 259.500,69.833 259.431,69.833 259.347 C 69.833 259.263,69.383 258.432,68.833 257.500 C 68.283 256.568,67.833 255.781,67.833 255.751 C 67.833 255.721,67.530 255.160,67.158 254.505 C 66.325 253.035,62.989 246.465,62.670 245.667 C 62.457 245.132,62.245 244.658,60.938 241.787 C 60.697 241.257,60.500 240.783,60.500 240.734 C 60.500 240.685,60.323 240.256,60.106 239.781 C 58.975 237.303,55.572 227.638,54.667 224.333 C 54.554 223.921,54.394 223.396,54.312 223.167 C 54.230 222.938,54.131 222.600,54.094 222.417 C 54.056 222.233,53.912 221.633,53.773 221.083 C 52.529 216.145,52.091 214.223,51.419 210.750 C 51.188 209.558,50.926 208.208,50.837 207.750 C 50.747 207.292,50.556 206.092,50.412 205.083 C 50.268 204.075,50.083 202.800,50.002 202.250 C 49.480 198.736,49.487 198.801,49.000 192.750 C 48.803 190.301,48.805 173.797,49.002 171.167 C 49.209 168.411,49.624 164.185,49.821 162.833 C 50.672 156.977,50.820 156.091,51.503 152.750 C 51.596 152.292,51.787 151.317,51.927 150.583 C 52.245 148.917,52.614 147.282,53.038 145.667 C 53.218 144.979,53.580 143.592,53.841 142.583 C 54.103 141.575,54.515 140.075,54.756 139.250 C 54.997 138.425,55.257 137.525,55.334 137.250 C 55.768 135.698,58.543 127.926,59.093 126.725 C 59.225 126.436,59.333 126.095,59.333 125.966 C 59.333 125.838,59.397 125.662,59.475 125.575 C 59.553 125.488,59.808 124.929,60.041 124.333 C 60.275 123.737,60.698 122.742,60.983 122.121 C 61.267 121.500,61.500 120.948,61.500 120.895 C 61.500 120.841,61.715 120.337,61.978 119.774 C 62.242 119.211,62.662 118.300,62.913 117.750 C 64.644 113.955,67.774 108.080,70.150 104.167 C 70.345 103.846,70.550 103.452,70.605 103.292 C 70.660 103.131,70.763 103.000,70.833 103.000 C 70.904 103.000,71.009 102.869,71.067 102.708 C 71.188 102.373,71.337 102.126,72.251 100.750 C 72.616 100.200,72.953 99.675,72.999 99.583 C 73.098 99.388,74.564 97.201,75.983 95.133 C 76.925 93.761,79.301 90.513,79.495 90.333 C 79.545 90.287,79.807 89.950,80.078 89.583 C 80.349 89.217,80.649 88.831,80.744 88.727 C 80.839 88.623,81.217 88.145,81.583 87.665 C 82.182 86.881,83.822 84.873,84.250 84.401 C 84.342 84.299,85.054 83.476,85.833 82.571 C 90.272 77.416,96.608 71.181,102.335 66.333 C 102.822 65.921,103.573 65.283,104.003 64.917 C 104.433 64.550,105.180 63.950,105.662 63.583 C 106.145 63.217,106.817 62.692,107.157 62.417 C 107.496 62.142,107.984 61.767,108.240 61.583 C 108.496 61.400,108.990 61.025,109.337 60.750 C 109.684 60.475,110.504 59.875,111.159 59.417 C 111.814 58.958,112.440 58.508,112.550 58.415 C 112.805 58.201,116.072 55.972,116.458 55.748 C 116.619 55.655,117.612 55.013,118.667 54.320 C 119.721 53.628,120.696 53.010,120.833 52.948 C 121.122 52.818,121.711 52.456,121.833 52.333 C 121.879 52.288,122.104 52.143,122.333 52.012 C 122.563 51.880,123.200 51.513,123.750 51.195 C 124.300 50.877,125.125 50.412,125.583 50.162 C 126.042 49.912,126.792 49.488,127.250 49.219 C 128.374 48.561,136.518 44.488,137.667 44.011 C 138.171 43.801,138.883 43.495,139.250 43.332 C 139.617 43.168,140.404 42.831,141.000 42.583 C 141.596 42.335,142.383 42.001,142.750 41.842 C 143.117 41.682,143.867 41.381,144.417 41.173 C 144.967 40.966,145.653 40.691,145.942 40.564 C 146.231 40.437,146.550 40.333,146.652 40.333 C 146.754 40.333,146.968 40.264,147.127 40.179 C 147.286 40.094,147.567 39.971,147.750 39.905 C 147.933 39.840,148.796 39.531,149.667 39.220 C 151.208 38.668,154.593 37.553,156.885 36.841 C 157.922 36.519,164.451 34.807,165.833 34.495 C 168.354 33.925,172.175 33.154,173.667 32.915 C 174.446 32.790,175.796 32.568,176.667 32.423 C 179.777 31.902,180.271 31.831,181.917 31.662 C 185.825 31.260,186.921 31.132,186.986 31.068 C 187.024 31.031,187.634 31.000,188.342 31.000 L 189.628 31.000 188.897 32.504 M202.667 80.366 C 202.667 80.441,203.537 82.358,204.601 84.626 C 207.110 89.973,210.053 96.225,211.252 98.750 C 212.446 101.266,222.711 123.068,223.337 124.417 C 223.592 124.967,224.174 126.204,224.631 127.167 C 227.627 133.486,227.728 133.701,231.626 142.000 C 233.370 145.712,235.171 149.537,235.628 150.500 C 236.909 153.196,238.000 155.533,238.000 155.581 C 238.000 155.605,238.606 156.889,239.347 158.435 C 240.088 159.980,240.847 161.583,241.034 161.997 C 241.221 162.411,241.676 163.387,242.043 164.167 C 242.411 164.946,242.994 166.183,243.338 166.917 C 243.682 167.650,244.300 168.962,244.711 169.833 C 245.121 170.704,246.339 173.292,247.416 175.583 C 248.493 177.875,249.710 180.463,250.119 181.333 C 251.295 183.830,253.102 187.694,253.394 188.333 C 253.540 188.654,253.737 189.029,253.831 189.167 C 253.924 189.304,254.421 190.317,254.935 191.417 C 255.448 192.517,256.197 194.111,256.599 194.959 C 258.337 198.627,258.819 199.650,259.327 200.750 C 259.962 202.124,260.641 203.568,261.835 206.083 C 262.314 207.092,262.893 208.329,263.122 208.833 C 263.351 209.338,264.018 210.747,264.603 211.967 C 265.188 213.186,265.667 214.219,265.667 214.263 C 265.667 214.307,266.071 215.185,266.565 216.213 C 268.637 220.526,269.167 221.665,269.167 221.811 C 269.167 221.896,269.542 222.723,270.000 223.650 C 270.458 224.577,270.833 225.364,270.833 225.397 C 270.833 225.431,271.366 226.574,272.018 227.938 C 272.669 229.301,273.466 230.979,273.788 231.667 C 274.753 233.725,275.582 235.487,276.416 237.250 C 276.849 238.167,277.412 239.367,277.666 239.917 C 277.920 240.467,278.520 241.742,278.999 242.750 C 279.479 243.758,280.134 245.146,280.456 245.833 C 281.299 247.636,282.181 249.510,283.083 251.417 C 283.516 252.333,284.079 253.533,284.334 254.083 C 284.861 255.220,285.768 257.151,286.919 259.583 C 287.352 260.500,287.990 261.850,288.335 262.583 C 288.681 263.317,289.318 264.667,289.751 265.583 C 290.183 266.500,290.746 267.700,291.000 268.250 C 291.254 268.800,291.817 270.000,292.251 270.917 C 292.684 271.833,293.321 273.183,293.665 273.917 C 294.404 275.488,295.299 277.386,296.497 279.917 C 296.974 280.925,298.137 283.400,299.082 285.417 C 300.026 287.433,301.219 289.972,301.733 291.059 C 302.852 293.427,302.856 293.013,301.708 294.069 C 299.824 295.804,298.702 296.774,296.679 298.417 C 295.550 299.333,294.542 300.158,294.438 300.250 C 293.695 300.906,291.485 302.596,289.358 304.133 C 289.142 304.289,288.784 304.555,288.561 304.725 C 286.877 306.005,278.004 311.833,277.739 311.833 C 277.690 311.833,277.261 312.082,276.784 312.386 C 276.307 312.689,275.504 313.158,275.000 313.426 C 274.496 313.694,274.046 313.952,274.000 313.999 C 273.954 314.045,273.654 314.222,273.333 314.392 C 273.012 314.563,272.225 314.984,271.583 315.329 C 268.568 316.949,264.835 318.771,261.500 320.248 C 260.721 320.593,259.687 321.054,259.203 321.271 C 258.719 321.489,258.269 321.667,258.203 321.668 C 258.137 321.668,257.893 321.768,257.660 321.890 C 256.619 322.433,249.475 325.084,247.250 325.753 C 246.425 326.001,245.338 326.339,244.833 326.505 C 244.007 326.776,241.742 327.449,240.667 327.742 C 240.438 327.805,239.987 327.931,239.667 328.022 C 239.346 328.113,238.671 328.289,238.167 328.413 C 235.925 328.963,235.050 329.185,234.583 329.324 C 234.308 329.406,233.821 329.519,233.500 329.576 C 233.179 329.633,232.598 329.752,232.208 329.840 C 231.819 329.928,231.181 330.072,230.792 330.160 C 230.402 330.248,229.033 330.515,227.750 330.753 C 226.467 330.991,225.079 331.255,224.667 331.339 C 224.254 331.423,223.317 331.574,222.583 331.675 C 221.850 331.776,220.762 331.929,220.167 332.015 C 217.520 332.397,216.580 332.490,210.205 333.002 C 207.539 333.217,192.444 333.215,189.753 333.000 C 183.958 332.537,182.924 332.434,179.917 332.019 C 176.646 331.568,175.961 331.461,174.500 331.172 C 173.629 331.000,172.242 330.738,171.417 330.590 C 169.894 330.317,169.181 330.168,167.833 329.842 C 167.421 329.742,166.746 329.593,166.333 329.512 C 165.076 329.266,160.829 328.195,159.667 327.831 C 159.438 327.759,158.800 327.575,158.250 327.421 C 157.700 327.267,156.575 326.932,155.750 326.675 C 154.925 326.419,153.800 326.079,153.250 325.920 C 152.700 325.762,151.875 325.498,151.417 325.335 C 147.438 323.916,145.391 323.153,144.250 322.663 C 143.883 322.505,143.058 322.172,142.417 321.921 C 141.144 321.424,140.860 321.302,139.000 320.453 C 138.313 320.139,137.262 319.670,136.667 319.410 C 135.295 318.811,128.830 315.583,127.833 315.000 C 127.421 314.758,126.575 314.282,125.953 313.941 C 124.147 312.951,123.878 312.795,121.333 311.252 C 114.763 307.269,108.338 302.618,101.667 297.017 C 100.190 295.777,99.968 296.668,103.751 288.667 C 104.640 286.787,105.612 284.725,105.913 284.083 C 106.688 282.429,108.975 277.582,110.002 275.417 C 110.480 274.408,111.115 273.058,111.414 272.417 C 111.712 271.775,112.913 269.225,114.082 266.750 C 116.217 262.231,117.008 260.553,118.168 258.083 C 118.512 257.350,119.149 256.000,119.582 255.083 C 120.015 254.167,120.615 252.892,120.916 252.250 C 121.217 251.608,121.800 250.371,122.212 249.500 C 122.625 248.629,123.561 246.642,124.294 245.083 C 125.026 243.525,125.963 241.537,126.376 240.667 C 128.353 236.498,132.208 228.296,133.034 226.500 C 133.309 225.904,133.901 224.652,134.350 223.717 C 134.799 222.783,135.167 221.975,135.167 221.921 C 135.167 221.868,135.514 221.095,135.939 220.204 C 136.364 219.313,136.992 217.983,137.336 217.250 C 137.680 216.517,138.297 215.204,138.709 214.333 C 140.371 210.813,140.898 209.694,141.459 208.500 C 141.781 207.813,142.522 206.250,143.106 205.028 C 143.689 203.806,144.167 202.783,144.167 202.754 C 144.167 202.726,144.719 201.551,145.394 200.143 C 146.069 198.735,146.810 197.171,147.040 196.667 C 147.728 195.159,148.949 192.599,150.519 189.372 C 151.333 187.697,152.000 186.301,152.000 186.269 C 152.000 186.238,152.479 185.208,153.065 183.981 C 153.899 182.236,161.504 166.085,165.338 157.917 C 165.682 157.183,166.300 155.871,166.711 155.000 C 167.886 152.513,174.310 138.880,174.918 137.583 C 175.219 136.942,175.893 135.517,176.416 134.417 C 176.940 133.317,177.577 131.967,177.832 131.417 C 178.088 130.867,178.915 129.104,179.670 127.500 C 180.425 125.896,181.339 123.953,181.702 123.183 C 182.064 122.412,182.955 120.545,183.680 119.034 C 184.406 117.523,185.000 116.268,185.000 116.245 C 185.000 116.222,185.495 115.164,186.101 113.893 C 186.706 112.623,187.411 111.133,187.666 110.583 C 187.922 110.033,190.095 105.421,192.495 100.333 C 194.895 95.246,198.069 88.509,199.547 85.362 C 201.904 80.344,202.262 79.676,202.451 79.935 C 202.570 80.098,202.667 80.291,202.667 80.366 " stroke="none" fill="#050611" fill-rule="evenodd"></path><path id="path1" d="M150.048 190.293 C 148.639 193.249,147.342 195.996,147.000 196.750 C 146.793 197.208,146.070 198.735,145.395 200.143 C 144.719 201.551,144.167 202.726,144.167 202.754 C 144.167 202.783,143.689 203.806,143.106 205.028 C 142.522 206.250,141.781 207.813,141.459 208.500 C 140.898 209.694,140.371 210.813,138.709 214.333 C 138.297 215.204,137.680 216.517,137.336 217.250 C 136.992 217.983,136.364 219.313,135.939 220.204 C 135.514 221.095,135.167 221.864,135.167 221.912 C 135.167 221.961,165.317 222.000,202.167 222.000 C 247.936 222.000,269.167 221.946,269.167 221.829 C 269.167 221.667,268.667 220.588,266.565 216.213 C 266.071 215.185,265.667 214.307,265.667 214.263 C 265.667 214.219,265.188 213.186,264.603 211.967 C 264.018 210.747,263.351 209.338,263.122 208.833 C 262.893 208.329,262.314 207.092,261.835 206.083 C 260.641 203.568,259.962 202.124,259.327 200.750 C 258.826 199.666,258.476 198.924,256.579 194.917 C 256.188 194.092,255.448 192.528,254.934 191.441 C 254.420 190.355,254.000 189.399,254.000 189.316 C 254.000 189.228,232.719 189.167,202.292 189.168 L 150.583 189.170 150.048 190.293 " stroke="none" fill="#04cc13" fill-rule="evenodd"></path><path id="path2" d="M290.307 189.458 C 290.718 190.381,291.114 191.239,291.784 192.658 C 293.354 195.983,293.936 197.224,296.203 202.083 C 297.486 204.833,298.799 207.646,299.121 208.333 C 300.575 211.440,303.034 216.734,303.506 217.773 C 303.792 218.402,304.361 219.629,304.771 220.500 L 305.516 222.083 325.745 222.040 L 345.975 221.997 346.138 221.457 C 346.228 221.160,346.350 220.729,346.408 220.500 C 346.467 220.271,346.615 219.708,346.736 219.250 C 346.858 218.792,347.087 217.817,347.246 217.083 C 347.404 216.350,347.598 215.563,347.676 215.333 C 347.755 215.104,348.008 213.942,348.239 212.750 C 348.470 211.558,348.736 210.246,348.829 209.833 C 348.923 209.421,349.071 208.596,349.158 208.000 C 349.245 207.404,349.400 206.467,349.501 205.917 C 350.013 203.149,350.688 197.392,350.998 193.167 C 351.089 191.929,351.210 190.523,351.267 190.042 L 351.372 189.167 320.775 189.167 C 291.696 189.167,290.184 189.181,290.307 189.458 " stroke="none" fill="#014eff" fill-rule="evenodd"></path><path id="path3" d="M196.792 0.458 C 198.556 0.485,201.444 0.485,203.208 0.458 C 204.973 0.431,203.529 0.409,200.000 0.409 C 196.471 0.409,195.027 0.431,196.792 0.458 M188.044 0.786 C 188.297 0.825,188.672 0.824,188.877 0.784 C 189.082 0.744,188.875 0.713,188.417 0.714 C 187.958 0.716,187.791 0.748,188.044 0.786 M211.377 0.786 C 211.631 0.825,212.006 0.824,212.211 0.784 C 212.416 0.744,212.208 0.713,211.750 0.714 C 211.292 0.716,211.124 0.748,211.377 0.786 M220.875 1.615 C 221.035 1.657,221.298 1.657,221.458 1.615 C 221.619 1.573,221.487 1.539,221.167 1.539 C 220.846 1.539,220.715 1.573,220.875 1.615 M187.292 31.118 C 187.498 31.157,187.835 31.157,188.042 31.118 C 188.248 31.078,188.079 31.045,187.667 31.045 C 187.254 31.045,187.085 31.078,187.292 31.118 M66.742 58.542 L 66.083 59.250 66.792 58.591 C 67.181 58.229,67.500 57.910,67.500 57.883 C 67.500 57.757,67.355 57.883,66.742 58.542 M19.205 164.833 C 19.205 165.154,19.240 165.285,19.282 165.125 C 19.323 164.965,19.323 164.702,19.282 164.542 C 19.240 164.381,19.205 164.512,19.205 164.833 M18.881 168.750 C 18.882 169.208,18.915 169.376,18.953 169.123 C 18.991 168.869,18.990 168.494,18.951 168.289 C 18.911 168.084,18.880 168.292,18.881 168.750 M351.267 190.042 C 351.210 190.523,351.089 191.929,350.998 193.167 C 350.688 197.392,350.013 203.149,349.501 205.917 C 349.400 206.467,349.245 207.404,349.158 208.000 C 349.071 208.596,348.923 209.421,348.829 209.833 C 348.736 210.246,348.470 211.558,348.239 212.750 C 348.008 213.942,347.755 215.104,347.676 215.333 C 347.598 215.563,347.404 216.350,347.246 217.083 C 347.087 217.817,346.848 218.829,346.714 219.333 C 346.581 219.838,346.414 220.475,346.345 220.750 C 346.275 221.025,346.164 221.419,346.098 221.626 L 345.977 222.002 361.607 221.959 L 377.236 221.917 377.370 221.333 C 377.443 221.012,377.614 220.188,377.751 219.500 C 377.887 218.813,378.078 217.875,378.175 217.417 C 378.272 216.958,378.456 215.983,378.583 215.250 C 378.711 214.517,378.899 213.467,379.000 212.917 C 379.460 210.423,380.030 206.472,380.501 202.500 C 380.811 199.890,381.254 194.432,381.424 191.125 L 381.524 189.167 366.448 189.167 L 351.372 189.167 351.267 190.042 M18.879 195.167 C 18.879 195.579,18.911 195.748,18.951 195.542 C 18.991 195.335,18.991 194.998,18.951 194.792 C 18.911 194.585,18.879 194.754,18.879 195.167 M19.205 199.000 C 19.205 199.321,19.240 199.452,19.282 199.292 C 19.323 199.131,19.323 198.869,19.282 198.708 C 19.240 198.548,19.205 198.679,19.205 199.000 M49.539 199.000 C 49.539 199.321,49.573 199.452,49.615 199.292 C 49.657 199.131,49.657 198.869,49.615 198.708 C 49.573 198.548,49.539 198.679,49.539 199.000 M184.627 332.618 C 184.834 332.658,185.134 332.656,185.294 332.615 C 185.453 332.573,185.283 332.540,184.917 332.542 C 184.550 332.544,184.420 332.578,184.627 332.618 M214.960 332.618 C 215.168 332.658,215.468 332.656,215.627 332.615 C 215.786 332.573,215.617 332.540,215.250 332.542 C 214.883 332.544,214.753 332.578,214.960 332.618 M42.042 356.458 C 43.027 356.487,44.640 356.487,45.625 356.458 C 46.610 356.428,45.804 356.404,43.833 356.404 C 41.862 356.404,41.056 356.428,42.042 356.458 M185.127 362.951 C 185.334 362.991,185.634 362.990,185.794 362.948 C 185.953 362.906,185.783 362.874,185.417 362.875 C 185.050 362.877,184.920 362.911,185.127 362.951 M214.294 362.951 C 214.501 362.991,214.801 362.990,214.960 362.948 C 215.120 362.906,214.950 362.874,214.583 362.875 C 214.217 362.877,214.086 362.911,214.294 362.951 " stroke="none" fill="#5905d5" fill-rule="evenodd"></path><path id="path4" d="M0.000 182.250 L 0.000 364.500 200.000 364.500 L 400.000 364.500 400.000 182.250 L 400.000 0.000 200.000 0.000 L 0.000 0.000 0.000 182.250 M210.833 0.655 C 212.162 0.747,214.075 0.896,215.083 0.985 C 221.408 1.544,220.805 1.476,225.000 2.094 C 225.963 2.236,227.501 2.456,228.419 2.583 C 229.337 2.710,230.649 2.923,231.335 3.056 C 232.022 3.190,233.296 3.422,234.167 3.572 C 235.037 3.722,236.012 3.912,236.333 3.994 C 236.654 4.077,237.517 4.267,238.250 4.417 C 239.726 4.719,242.098 5.263,243.000 5.506 C 243.321 5.593,244.183 5.808,244.917 5.985 C 247.155 6.524,250.067 7.322,251.667 7.835 C 251.896 7.909,252.758 8.173,253.583 8.423 C 255.431 8.981,259.963 10.468,260.417 10.664 C 260.600 10.743,261.125 10.934,261.583 11.088 C 262.042 11.242,262.567 11.430,262.750 11.506 C 262.933 11.582,264.208 12.069,265.583 12.588 C 266.958 13.108,268.479 13.713,268.963 13.933 C 269.447 14.153,269.883 14.333,269.931 14.333 C 269.979 14.333,270.333 14.476,270.717 14.649 C 271.102 14.823,271.867 15.154,272.417 15.385 C 273.953 16.029,275.413 16.697,279.136 18.460 L 280.452 19.083 278.647 22.917 C 277.655 25.025,276.491 27.500,276.061 28.417 C 275.631 29.333,274.833 31.021,274.288 32.167 C 272.727 35.446,272.029 36.933,269.753 41.833 C 268.582 44.354,267.605 46.438,267.583 46.465 C 267.561 46.491,267.027 46.258,266.397 45.946 C 264.480 45.000,260.518 43.167,260.389 43.167 C 260.347 43.167,259.902 42.979,259.401 42.750 C 258.900 42.521,258.436 42.333,258.370 42.332 C 258.304 42.332,258.060 42.232,257.827 42.110 C 257.442 41.910,253.810 40.499,250.667 39.329 C 249.342 38.836,243.711 37.024,242.167 36.594 C 241.662 36.454,240.537 36.147,239.667 35.914 C 238.796 35.680,237.821 35.417,237.500 35.329 C 237.179 35.242,236.092 34.976,235.083 34.740 C 234.075 34.503,232.774 34.197,232.193 34.060 C 231.612 33.923,230.112 33.624,228.860 33.396 C 227.608 33.168,226.208 32.912,225.750 32.826 C 225.292 32.741,224.129 32.558,223.167 32.419 C 222.204 32.280,220.929 32.087,220.333 31.990 C 216.652 31.393,216.685 31.369,217.760 33.838 C 218.831 36.299,218.821 36.277,220.297 39.417 C 221.783 42.576,227.311 54.391,228.211 56.333 C 229.071 58.187,241.931 85.712,242.617 87.167 C 242.942 87.854,243.392 88.829,243.619 89.333 C 244.266 90.773,244.723 91.756,245.816 94.056 C 246.376 95.233,246.833 96.217,246.833 96.243 C 246.833 96.269,247.311 97.293,247.894 98.520 C 248.478 99.746,249.162 101.200,249.415 101.750 C 249.669 102.300,250.083 103.200,250.336 103.750 C 250.588 104.300,251.150 105.500,251.583 106.417 C 252.016 107.333,252.841 109.096,253.416 110.333 C 253.990 111.571,255.328 114.430,256.388 116.688 C 257.448 118.946,258.573 121.346,258.887 122.021 C 259.555 123.457,269.927 145.659,270.790 147.500 C 271.112 148.188,271.619 149.275,271.917 149.917 C 272.516 151.208,272.792 151.800,275.500 157.583 C 276.530 159.783,277.768 162.446,278.251 163.500 C 278.735 164.554,279.448 166.092,279.836 166.917 C 281.025 169.443,285.397 178.803,287.874 184.125 L 290.220 189.167 335.872 189.167 L 381.524 189.167 381.424 191.125 C 381.254 194.432,380.811 199.890,380.501 202.500 C 380.030 206.472,379.460 210.423,379.000 212.917 C 378.899 213.467,378.711 214.517,378.583 215.250 C 378.456 215.983,378.272 216.958,378.176 217.417 C 378.079 217.875,377.923 218.662,377.828 219.167 C 377.636 220.192,377.066 222.651,376.844 223.417 C 376.764 223.692,376.648 224.217,376.587 224.583 C 376.526 224.950,376.334 225.775,376.160 226.417 C 375.986 227.058,375.653 228.296,375.421 229.167 C 374.684 231.925,374.805 231.503,373.555 235.667 C 373.404 236.171,373.073 237.183,372.821 237.917 C 372.569 238.650,372.311 239.438,372.249 239.667 C 372.101 240.208,371.024 243.318,370.835 243.750 C 370.755 243.933,370.304 245.133,369.834 246.417 C 369.363 247.700,368.877 248.975,368.752 249.250 C 368.628 249.525,368.367 250.162,368.172 250.667 C 367.977 251.171,367.709 251.827,367.576 252.125 C 367.442 252.423,367.227 252.910,367.098 253.208 C 364.779 258.546,362.072 264.191,360.124 267.750 C 359.723 268.483,359.069 269.683,358.671 270.417 C 358.273 271.150,357.809 271.949,357.640 272.192 C 357.471 272.436,357.333 272.680,357.333 272.736 C 357.333 272.791,356.958 273.435,356.500 274.167 C 356.042 274.898,355.667 275.531,355.667 275.573 C 355.667 275.703,351.044 282.975,350.839 283.167 C 350.790 283.212,350.375 283.812,349.917 284.500 C 348.069 287.272,342.899 294.275,342.166 295.000 C 342.119 295.046,341.860 295.383,341.588 295.750 C 341.317 296.117,340.999 296.516,340.881 296.637 C 340.528 297.000,340.428 296.722,342.626 301.500 C 342.942 302.188,343.689 303.837,344.285 305.167 C 344.882 306.496,346.440 309.946,347.749 312.833 C 349.057 315.721,352.096 322.433,354.501 327.750 C 357.181 333.672,360.707 341.081,363.604 346.874 C 366.205 352.076,368.333 356.370,368.333 356.416 C 368.333 356.462,360.308 356.500,350.500 356.500 C 336.345 356.500,332.667 356.457,332.666 356.292 C 332.666 356.177,331.909 354.471,330.984 352.500 C 330.058 350.529,329.091 348.467,328.835 347.917 C 328.578 347.367,327.305 344.667,326.006 341.917 C 324.706 339.167,323.367 336.317,323.031 335.583 C 322.694 334.850,321.641 332.637,320.691 330.667 C 319.741 328.696,318.363 325.835,317.628 324.309 L 316.293 321.536 315.510 322.143 C 315.080 322.477,313.998 323.337,313.107 324.054 C 310.026 326.535,304.208 330.788,301.417 332.600 C 300.867 332.957,300.379 333.291,300.333 333.343 C 300.210 333.482,293.842 337.500,293.746 337.500 C 293.700 337.500,293.065 337.875,292.333 338.333 C 291.602 338.792,290.964 339.167,290.915 339.167 C 290.867 339.167,290.547 339.341,290.205 339.555 C 289.863 339.769,289.058 340.231,288.417 340.583 C 287.775 340.935,286.800 341.472,286.250 341.778 C 284.532 342.733,277.162 346.393,275.469 347.132 C 274.581 347.520,273.296 348.099,272.613 348.419 C 271.930 348.738,271.328 349.000,271.274 349.000 C 271.220 349.000,270.781 349.178,270.297 349.396 C 269.813 349.614,267.992 350.336,266.250 351.000 C 262.551 352.411,262.450 352.450,261.958 352.659 C 261.447 352.876,257.722 354.158,257.000 354.365 C 256.679 354.457,255.779 354.742,255.000 354.998 C 251.007 356.309,245.654 357.772,240.333 359.008 C 238.077 359.532,237.679 359.616,235.167 360.090 C 233.929 360.324,232.542 360.588,232.083 360.676 C 231.625 360.765,230.575 360.944,229.750 361.074 C 228.925 361.204,227.725 361.394,227.083 361.496 C 225.226 361.793,220.941 362.320,217.583 362.663 C 216.042 362.821,213.067 363.029,208.062 363.329 C 204.433 363.546,195.565 363.550,192.087 363.335 C 183.818 362.825,183.345 362.788,179.583 362.344 C 176.146 361.939,174.020 361.666,173.000 361.498 C 172.404 361.401,171.392 361.247,170.750 361.156 C 170.108 361.066,169.246 360.923,168.833 360.839 C 168.421 360.755,167.033 360.491,165.750 360.253 C 164.467 360.015,163.117 359.751,162.750 359.667 C 162.383 359.583,161.408 359.360,160.583 359.172 C 159.275 358.873,157.398 358.419,154.000 357.581 C 153.496 357.456,152.821 357.281,152.500 357.192 C 152.179 357.102,151.473 356.908,150.930 356.759 C 147.698 355.876,142.478 354.209,139.000 352.949 C 134.146 351.191,133.068 350.787,132.917 350.672 C 132.825 350.602,132.305 350.380,131.761 350.180 C 131.217 349.979,130.371 349.632,129.881 349.408 C 129.391 349.183,128.948 349.000,128.897 349.000 C 128.846 349.000,128.318 348.775,127.724 348.500 C 127.130 348.225,126.613 348.000,126.576 348.000 C 126.508 348.000,125.356 347.480,123.021 346.394 C 121.018 345.462,116.705 343.318,115.333 342.572 C 114.646 342.197,113.521 341.588,112.833 341.217 C 112.146 340.846,111.283 340.373,110.917 340.165 C 110.550 339.956,109.912 339.599,109.500 339.369 C 109.087 339.140,108.563 338.822,108.333 338.663 C 108.104 338.505,107.654 338.232,107.333 338.059 C 106.747 337.741,104.694 336.499,103.863 335.960 C 103.618 335.801,103.301 335.613,103.159 335.544 C 102.905 335.419,96.074 330.887,95.750 330.629 C 95.455 330.394,94.363 329.595,93.799 329.200 C 92.905 328.577,88.807 325.506,88.055 324.896 C 87.053 324.084,87.192 323.905,84.882 328.984 C 84.565 329.680,83.983 330.925,83.589 331.750 C 82.529 333.968,81.429 336.305,81.000 337.250 C 80.792 337.708,80.107 339.159,79.477 340.474 C 78.848 341.789,78.333 342.886,78.333 342.911 C 78.333 342.936,77.856 343.960,77.273 345.187 C 76.689 346.413,76.021 347.829,75.788 348.333 C 75.400 349.174,74.911 350.213,72.703 354.893 L 71.928 356.535 53.722 356.476 C 40.961 356.434,35.463 356.363,35.336 356.236 C 35.207 356.107,35.605 355.125,36.745 352.765 C 37.618 350.956,38.333 349.454,38.333 349.428 C 38.333 349.402,38.923 348.152,39.644 346.649 C 41.587 342.598,42.482 340.718,43.087 339.417 C 43.385 338.775,44.237 336.984,44.981 335.437 C 45.725 333.891,46.333 332.606,46.333 332.584 C 46.333 332.561,47.015 331.127,47.848 329.396 C 48.681 327.666,49.516 325.912,49.704 325.500 C 49.892 325.087,50.710 323.371,51.523 321.685 C 52.335 319.999,53.000 318.598,53.000 318.572 C 53.000 318.546,53.712 317.049,54.583 315.246 C 55.454 313.442,56.167 311.944,56.167 311.917 C 56.167 311.891,56.922 310.305,57.845 308.393 C 58.769 306.481,59.800 304.318,60.137 303.586 C 60.474 302.855,61.017 301.713,61.343 301.049 L 61.936 299.841 61.093 298.859 C 59.788 297.339,58.134 295.337,57.641 294.679 C 57.396 294.351,56.587 293.296,55.845 292.333 C 55.102 291.371,53.957 289.833,53.300 288.917 C 52.643 288.000,52.062 287.212,52.010 287.167 C 51.540 286.751,45.279 277.123,43.835 274.594 C 43.674 274.313,43.158 273.421,42.688 272.612 C 42.218 271.803,41.833 271.110,41.833 271.073 C 41.833 271.035,41.615 270.648,41.348 270.211 C 40.013 268.027,34.167 256.365,34.167 255.887 C 34.167 255.841,33.942 255.318,33.667 254.724 C 33.392 254.130,33.167 253.613,33.167 253.576 C 33.167 253.539,32.953 253.038,32.692 252.463 C 32.431 251.887,32.081 251.042,31.913 250.583 C 31.746 250.125,31.559 249.675,31.497 249.583 C 31.435 249.492,31.105 248.667,30.763 247.750 C 30.421 246.833,30.081 245.933,30.007 245.750 C 29.646 244.854,28.554 241.752,27.513 238.667 C 27.142 237.568,26.087 234.164,25.833 233.250 C 25.757 232.975,25.496 232.075,25.255 231.250 C 24.655 229.204,23.174 223.340,22.645 220.917 C 22.516 220.323,22.177 218.651,21.902 217.250 C 21.848 216.975,21.692 216.188,21.554 215.500 C 21.417 214.813,21.196 213.575,21.063 212.750 C 20.930 211.925,20.754 210.838,20.672 210.333 C 20.180 207.293,19.926 205.386,19.487 201.417 C 18.721 194.493,18.603 191.888,18.603 181.917 C 18.603 172.976,18.686 170.547,19.162 165.583 C 19.473 162.336,20.048 157.435,20.317 155.750 C 20.405 155.200,20.554 154.262,20.649 153.667 C 20.891 152.143,21.302 149.749,21.506 148.667 C 22.030 145.900,22.461 143.747,22.666 142.875 C 22.758 142.485,22.900 141.885,22.981 141.542 C 23.063 141.198,23.220 140.504,23.332 140.000 C 23.554 138.990,24.242 136.249,24.502 135.333 C 24.593 135.012,24.887 133.962,25.154 133.000 C 26.593 127.823,29.139 120.107,30.379 117.167 C 30.514 116.846,30.758 116.208,30.922 115.750 C 31.086 115.292,31.385 114.542,31.587 114.083 C 31.789 113.625,32.012 113.063,32.083 112.833 C 32.154 112.604,32.427 111.946,32.689 111.371 C 32.952 110.796,33.167 110.295,33.167 110.258 C 33.167 110.221,33.429 109.623,33.750 108.928 C 34.071 108.234,34.333 107.633,34.333 107.592 C 34.333 107.350,38.353 99.127,39.674 96.667 C 40.898 94.388,42.319 91.848,42.774 91.129 C 42.990 90.787,43.167 90.478,43.167 90.442 C 43.167 89.929,51.982 76.447,53.533 74.587 C 53.611 74.493,54.323 73.554,55.114 72.500 C 55.905 71.446,56.747 70.350,56.984 70.066 C 57.222 69.781,57.717 69.152,58.083 68.669 C 59.000 67.460,60.048 66.200,62.607 63.231 C 68.476 56.423,75.523 49.403,81.829 44.083 C 82.589 43.442,83.339 42.798,83.494 42.654 C 83.855 42.317,87.196 39.623,88.334 38.750 C 88.813 38.383,89.289 38.008,89.394 37.917 C 90.361 37.067,96.367 32.785,99.250 30.891 C 100.258 30.228,101.158 29.623,101.250 29.545 C 101.342 29.467,101.904 29.111,102.500 28.754 C 103.096 28.396,103.621 28.056,103.667 27.998 C 103.712 27.940,103.862 27.841,104.000 27.778 C 104.138 27.715,104.475 27.525,104.750 27.356 C 107.256 25.811,109.209 24.667,109.341 24.667 C 109.428 24.667,109.500 24.592,109.500 24.500 C 109.500 24.408,109.573 24.333,109.661 24.333 C 109.750 24.333,110.933 23.709,112.291 22.946 C 114.452 21.732,121.197 18.312,123.833 17.094 C 125.517 16.317,127.357 15.500,127.425 15.500 C 127.462 15.500,127.983 15.275,128.583 15.000 C 129.184 14.725,129.715 14.500,129.765 14.500 C 129.814 14.500,130.244 14.324,130.719 14.109 C 131.194 13.894,131.958 13.581,132.417 13.414 C 132.875 13.246,133.325 13.056,133.417 12.991 C 133.508 12.926,134.371 12.589,135.333 12.242 C 136.296 11.895,137.646 11.404,138.333 11.151 C 139.576 10.692,146.189 8.513,148.417 7.827 C 149.740 7.420,149.948 7.362,152.250 6.753 C 155.509 5.892,157.093 5.485,157.833 5.319 C 158.246 5.226,158.846 5.086,159.167 5.007 C 159.487 4.928,160.350 4.736,161.083 4.581 C 161.817 4.425,162.679 4.239,163.000 4.167 C 163.321 4.095,164.408 3.878,165.417 3.684 C 168.901 3.014,169.822 2.852,171.750 2.568 C 172.667 2.433,173.904 2.250,174.500 2.160 C 176.720 1.828,178.149 1.651,180.583 1.406 C 184.770 0.984,186.446 0.851,189.833 0.668 C 191.621 0.571,193.233 0.462,193.417 0.426 C 194.057 0.299,208.437 0.488,210.833 0.655 M186.667 31.177 C 184.907 31.307,183.332 31.493,180.250 31.935 C 179.333 32.066,177.983 32.248,177.250 32.339 C 176.517 32.430,175.579 32.574,175.167 32.659 C 174.540 32.788,172.587 33.158,171.250 33.400 C 171.067 33.433,170.579 33.512,170.167 33.575 C 169.754 33.638,169.192 33.752,168.917 33.827 C 168.642 33.902,167.817 34.094,167.083 34.254 C 166.350 34.414,164.325 34.914,162.583 35.365 C 160.842 35.817,159.154 36.249,158.833 36.327 C 156.277 36.946,148.790 39.440,146.167 40.545 C 145.846 40.680,145.208 40.925,144.750 41.089 C 144.292 41.253,143.521 41.562,143.037 41.777 C 142.553 41.991,142.115 42.167,142.065 42.167 C 141.985 42.167,140.705 42.701,139.083 43.411 C 134.252 45.527,125.693 49.955,122.378 52.054 C 121.991 52.299,121.597 52.500,121.503 52.500 C 121.410 52.500,121.333 52.558,121.333 52.629 C 121.333 52.700,121.053 52.906,120.710 53.087 C 120.177 53.369,119.069 54.056,118.167 54.665 C 118.029 54.757,116.867 55.530,115.583 56.383 C 112.789 58.238,111.960 58.820,109.667 60.537 C 106.652 62.793,106.177 63.167,103.852 65.109 C 102.991 65.828,102.016 66.625,101.685 66.880 C 101.354 67.134,101.008 67.434,100.917 67.546 C 100.825 67.658,100.266 68.162,99.675 68.667 C 94.768 72.852,86.987 80.945,82.706 86.316 C 81.508 87.820,80.990 88.463,80.500 89.056 C 80.271 89.334,79.746 90.024,79.333 90.591 C 78.921 91.158,78.269 92.034,77.885 92.539 C 77.050 93.639,75.484 95.887,74.199 97.833 C 73.684 98.612,73.223 99.287,73.173 99.333 C 73.124 99.379,72.993 99.567,72.884 99.750 C 71.641 101.824,71.256 102.425,71.138 102.472 C 71.062 102.503,71.000 102.595,71.000 102.678 C 71.000 102.760,70.689 103.335,70.308 103.955 C 69.928 104.576,69.487 105.308,69.329 105.583 C 67.228 109.230,66.925 109.794,64.842 113.917 C 63.052 117.460,62.150 119.366,61.333 121.333 C 61.086 121.929,60.730 122.754,60.542 123.167 C 60.355 123.579,59.700 125.229,59.088 126.833 C 58.476 128.438,57.908 129.900,57.827 130.083 C 57.494 130.831,56.196 134.689,55.415 137.250 C 55.079 138.350,54.740 139.438,54.662 139.667 C 54.583 139.896,54.397 140.571,54.248 141.167 C 53.881 142.644,53.652 143.505,53.498 144.000 C 53.381 144.376,53.150 145.314,52.638 147.500 C 52.541 147.912,52.396 148.475,52.316 148.750 C 52.191 149.177,51.864 150.790,51.336 153.583 C 51.267 153.950,51.050 155.225,50.853 156.417 C 50.657 157.608,50.420 158.996,50.328 159.500 C 50.235 160.004,50.088 161.017,50.001 161.750 C 49.914 162.483,49.764 163.683,49.668 164.417 C 49.434 166.200,49.194 168.634,49.003 171.167 C 48.797 173.890,48.798 190.173,49.003 192.750 C 49.320 196.727,50.004 202.574,50.485 205.417 C 50.932 208.059,51.180 209.488,51.323 210.250 C 51.666 212.068,52.527 216.112,52.672 216.583 C 52.756 216.858,53.058 218.021,53.342 219.167 C 53.626 220.313,53.922 221.475,53.999 221.750 C 54.076 222.025,54.324 222.963,54.550 223.833 C 55.124 226.049,58.437 235.745,59.262 237.625 C 59.393 237.923,59.612 238.422,59.750 238.734 C 59.887 239.045,60.000 239.343,60.000 239.395 C 60.000 239.447,60.188 239.900,60.417 240.401 C 60.646 240.902,60.833 241.352,60.833 241.402 C 60.833 241.451,61.047 241.962,61.309 242.537 C 61.570 243.113,61.997 244.071,62.257 244.667 C 62.894 246.124,66.544 253.422,67.285 254.715 C 67.610 255.284,68.102 256.162,68.377 256.667 C 68.652 257.171,69.167 258.050,69.522 258.621 C 69.876 259.192,70.167 259.735,70.167 259.829 C 70.167 259.923,70.242 260.000,70.333 260.000 C 70.425 260.000,70.500 260.079,70.500 260.175 C 70.500 260.389,72.521 263.592,74.345 266.270 C 75.087 267.359,75.819 268.456,75.972 268.707 C 76.368 269.359,76.329 269.406,77.627 266.708 C 79.136 263.573,80.911 259.846,81.457 258.667 C 81.690 258.162,82.508 256.446,83.274 254.853 C 84.040 253.259,84.667 251.935,84.667 251.909 C 84.667 251.884,85.379 250.386,86.250 248.579 C 87.121 246.772,87.833 245.276,87.833 245.253 C 87.833 245.230,88.404 244.020,89.101 242.564 C 90.310 240.037,90.801 239.003,92.354 235.708 C 92.732 234.906,93.669 232.945,94.437 231.351 C 95.205 229.757,95.833 228.431,95.833 228.405 C 95.833 228.379,96.508 226.955,97.333 225.241 C 98.158 223.527,98.833 222.106,98.833 222.083 C 98.833 222.060,99.442 220.776,100.186 219.229 C 100.930 217.682,101.783 215.892,102.082 215.250 C 103.151 212.958,104.062 211.041,105.437 208.184 C 106.205 206.590,106.833 205.263,106.833 205.236 C 106.833 205.208,107.546 203.709,108.417 201.904 C 109.287 200.098,110.000 198.598,110.000 198.570 C 110.000 198.542,110.712 197.042,111.583 195.237 C 112.454 193.432,113.167 191.933,113.167 191.906 C 113.167 191.879,113.842 190.455,114.667 188.741 C 115.492 187.027,116.167 185.607,116.167 185.585 C 116.167 185.563,116.879 184.068,117.750 182.263 C 118.621 180.458,119.333 178.958,119.333 178.930 C 119.333 178.902,120.046 177.402,120.917 175.596 C 121.787 173.791,122.500 172.292,122.500 172.264 C 122.500 172.237,123.128 170.910,123.896 169.316 C 124.664 167.721,125.601 165.760,125.979 164.958 C 127.532 161.664,128.023 160.629,129.233 158.103 C 129.930 156.647,130.500 155.436,130.500 155.412 C 130.500 155.388,131.250 153.815,132.167 151.917 C 133.083 150.018,133.833 148.442,133.833 148.414 C 133.833 148.386,134.546 146.886,135.417 145.079 C 136.287 143.272,137.000 141.772,137.000 141.746 C 137.000 141.719,137.712 140.219,138.583 138.412 C 139.454 136.606,140.167 135.109,140.167 135.086 C 140.167 135.063,140.737 133.853,141.435 132.397 C 142.133 130.941,142.950 129.225,143.251 128.583 C 143.552 127.942,144.227 126.517,144.751 125.417 C 145.654 123.519,146.094 122.593,148.038 118.500 C 148.495 117.537,149.152 116.150,149.498 115.417 C 149.844 114.683,150.557 113.183,151.082 112.083 C 151.607 110.983,152.283 109.558,152.585 108.917 C 152.886 108.275,153.637 106.700,154.252 105.417 C 155.542 102.727,156.670 100.349,157.335 98.917 C 157.591 98.367,158.520 96.427,159.400 94.605 C 160.280 92.784,161.000 91.273,161.000 91.247 C 161.000 91.222,161.712 89.725,162.583 87.921 C 163.454 86.117,164.167 84.620,164.167 84.593 C 164.167 84.566,164.738 83.353,165.436 81.897 C 166.133 80.441,167.362 77.862,168.166 76.167 C 168.970 74.471,170.058 72.183,170.585 71.083 C 171.111 69.983,171.823 68.483,172.165 67.750 C 172.508 67.017,174.271 63.304,176.084 59.500 C 177.896 55.696,179.734 51.833,180.169 50.917 C 180.603 50.000,182.065 46.925,183.417 44.083 C 184.768 41.242,186.168 38.286,186.528 37.515 C 186.888 36.744,187.398 35.656,187.661 35.098 C 188.694 32.907,189.500 31.143,189.500 31.073 C 189.500 30.986,188.999 31.004,186.667 31.177 M200.672 83.056 C 199.804 84.904,198.615 87.429,198.028 88.667 C 197.442 89.904,196.453 92.004,195.831 93.333 C 195.209 94.662,194.309 96.575,193.831 97.583 C 193.353 98.592,192.681 100.017,192.336 100.750 C 190.384 104.904,183.378 119.743,182.500 121.583 C 181.931 122.775,181.257 124.200,181.002 124.750 C 180.747 125.300,179.883 127.138,179.082 128.833 C 178.281 130.529,177.344 132.517,177.000 133.250 C 176.656 133.983,175.719 135.971,174.919 137.667 C 174.118 139.362,173.217 141.275,172.917 141.917 C 172.616 142.558,172.033 143.796,171.621 144.667 C 170.905 146.179,168.834 150.579,167.501 153.417 C 167.157 154.150,165.601 157.450,164.044 160.750 C 162.486 164.050,161.022 167.162,160.791 167.667 C 160.559 168.171,159.341 170.758,158.084 173.417 C 156.827 176.075,155.609 178.662,155.377 179.167 C 155.145 179.671,154.478 181.087,153.894 182.313 C 153.311 183.540,152.833 184.561,152.833 184.583 C 152.833 184.605,152.353 185.626,151.765 186.853 L 150.697 189.083 202.126 189.125 C 230.412 189.148,253.582 189.140,253.614 189.108 C 253.676 189.046,252.400 186.245,249.919 181.000 C 247.800 176.522,247.228 175.305,244.587 169.667 C 243.277 166.871,241.852 163.833,241.420 162.917 C 240.988 162.000,239.599 159.037,238.333 156.333 C 237.068 153.629,235.605 150.517,235.083 149.417 C 233.599 146.289,227.921 134.239,223.617 125.083 C 221.463 120.500,219.272 115.850,218.750 114.750 C 217.814 112.777,214.710 106.178,213.499 103.583 C 213.156 102.850,212.182 100.787,211.334 99.000 C 209.760 95.683,208.785 93.621,207.670 91.250 C 203.735 82.886,202.930 81.157,202.708 80.583 C 202.566 80.217,202.405 79.867,202.350 79.806 C 202.295 79.745,201.540 81.207,200.672 83.056 M134.125 224.292 C 133.207 226.215,129.306 234.497,127.001 239.417 C 126.657 240.150,125.420 242.775,124.251 245.250 C 123.082 247.725,121.844 250.350,121.501 251.083 C 121.157 251.817,119.920 254.442,118.751 256.917 C 117.582 259.392,116.344 262.017,115.999 262.750 C 114.289 266.390,112.553 270.077,111.879 271.500 C 111.467 272.371,110.883 273.608,110.583 274.250 C 110.282 274.892,109.682 276.167,109.248 277.083 C 108.815 278.000,108.179 279.350,107.835 280.083 C 107.048 281.759,106.118 283.729,105.002 286.083 C 104.525 287.092,103.645 288.967,103.047 290.250 C 102.448 291.533,101.631 293.277,101.229 294.124 C 100.303 296.081,100.228 295.823,102.182 297.417 C 102.407 297.600,103.039 298.129,103.587 298.592 C 108.066 302.376,116.609 308.466,121.000 311.004 C 121.688 311.402,122.362 311.816,122.500 311.925 C 122.638 312.034,123.087 312.309,123.500 312.536 C 123.912 312.763,124.925 313.330,125.750 313.795 C 128.643 315.426,130.106 316.197,132.750 317.486 C 135.767 318.957,138.323 320.167,138.414 320.167 C 138.448 320.167,139.044 320.429,139.739 320.750 C 140.433 321.071,141.043 321.333,141.095 321.333 C 141.146 321.333,141.577 321.511,142.052 321.727 C 142.528 321.944,143.104 322.179,143.333 322.250 C 143.563 322.321,144.133 322.554,144.600 322.767 C 146.055 323.429,151.496 325.364,154.083 326.138 C 155.000 326.413,156.387 326.837,157.167 327.081 C 158.978 327.649,162.709 328.627,165.833 329.353 C 166.612 329.534,167.512 329.753,167.833 329.839 C 168.154 329.925,168.867 330.080,169.417 330.182 C 169.967 330.284,170.717 330.428,171.083 330.502 C 172.067 330.699,174.365 331.109,176.167 331.409 C 177.037 331.554,178.162 331.746,178.667 331.836 C 179.793 332.037,181.678 332.244,188.083 332.871 C 191.094 333.166,208.712 333.164,211.917 332.868 C 217.713 332.334,221.524 331.867,224.417 331.338 C 224.967 331.238,225.642 331.123,225.917 331.084 C 226.192 331.044,227.204 330.851,228.167 330.654 C 229.129 330.457,230.442 330.192,231.083 330.065 C 232.469 329.791,233.213 329.623,234.667 329.257 C 235.262 329.106,236.313 328.844,237.000 328.674 C 239.210 328.127,241.380 327.537,242.833 327.089 C 243.612 326.849,244.887 326.461,245.667 326.227 C 247.131 325.788,251.662 324.260,252.250 324.007 C 252.433 323.928,253.333 323.583,254.250 323.242 C 255.167 322.900,255.992 322.565,256.083 322.497 C 256.175 322.430,256.438 322.318,256.667 322.249 C 256.896 322.180,257.383 321.989,257.750 321.826 C 258.117 321.662,259.130 321.230,260.001 320.864 C 261.570 320.206,262.767 319.670,265.062 318.596 C 265.715 318.290,266.550 317.903,266.917 317.737 C 267.283 317.570,267.621 317.393,267.667 317.342 C 267.712 317.291,268.387 316.931,269.167 316.541 C 270.856 315.694,273.050 314.514,274.384 313.733 C 274.916 313.422,275.386 313.167,275.429 313.167 C 275.471 313.167,276.110 312.792,276.849 312.333 C 277.588 311.875,278.230 311.500,278.275 311.500 C 278.320 311.500,278.671 311.294,279.056 311.042 C 279.441 310.790,279.904 310.493,280.086 310.383 C 282.444 308.953,287.804 305.294,290.412 303.333 C 290.717 303.104,291.175 302.767,291.430 302.583 C 291.684 302.400,292.171 302.025,292.511 301.750 C 292.851 301.475,293.564 300.912,294.095 300.500 C 294.625 300.087,295.371 299.487,295.751 299.167 C 296.132 298.846,296.808 298.283,297.254 297.917 C 298.895 296.569,300.433 295.223,301.542 294.167 L 302.679 293.083 302.257 292.212 C 302.025 291.732,301.583 290.795,301.273 290.128 C 300.963 289.462,299.754 286.892,298.585 284.417 C 297.415 281.942,296.177 279.317,295.832 278.583 C 294.122 274.943,292.386 271.256,291.712 269.833 C 291.300 268.962,290.717 267.725,290.416 267.083 C 290.115 266.442,289.515 265.167,289.082 264.250 C 288.197 262.379,287.323 260.520,286.455 258.667 C 286.133 257.979,285.516 256.667,285.083 255.750 C 284.651 254.833,284.014 253.483,283.668 252.750 C 282.305 249.859,280.265 245.524,279.748 244.417 C 279.448 243.775,278.849 242.500,278.416 241.583 C 277.983 240.667,277.384 239.392,277.083 238.750 C 276.783 238.108,275.882 236.196,275.081 234.500 C 273.397 230.933,272.459 228.934,271.904 227.731 C 271.688 227.262,270.988 225.781,270.350 224.439 L 269.188 222.000 202.204 222.000 L 135.219 222.000 134.125 224.292 M305.667 222.068 C 305.667 222.165,306.484 223.959,307.497 226.083 C 307.978 227.092,312.308 236.354,317.120 246.667 C 326.694 267.186,326.036 265.862,326.381 265.309 C 326.515 265.093,327.064 264.242,327.600 263.417 C 328.136 262.592,328.659 261.767,328.762 261.583 C 328.865 261.400,329.523 260.297,330.224 259.132 C 330.926 257.966,331.500 256.974,331.500 256.926 C 331.500 256.878,331.718 256.481,331.984 256.044 C 333.289 253.900,338.500 243.538,338.500 243.085 C 338.500 243.015,338.927 242.034,339.679 240.377 C 339.856 239.988,340.000 239.625,340.000 239.569 C 340.000 239.513,340.110 239.231,340.244 238.942 C 340.378 238.653,340.719 237.782,341.002 237.007 C 341.285 236.232,341.618 235.370,341.742 235.091 C 342.444 233.512,344.440 227.446,345.474 223.750 C 345.653 223.108,345.853 222.452,345.918 222.292 C 346.030 222.015,345.008 222.000,325.851 222.000 C 314.750 222.000,305.667 222.031,305.667 222.068 " stroke="none" fill="#ffffff" fill-rule="evenodd"></path></g></svg>