<svg xmlns="http://www.w3.org/2000/svg" width="3783" height="3448" viewBox="0 0 3783 3448" version="1.1">
	<path d="M 0 1724 L 0 3448.001 1891.750 3447.750 L 3783.500 3447.500 3783.750 1723.750 L 3784.001 -0 1892 -0 L 0 0 0 1724 M 0.499 1724.500 C 0.499 2672.700, 0.612 3060.450, 0.750 2586.167 C 0.888 2111.884, 0.888 1336.084, 0.750 862.167 C 0.612 388.250, 0.499 776.300, 0.499 1724.500 M 1826.500 4.611 C 1823.200 4.798, 1811.050 5.433, 1799.500 6.022 C 1689.112 11.651, 1573.801 29.372, 1464 57.582 C 1077.631 156.848, 737.171 388.252, 502.679 710.975 C 315.700 968.307, 204.020 1271.768, 179.548 1589 C 175.891 1636.407, 175.500 1649.146, 175.500 1721 C 175.500 1792.854, 175.891 1805.593, 179.548 1853 C 206.969 2208.471, 343.515 2545.097, 571.688 2819.749 L 586.018 2836.997 580.366 2848.249 C 577.257 2854.437, 570.567 2868.275, 565.499 2879 C 560.432 2889.725, 546.835 2918.300, 535.284 2942.500 C 523.733 2966.700, 510.220 2995.050, 505.255 3005.500 C 500.290 3015.950, 473.618 3071.975, 445.985 3130 C 418.352 3188.025, 389.789 3248.100, 382.512 3263.500 C 375.235 3278.900, 361.084 3308.750, 351.065 3329.834 C 341.047 3350.917, 333.074 3368.750, 333.347 3369.462 C 334.019 3371.214, 439.676 3372.232, 577.348 3371.813 L 680.196 3371.500 682.413 3367.500 C 683.632 3365.300, 692.538 3346.625, 702.204 3326 C 770.072 3181.182, 823.201 3068.399, 823.866 3067.734 C 824.297 3067.303, 832.267 3072.867, 841.575 3080.099 C 878.238 3108.583, 932.127 3146.348, 973 3172.199 C 1210.326 3322.302, 1480.115 3411.861, 1760 3433.452 C 1807.407 3437.109, 1820.146 3437.500, 1892 3437.500 C 1963.854 3437.500, 1976.593 3437.109, 2024 3433.452 C 2341.232 3408.980, 2644.693 3297.300, 2902.025 3110.321 C 2927.238 3092.002, 2955.445 3070.306, 2976.742 3052.852 C 2984.025 3046.883, 2990.365 3042, 2990.831 3042 C 2991.297 3042, 2995.852 3050.887, 3000.952 3061.750 C 3006.052 3072.613, 3013.321 3087.445, 3017.106 3094.710 C 3020.891 3101.976, 3030.911 3122.676, 3039.372 3140.710 C 3058.604 3181.699, 3104.794 3279.897, 3127.233 3327.500 C 3136.566 3347.300, 3144.854 3365.352, 3145.649 3367.615 L 3147.096 3371.730 3314.298 3372.213 C 3406.259 3372.478, 3482.040 3372.499, 3482.699 3372.260 C 3483.456 3371.986, 3466.961 3337.944, 3437.971 3279.952 C 3412.711 3229.422, 3388.140 3179.399, 3383.369 3168.790 C 3378.598 3158.180, 3372.242 3144.100, 3369.244 3137.500 C 3366.246 3130.900, 3361.873 3121.225, 3359.525 3116 C 3357.177 3110.775, 3349.741 3094.350, 3343 3079.500 C 3336.259 3064.650, 3328.839 3048.225, 3326.510 3043 C 3324.182 3037.775, 3317.682 3023.375, 3312.065 3011 C 3306.449 2998.625, 3300.024 2984.450, 3297.788 2979.500 C 3295.552 2974.550, 3291.365 2965.325, 3288.483 2959 C 3285.601 2952.675, 3279.082 2938.275, 3273.997 2927 C 3268.911 2915.725, 3258.107 2891.875, 3249.987 2874 C 3225.746 2820.636, 3222 2812.052, 3222 2809.862 C 3222 2808.712, 3224.172 2805.235, 3226.826 2802.136 C 3235.772 2791.688, 3264.144 2754.666, 3281.321 2731.025 C 3468.381 2473.580, 3580.301 2169.316, 3604.477 1852.500 C 3606.217 1829.701, 3607.976 1800.536, 3607.990 1794.250 L 3608 1790 3176 1790 C 2814.227 1790, 2744 1789.781, 2744 1788.651 C 2744 1787.910, 2741.017 1781.055, 2737.371 1773.418 C 2733.725 1765.781, 2720.165 1736.801, 2707.239 1709.017 C 2694.312 1681.232, 2678.791 1647.925, 2672.748 1635 C 2666.705 1622.075, 2658.735 1604.975, 2655.038 1597 C 2651.341 1589.025, 2615.098 1511.400, 2574.499 1424.500 C 2533.900 1337.600, 2497.660 1259.975, 2493.964 1252 C 2490.269 1244.025, 2474.203 1209.600, 2458.261 1175.500 C 2389.381 1028.158, 2315.262 869.470, 2309.500 857 C 2306.068 849.575, 2263.769 758.900, 2215.500 655.500 C 2167.231 552.100, 2119.653 450.175, 2109.770 429 C 2099.888 407.825, 2088.303 383.300, 2084.028 374.500 C 2079.752 365.700, 2073.089 351.300, 2069.221 342.500 C 2054.797 309.686, 2051 300.927, 2051 300.470 C 2051 299.019, 2069.824 300.446, 2091.113 303.512 C 2242.507 325.312, 2385.507 369.078, 2520.975 435.074 L 2530.450 439.690 2557.671 381.323 C 2572.643 349.222, 2587.138 318.354, 2589.882 312.729 C 2600.397 291.169, 2651.989 180.655, 2651.682 180.348 C 2650.872 179.538, 2604.420 157.936, 2586 149.804 C 2500.674 112.131, 2410.383 80.825, 2320 57.575 C 2298.836 52.131, 2249.798 40.627, 2241 39.042 C 2238.525 38.596, 2223.225 35.738, 2207 32.691 C 2134.808 19.135, 2073.126 11.623, 1987 5.898 C 1971.797 4.887, 1840.222 3.832, 1826.500 4.611 M 1772 294.134 C 1689.255 301.646, 1605.857 316.141, 1530.522 336.106 C 1517.860 339.461, 1504.800 342.856, 1501.500 343.649 C 1486.409 347.276, 1441.201 361.783, 1411.291 372.598 C 1323.441 404.361, 1247.576 439.650, 1169 485.303 C 1068.339 543.787, 971.990 617.718, 886.616 701.979 C 793.300 794.081, 717.897 891.344, 652.547 1003.907 C 633.777 1036.239, 608.708 1084.157, 595.997 1112 C 593.110 1118.325, 589.407 1126.425, 587.770 1130 C 567.922 1173.328, 540.043 1245.772, 526.966 1288 C 524.666 1295.425, 522.173 1303.300, 521.425 1305.500 C 514.536 1325.770, 496.797 1396.508, 489.703 1432 C 477.512 1492.997, 471.074 1535.830, 465.281 1594.500 L 462.515 1622.500 462.508 1720.500 C 462.500 1824.691, 462.280 1818.226, 467.552 1869 C 472.612 1917.729, 482.021 1975.905, 493.105 2027 C 496.158 2041.073, 505.786 2080.527, 507.991 2088 C 509.046 2091.575, 510.196 2096.075, 510.546 2098 C 511.283 2102.046, 511.501 2102.948, 512.234 2105 C 512.529 2105.825, 514.208 2111.675, 515.967 2118 C 527.638 2159.986, 551.142 2226.479, 571.288 2274.500 C 597.473 2336.919, 629.130 2399.395, 664.774 2459 C 678.396 2481.780, 720.485 2546.001, 721.790 2545.999 C 723.081 2545.997, 730.552 2531.053, 754.287 2481 C 780.779 2425.131, 936.253 2097.765, 1304.247 1323 C 1338.600 1250.675, 1376.847 1170.125, 1389.241 1144 C 1401.635 1117.875, 1435.952 1045.650, 1465.501 983.500 C 1495.050 921.350, 1538.471 830, 1561.992 780.500 C 1625.332 647.201, 1707.299 474.761, 1740.243 405.500 C 1765.105 353.228, 1790.913 298.485, 1792.690 294.250 C 1793.299 292.797, 1787.112 292.762, 1772 294.134 M 1910.674 758.126 C 1909.348 761.082, 1869.113 846.525, 1821.263 948 C 1663.061 1283.496, 1529.964 1565.998, 1478.509 1675.500 C 1450.598 1734.900, 1424.497 1790.250, 1420.507 1798.500 C 1416.518 1806.750, 1382.992 1877.850, 1346.005 1956.500 C 1309.018 2035.150, 1276.497 2104.225, 1273.737 2110 C 1270.977 2115.775, 1263.888 2130.850, 1257.985 2143.500 C 1252.081 2156.150, 1182.824 2303.300, 1104.080 2470.500 C 940.981 2816.812, 950 2797.595, 950 2798.793 C 950 2799.293, 956.617 2805.281, 964.705 2812.101 C 1045.059 2879.854, 1123.951 2933.579, 1216 2983.232 C 1276.545 3015.891, 1351.741 3049.042, 1418 3072.287 C 1451.501 3084.040, 1501.570 3099.131, 1536 3107.854 C 1610.467 3126.718, 1680.183 3139.369, 1743.500 3145.507 C 1752.300 3146.360, 1764 3147.490, 1769.500 3148.019 C 1813.068 3152.206, 1923.672 3153.524, 1977 3150.490 C 2092.869 3143.899, 2206.439 3122.841, 2320.466 3086.805 C 2329.248 3084.030, 2336.898 3081.663, 2337.466 3081.546 C 2344.324 3080.129, 2387.577 3064.714, 2411.745 3055.073 C 2443.903 3042.245, 2468.266 3031.752, 2499 3017.494 C 2506.975 3013.794, 2515.859 3009.683, 2518.742 3008.358 C 2539.028 2999.035, 2596.326 2967.785, 2629.993 2947.682 C 2705.041 2902.870, 2788.036 2841.298, 2851.707 2783.198 C 2862.911 2772.974, 2862.987 2772.875, 2861.607 2770.198 C 2860.843 2768.714, 2799.020 2637.450, 2724.224 2478.500 C 2591.564 2196.582, 2557.791 2124.841, 2550.043 2108.500 C 2547.957 2104.100, 2542.402 2092.175, 2537.700 2082 C 2532.998 2071.825, 2523.765 2052.025, 2517.182 2038 C 2510.599 2023.975, 2501.791 2005.199, 2497.607 1996.276 C 2493.423 1987.353, 2490 1979.533, 2490 1978.899 C 2490 1978.265, 2487.789 1973.415, 2485.087 1968.123 C 2477.699 1953.652, 2467.999 1933.344, 2468.007 1932.365 C 2468.011 1931.889, 2465.589 1926.550, 2462.623 1920.500 C 2459.658 1914.450, 2454.515 1903.650, 2451.194 1896.500 C 2447.872 1889.350, 2443.024 1879, 2440.420 1873.500 C 2437.816 1868, 2434.693 1861.250, 2433.481 1858.500 C 2432.268 1855.750, 2428.806 1848.325, 2425.787 1842 C 2422.768 1835.675, 2416.099 1821.500, 2410.968 1810.500 C 2405.836 1799.500, 2400.859 1789.600, 2399.909 1788.500 C 2398.959 1787.400, 2396.136 1781.932, 2393.638 1776.349 C 2389.726 1767.608, 2355.640 1694.971, 2274.985 1523.500 C 2264.379 1500.950, 2252.460 1475.525, 2248.501 1467 C 2244.541 1458.475, 2226.544 1420.225, 2208.508 1382 C 2190.472 1343.775, 2172.239 1305.075, 2167.992 1296 C 2159.372 1277.583, 2141.796 1240.237, 2123.988 1202.500 C 2109.001 1170.740, 2074.102 1096.567, 2063.998 1075 C 2055.517 1056.896, 2011.577 963.693, 1977.488 891.500 C 1965.541 866.200, 1952.939 839.425, 1949.483 832 C 1946.027 824.575, 1938.395 808.375, 1932.522 796 C 1926.650 783.625, 1920.040 769, 1917.834 763.500 C 1915.628 758, 1913.657 753.332, 1913.454 753.126 C 1913.251 752.920, 1912 755.170, 1910.674 758.126 M 2891.040 2101.250 C 2891.062 2101.938, 2893.649 2107.993, 2896.790 2114.706 C 2899.930 2121.419, 2943.187 2213.987, 2992.916 2320.412 C 3042.645 2426.837, 3083.661 2513.709, 3084.063 2513.461 C 3084.465 2513.213, 3090.195 2504.570, 3096.795 2494.255 C 3166.806 2384.848, 3221.678 2266.674, 3258.965 2145 C 3266.161 2121.516, 3272 2101.629, 3272 2100.601 C 3272 2100.270, 3186.275 2100, 3081.500 2100 C 2929.745 2100, 2891.008 2100.254, 2891.040 2101.250" stroke="none" fill="#000000" fill-rule="evenodd"/>
</svg>