<?xml version="1.0" standalone="no"?>
<!DOCTYPE svg PUBLIC "-//W3C//DTD SVG 20010904//EN"
 "http://www.w3.org/TR/2001/REC-SVG-20010904/DTD/svg10.dtd">
<svg version="1.0" xmlns="http://www.w3.org/2000/svg"
 width="300.000000pt" height="273.000000pt" viewBox="0 0 300.000000 273.000000"
 preserveAspectRatio="xMidYMid meet">
<metadata>
Created by potrace 1.10, written by Peter Selinger 2001-2011
</metadata>
<g transform="translate(0.000000,273.000000) scale(0.100000,-0.100000)"
fill="#ffffff" stroke="none">
<path d="M1345 2719 c-460 -51 -873 -347 -1075 -772 -96 -201 -135 -394 -127
-627 11 -314 90 -523 311 -826 7 -9 -19 -74 -87 -216 -54 -112 -97 -206 -97
-210 0 -5 61 -8 135 -8 l134 0 58 120 58 120 79 -55 c142 -98 315 -172 498
-212 63 -13 127 -18 268 -18 238 0 377 29 582 123 70 32 248 143 268 168 7 7
15 14 19 14 3 0 33 -58 66 -130 l60 -130 133 0 c72 0 132 2 132 5 0 3 -19 42
-41 88 -50 98 -159 337 -159 347 0 4 30 51 67 106 134 200 198 380 228 646 l6
58 -342 2 -343 3 -272 580 c-150 319 -273 583 -273 588 -3 22 192 -22 307 -71
l70 -29 46 100 c25 56 43 104 39 108 -16 16 -196 80 -276 99 -159 37 -312 46
-472 29z m73 -228 c-16 -45 -843 -1771 -848 -1771 -11 0 -90 145 -121 221 -53
131 -72 222 -77 382 -5 165 6 256 45 382 79 251 244 468 466 613 126 81 273
139 429 167 90 16 111 17 106 6z m296 -775 c103 -219 185 -400 183 -402 -2 -2
-176 -3 -385 -2 l-382 3 193 407 c105 224 194 404 198 400 3 -4 90 -186 193
-406z m429 -912 c70 -147 124 -270 122 -275 -3 -4 -42 -35 -86 -69 -218 -164
-515 -247 -782 -220 -208 21 -413 99 -569 215 l-76 57 62 131 c34 73 93 198
131 280 l69 147 501 0 502 0 126 -266z m447 249 c0 -27 -60 -169 -105 -248
l-39 -70 -25 55 c-13 30 -48 106 -77 168 l-53 112 149 0 c136 0 150 -2 150
-17z"/>
</g>
</svg>
