 <svg  version="1.0" xmlns="http://www.w3.org/2000/svg"  width="300.000000pt" height="273.000000pt" viewBox="0 0 300.000000 273.000000"  preserveAspectRatio="xMidYMid meet">  <g transform="translate(0.000000,273.000000) scale(0.100000,-0.100000)" fill="#ffffff" stroke="none"> <path d="M1235 2700 c-443 -89 -806 -384 -987 -801 -155 -359 -142 -779 33 -1134 42 -84 78 -140 174 -271 6 -9 -21 -76 -92 -224 l-102 -211 140 3 140 3 54 113 c29 62 55 116 58 118 3 3 26 -11 52 -30 154 -118 377 -209 587 -240 353 -53 716 33 996 234 46 33 84 60 86 60 1 0 29 -58 62 -130 l59 -130 133 0 c74 0 132 3 130 8 -2 4 -22 45 -45 92 -23 47 -68 144 -100 215 l-59 130 58 80 c70 97 137 228 178 350 30 87 70 287 70 346 l0 29 -342 0 -343 1 -273 586 c-150 322 -271 589 -270 593 5 13 204 -37 292 -73 l85 -34 43 95 c24 52 44 98 46 103 8 19 -199 93 -340 120 -133 26 -394 25 -523 -1z m405 -20 c196 -32 400 -92 400 -118 0 -17 -32 -86 -46 -103 -13 -15 -23 -13 -112 17 -53 18 -129 39 -169 46 -67 11 -74 11 -93 -7 -16 -15 -21 -28 -17 -50 6 -34 469 -1030 576 -1237 39 -76 71 -143 71 -150 0 -11 57 -140 130 -291 12 -27 34 -55 47 -64 22 -15 25 -14 49 8 34 31 87 127 119 214 14 39 33 76 42 82 17 13 99 18 126 7 12 -4 13 -12 5 -42 -24 -90 -105 -259 -174 -364 -59 -89 -74 -119 -70 -140 3 -14 41 -104 85 -199 44 -95 77 -177 75 -181 -9 -15 -151 -9 -163 6 -6 8 -32 56 -57 107 -50 104 -69 129 -94 129 -9 0 -61 -30 -116 -66 -468 -310 -1030 -314 -1494 -10 -46 31 -92 56 -101 56 -24 0 -53 -38 -99 -130 -23 -47 -48 -88 -54 -92 -6 -4 -46 -8 -88 -8 -60 0 -78 3 -78 14 0 13 20 59 112 256 55 117 56 106 -15 211 -124 183 -190 329 -230 508 -29 131 -31 414 -3 541 110 506 486 897 978 1015 100 24 257 52 308 54 14 0 81 -8 150 -19z m788 -1395 c111 0 202 -2 202 -5 0 -3 39 -4 87 -2 69 3 89 0 98 -12 12 -16 11 -81 -2 -100 -8 -11 -9 -47 -2 -76 3 -12 -15 -16 -104 -20 l-108 -5 -32 -85 c-29 -76 -97 -212 -116 -233 -4 -4 -37 57 -73 135 -37 79 -96 205 -132 282 -59 123 -64 137 -44 130 13 -5 114 -9 226 -9z"/> <path d="M1296 2524 c-370 -67 -689 -309 -852 -649 -82 -169 -105 -266 -111 -465 -4 -129 -2 -184 11 -253 40 -208 164 -467 226 -467 9 0 26 10 37 22 21 23 816 1683 836 1747 10 31 9 35 -16 57 -32 27 -26 27 -131 8z m121 -36 c-3 -7 -188 -398 -412 -868 -224 -470 -413 -868 -420 -884 l-12 -28 -37 60 c-56 93 -103 201 -132 304 -32 114 -44 352 -24 476 75 474 447 849 926 936 102 18 117 19 111 4z"/> <path d="M1491 2143 c-23 -20 -56 -86 -255 -510 -76 -161 -140 -310 -143 -332 -3 -22 -9 -38 -14 -35 -5 3 -9 -3 -9 -14 0 -22 -36 -100 -58 -124 -8 -10 -12 -18 -9 -18 3 0 -4 -10 -15 -23 -22 -24 -253 -507 -264 -551 -9 -36 22 -74 108 -133 207 -143 409 -206 663 -206 160 -1 243 12 383 59 194 65 422 220 422 286 0 28 -236 530 -262 558 -10 11 -16 20 -13 20 3 0 -3 10 -15 22 -11 12 -20 30 -20 40 0 10 -4 18 -10 18 -5 0 -10 11 -10 25 0 14 -4 25 -8 25 -5 0 -14 22 -20 48 -14 61 -365 808 -394 839 -26 28 -30 28 -57 6z m97 -158 c33 -71 141 -302 241 -513 100 -210 181 -385 181 -388 0 -2 -9 0 -19 6 -27 14 -925 14 -952 0 -24 -14 -24 -13 83 210 46 96 153 322 238 502 85 180 157 324 161 320 3 -4 33 -65 67 -137z m557 -1184 c68 -145 122 -268 119 -273 -14 -22 -166 -127 -241 -166 -95 -49 -228 -94 -333 -113 -96 -16 -284 -16 -380 0 -169 30 -352 108 -491 212 l-68 50 55 117 c31 64 90 190 132 280 l76 162 503 -2 503 -3 125 -264z"/> <path d="M1143 1298 c3 -10 86 -13 372 -13 286 0 369 3 373 13 3 9 -76 12 -373 12 -297 0 -376 -3 -372 -12z"/> <path d="M2324 1092 c-13 -7 -24 -15 -24 -17 0 -3 66 -5 147 -5 118 0 145 3 135 13 -19 18 -226 26 -258 9z"/> </g> </svg> 