<svg xmlns="http://www.w3.org/2000/svg" width="3783" height="3448" viewBox="0 0 3783 3448" version="1.1">
	<path d="M 1826.500 4.611 C 1823.200 4.798, 1811.050 5.433, 1799.500 6.022 C 1689.112 11.651, 1573.801 29.372, 1464 57.582 C 1077.631 156.848, 737.171 388.252, 502.679 710.975 C 315.700 968.307, 204.020 1271.768, 179.548 1589 C 175.891 1636.407, 175.500 1649.146, 175.500 1721 C 175.500 1792.854, 175.891 1805.593, 179.548 1853 C 206.964 2208.401, 343.520 2545.100, 571.583 2819.621 L 585.806 2836.742 583.402 2840.975 C 582.080 2843.302, 578.451 2850.673, 575.337 2857.353 C 563.958 2881.770, 464.107 3091.878, 444.578 3132.500 C 440.612 3140.750, 424.347 3174.936, 408.433 3208.469 C 392.520 3242.002, 368.883 3291.727, 355.906 3318.969 C 334.438 3364.037, 332.447 3368.658, 333.811 3370.250 C 335.228 3371.904, 344.771 3372, 508.007 3372 L 680.705 3372 752.040 3219.943 C 791.274 3136.312, 823.686 3067.694, 824.066 3067.459 C 824.446 3067.224, 832.349 3072.931, 841.628 3080.140 C 878.237 3108.583, 932.151 3146.363, 973 3172.199 C 1210.326 3322.302, 1480.115 3411.861, 1760 3433.452 C 1807.407 3437.109, 1820.146 3437.500, 1892 3437.500 C 1963.854 3437.500, 1976.593 3437.109, 2024 3433.452 C 2341.232 3408.980, 2644.693 3297.300, 2902.025 3110.321 C 2927.238 3092.002, 2955.445 3070.306, 2976.742 3052.852 C 2984.025 3046.883, 2990.382 3042, 2990.870 3042 C 2991.358 3042, 2992.341 3043.463, 2993.054 3045.250 C 2993.767 3047.037, 3001.288 3062.675, 3009.768 3080 C 3031.517 3124.438, 3144.199 3363.887, 3146.278 3370.084 C 3146.758 3371.513, 3158.204 3371.734, 3262.571 3372.334 C 3421.364 3373.247, 3484 3373.179, 3484 3372.093 C 3484 3371.594, 3463.586 3330.306, 3438.635 3280.343 C 3413.684 3230.379, 3389.887 3182.075, 3385.752 3173 C 3381.618 3163.925, 3374.074 3147.275, 3368.990 3136 C 3363.905 3124.725, 3357.602 3110.775, 3354.984 3105 C 3352.365 3099.225, 3342.698 3077.850, 3333.502 3057.500 C 3324.306 3037.150, 3313.518 3013.300, 3309.529 3004.500 C 3295.493 2973.532, 3283.999 2948.124, 3267.002 2910.500 C 3257.561 2889.600, 3247.901 2868.450, 3245.536 2863.500 C 3238.674 2849.142, 3222 2811.008, 3222 2809.673 C 3222 2808.268, 3227.608 2801.124, 3230.227 2799.193 C 3231.202 2798.475, 3232 2797.444, 3232 2796.903 C 3232 2796.362, 3239.260 2786.600, 3248.132 2775.210 C 3454.203 2510.667, 3578.890 2187.805, 3604.477 1852.500 C 3606.217 1829.701, 3607.976 1800.536, 3607.990 1794.250 L 3608 1790 3176 1790 C 2817.126 1790, 2744 1789.775, 2744 1788.669 C 2744 1787.938, 2735.840 1769.825, 2725.867 1748.419 C 2697.904 1688.400, 2479.523 1220.501, 2454.504 1167 C 2429.261 1113.019, 2330.971 902.462, 2253.778 737 C 2144.970 503.774, 2088.983 383.999, 2082.228 370 C 2071.663 348.102, 2052 303.378, 2052 301.243 C 2052 297.236, 2103.156 304.042, 2170.201 316.971 C 2285.702 339.243, 2412.203 381.845, 2521 435.109 C 2526.225 437.667, 2530.572 439.702, 2530.659 439.630 C 2530.747 439.559, 2543.639 412.050, 2559.310 378.500 C 2574.980 344.950, 2589.579 313.900, 2591.752 309.500 C 2601.859 289.038, 2652.205 180.872, 2651.807 180.474 C 2650.895 179.562, 2605.843 158.565, 2586 149.804 C 2500.674 112.131, 2410.383 80.825, 2320 57.575 C 2298.836 52.131, 2249.798 40.627, 2241 39.042 C 2238.525 38.596, 2223.225 35.738, 2207 32.691 C 2134.808 19.135, 2073.126 11.623, 1987 5.898 C 1971.797 4.887, 1840.222 3.832, 1826.500 4.611 M 1772 294.115 C 1687.276 301.978, 1605.920 316.125, 1530.522 336.106 C 1517.860 339.461, 1504.800 342.856, 1501.500 343.649 C 1486.409 347.276, 1441.201 361.783, 1411.291 372.598 C 1323.441 404.361, 1247.576 439.650, 1169 485.303 C 1068.339 543.787, 971.990 617.718, 886.616 701.979 C 793.300 794.081, 717.897 891.344, 652.547 1003.907 C 633.777 1036.239, 608.708 1084.157, 595.997 1112 C 593.110 1118.325, 589.407 1126.425, 587.770 1130 C 567.922 1173.328, 540.043 1245.772, 526.966 1288 C 524.666 1295.425, 522.173 1303.300, 521.425 1305.500 C 514.536 1325.770, 496.797 1396.508, 489.703 1432 C 477.512 1492.997, 471.074 1535.830, 465.281 1594.500 L 462.515 1622.500 462.508 1720.500 C 462.500 1824.691, 462.280 1818.226, 467.552 1869 C 472.612 1917.729, 482.021 1975.905, 493.105 2027 C 496.158 2041.073, 505.786 2080.527, 507.991 2088 C 509.046 2091.575, 510.196 2096.075, 510.546 2098 C 511.283 2102.046, 511.501 2102.948, 512.234 2105 C 512.529 2105.825, 514.208 2111.675, 515.967 2118 C 525.636 2152.784, 542.495 2201.834, 561.335 2250 C 575.538 2286.307, 594.207 2327.685, 613.900 2366.500 C 642.551 2422.973, 665.351 2462.116, 699.761 2513.910 C 719.600 2543.771, 721.403 2546.169, 722.692 2544.410 C 725.700 2540.305, 737.865 2515.152, 792.778 2399.500 C 891.862 2190.822, 997.479 1968.442, 1120.248 1710 C 1251.547 1433.602, 1346.283 1234.117, 1395.216 1131 C 1412.834 1093.875, 1445.019 1026.150, 1466.738 980.500 C 1515.941 877.084, 1528.898 849.821, 1605.275 689 C 1639.101 617.775, 1682.180 527.100, 1701.005 487.500 C 1758.908 365.699, 1780.228 320.634, 1780.462 319.545 C 1781.379 315.290, 1782.344 313.095, 1783.095 313.559 C 1783.580 313.859, 1783.737 313.478, 1783.443 312.712 C 1783.149 311.947, 1783.578 310.765, 1784.395 310.087 C 1785.212 309.409, 1785.648 308.246, 1785.363 307.504 C 1785.078 306.762, 1785.743 305.257, 1786.839 304.161 C 1787.936 303.064, 1788.571 301.904, 1788.250 301.583 C 1787.929 301.262, 1788.218 301, 1788.892 301 C 1789.566 301, 1789.876 300.608, 1789.580 300.129 C 1789.284 299.650, 1789.935 298.228, 1791.027 296.969 C 1792.119 295.710, 1792.897 294.583, 1792.756 294.465 C 1791.709 293.589, 1779.830 293.388, 1772 294.115 M 1828.516 933.230 C 1781.807 1032.379, 1740.476 1120.025, 1736.668 1128 C 1729.286 1143.462, 1572.657 1475.763, 1533.281 1559.500 C 1520.350 1587, 1492.095 1647.075, 1470.491 1693 C 1448.888 1738.925, 1429.843 1779.537, 1428.169 1783.250 L 1425.125 1790 1913.313 1789.985 C 2181.816 1789.976, 2401 1789.639, 2400.390 1789.235 C 2399.006 1788.319, 2397.302 1785.004, 2390.615 1770.214 C 2387.702 1763.771, 2365.516 1716.425, 2341.313 1665 C 2317.109 1613.575, 2290.865 1557.775, 2282.992 1541 C 2243.148 1456.107, 2210.950 1387.679, 2107.013 1167 C 2044.713 1034.725, 1977.094 891.175, 1956.749 848 C 1936.404 804.825, 1918.337 765.779, 1916.600 761.230 L 1913.442 752.960 1828.516 933.230 M 1276.135 2105.750 C 1274.544 2108.912, 1268.187 2122.300, 1262.009 2135.500 C 1255.832 2148.700, 1183.102 2303.143, 1100.389 2478.707 C 1017.675 2654.270, 950 2798.316, 950 2798.807 C 950 2799.299, 956.617 2805.281, 964.705 2812.101 C 1045.059 2879.854, 1123.951 2933.579, 1216 2983.232 C 1276.545 3015.891, 1351.741 3049.042, 1418 3072.287 C 1451.501 3084.040, 1501.570 3099.131, 1536 3107.854 C 1610.467 3126.718, 1680.183 3139.369, 1743.500 3145.507 C 1752.300 3146.360, 1764 3147.490, 1769.500 3148.019 C 1813.068 3152.206, 1923.672 3153.524, 1977 3150.490 C 2092.869 3143.899, 2206.439 3122.841, 2320.466 3086.805 C 2329.248 3084.030, 2336.898 3081.663, 2337.466 3081.546 C 2344.324 3080.129, 2387.577 3064.714, 2411.745 3055.073 C 2443.903 3042.245, 2468.266 3031.752, 2499 3017.494 C 2506.975 3013.794, 2515.859 3009.683, 2518.742 3008.358 C 2521.625 3007.033, 2534.344 3000.561, 2547.006 2993.975 C 2637.896 2946.705, 2717.717 2894.545, 2793.500 2832.900 C 2826.929 2805.707, 2862 2774.942, 2862 2772.809 C 2862 2771.657, 2567.896 2146.349, 2547.553 2104.251 L 2545.500 2100.002 1912.264 2100.001 L 1279.029 2100 1276.135 2105.750 M 2891 2100.411 C 2891 2101.355, 2898.166 2117.401, 2903.990 2129.500 C 2907.433 2136.650, 2941.967 2210.450, 2980.734 2293.500 C 3019.500 2376.550, 3057.736 2458.450, 3065.701 2475.500 C 3073.666 2492.550, 3080.864 2508.185, 3081.697 2510.244 C 3082.530 2512.302, 3083.568 2513.767, 3084.003 2513.498 C 3084.438 2513.229, 3090.195 2504.570, 3096.795 2494.255 C 3166.806 2384.848, 3221.678 2266.674, 3258.965 2145 C 3266.161 2121.516, 3272 2101.629, 3272 2100.601 C 3272 2100.270, 3186.275 2100, 3081.500 2100 C 2976.725 2100, 2891 2100.185, 2891 2100.411" stroke="none" fill="#000000" fill-rule="evenodd"/>
</svg>