<svg xmlns="http://www.w3.org/2000/svg" width="1280" height="1166" viewBox="0 0 1280 1166" version="1.1">
	<path d="M 606.500 2.113 C 534.092 6.362, 461.411 24.647, 395.500 55.197 C 260.289 117.866, 153.878 230.857, 99.502 369.500 C 78.490 423.074, 66.308 475.548, 60.849 536 C 59.205 554.208, 59.182 610.916, 60.812 628.500 C 66.462 689.472, 78.271 740.823, 98.526 792.500 C 122.751 854.305, 148.910 898.547, 195.689 956.833 L 198.364 960.166 194.138 968.685 C 183.755 989.621, 113 1138.936, 113 1139.911 C 113 1140.684, 130.009 1141, 171.553 1141 L 230.106 1141 234.937 1130.750 C 246.482 1106.258, 258.375 1080.946, 268.069 1060.237 C 273.800 1047.992, 278.942 1038.151, 279.495 1038.367 C 280.048 1038.584, 286.227 1043.073, 293.227 1048.342 C 360.520 1099.006, 444.568 1136.327, 527.547 1152.392 C 565.942 1159.826, 599.616 1163, 640.076 1163 C 671.509 1163, 689.425 1161.847, 718.500 1157.952 C 822.596 1144.007, 923.713 1100.479, 1004.806 1034.705 C 1008.825 1031.446, 1012.233 1028.942, 1012.380 1029.140 C 1012.961 1029.922, 1030.278 1066.437, 1047.172 1102.500 L 1064.973 1140.500 1121.487 1140.758 C 1154.112 1140.907, 1178 1140.640, 1178 1140.125 C 1178 1139.634, 1170.973 1125.118, 1162.384 1107.867 C 1153.795 1090.615, 1143.400 1069.075, 1139.285 1060 C 1090.132 951.601, 1089.825 950.892, 1091.182 949.008 C 1091.907 948.003, 1097.271 940.952, 1103.103 933.340 C 1167.788 848.909, 1208.643 744.092, 1218.414 637.500 C 1219.220 628.700, 1220.126 618.013, 1220.427 613.750 L 1220.974 606 1074.737 605.974 L 928.500 605.949 924.586 597.224 C 920.783 588.745, 909.786 565.156, 806.775 344.500 C 779.814 286.750, 756.512 236.800, 754.991 233.500 C 753.470 230.200, 742.201 206.125, 729.948 180 C 701.827 120.042, 694.041 102.743, 694.695 101.684 C 695.842 99.829, 735.394 106.708, 759.580 112.970 C 790.587 120.998, 813.530 129.097, 843.439 142.570 C 850.387 145.701, 856.237 148.090, 856.439 147.881 C 856.641 147.671, 859.818 140.975, 863.499 133 C 867.181 125.025, 873.930 110.625, 878.497 101 C 891.447 73.711, 897 61.812, 897 61.350 C 897 60.606, 873.965 50.021, 861 44.807 C 777.216 11.114, 693.224 -2.976, 606.500 2.113 M 595.500 99.686 C 593.850 99.899, 587.100 100.737, 580.500 101.548 C 474.371 114.595, 375.642 162.604, 299.905 237.995 C 278.514 259.287, 268.467 270.642, 253.449 290.500 C 229.608 322.023, 210.269 355.447, 194.545 392.304 C 174.091 440.247, 161.690 490.367, 157.010 544 C 155.505 561.255, 155.776 606.011, 157.499 624.500 C 164.278 697.270, 184.775 762.205, 220.789 825 C 229.139 839.560, 243.384 861.013, 244.470 860.665 C 245.003 860.493, 248.928 852.961, 253.192 843.927 C 257.455 834.892, 263.409 822.325, 266.423 816 C 281.368 784.634, 287.898 770.892, 308.475 727.500 C 320.733 701.650, 341.786 657.325, 355.258 629 C 368.730 600.675, 398.984 537, 422.489 487.500 C 445.994 438, 473.777 379.500, 484.230 357.500 C 494.682 335.500, 507.456 308.613, 512.617 297.750 C 531.596 257.801, 541.401 237.204, 547.246 225 C 550.539 218.125, 554.704 209.350, 556.502 205.500 C 558.299 201.650, 562.347 193.100, 565.496 186.500 C 595.953 122.666, 606 101.185, 606 99.900 C 606 99.016, 601.424 98.923, 595.500 99.686 M 642.424 264.614 C 639.874 270.051, 636.546 277.200, 635.030 280.500 C 633.513 283.800, 606.167 341.850, 574.260 409.500 C 502.211 562.264, 495.183 577.200, 482.501 604.500 C 476.880 616.600, 470.468 630.325, 468.252 635 C 466.035 639.675, 462.649 646.875, 460.726 651 C 458.804 655.125, 454.882 663.450, 452.011 669.500 C 449.140 675.550, 445.651 682.975, 444.258 686 C 442.865 689.025, 438.812 697.575, 435.250 705 C 431.689 712.425, 408.740 761.025, 384.252 813 C 359.765 864.975, 335.579 916.275, 330.507 927 C 323.377 942.074, 321.535 946.818, 322.391 947.903 C 323.851 949.752, 341.373 963.922, 351.318 971.295 C 415.426 1018.829, 492.729 1050.720, 571.233 1062.019 C 608.518 1067.385, 672.523 1067.588, 706 1062.445 C 763.800 1053.566, 811.316 1038.603, 860 1013.947 C 877.599 1005.034, 899.052 992.206, 916.037 980.439 C 937.705 965.428, 968 940.519, 968 937.716 C 968 936.848, 883.324 756.242, 861.940 711.500 C 856.091 699.262, 850.858 688.164, 843.785 673 C 841.604 668.325, 838.305 661.293, 836.455 657.373 C 834.604 653.453, 831.765 647.378, 830.146 643.873 C 828.527 640.368, 824.413 631.650, 821.003 624.500 C 817.592 617.350, 814.448 610.600, 814.016 609.500 C 813.584 608.400, 805.805 591.750, 796.729 572.500 C 787.653 553.250, 775.061 526.475, 768.747 513 C 752.850 479.075, 705.021 377.486, 679.763 324 C 668.205 299.525, 656.280 274.100, 653.262 267.500 C 650.244 260.900, 647.614 255.326, 647.418 255.114 C 647.222 254.901, 644.974 259.176, 642.424 264.614 M 978 710.623 C 978 710.966, 983.015 721.878, 989.144 734.873 C 995.273 747.868, 1001.518 761.200, 1003.023 764.500 C 1004.527 767.800, 1007.550 774.325, 1009.742 779 C 1011.934 783.675, 1020.133 801.225, 1027.963 818 C 1035.793 834.775, 1042.571 848.894, 1043.025 849.376 C 1044.646 851.094, 1064.015 818.285, 1076.012 793.500 C 1087.812 769.123, 1102.282 730.881, 1106.567 712.750 L 1107.217 710 1042.608 710 C 1007.074 710, 978 710.280, 978 710.623" stroke="none" fill="#f7f3f3" fill-rule="evenodd"/>
</svg>