<svg xmlns="http://www.w3.org/2000/svg" width="3783" height="3448" viewBox="0 0 3783 3448" version="1.1">
	<path d="M 1826.500 4.611 C 1823.200 4.798, 1811.050 5.433, 1799.500 6.022 C 1689.112 11.651, 1573.801 29.372, 1464 57.582 C 1077.631 156.848, 737.171 388.252, 502.679 710.975 C 315.700 968.307, 204.020 1271.768, 179.548 1589 C 175.891 1636.407, 175.500 1649.146, 175.500 1721 C 175.500 1792.854, 175.891 1805.593, 179.548 1853 C 206.967 2208.440, 343.517 2545.098, 571.642 2819.693 L 585.925 2836.886 576.065 2857.193 C 564.909 2880.167, 539.230 2933.962, 500.737 3015 C 492.768 3031.775, 466.109 3087.800, 441.493 3139.500 C 400.777 3225.015, 388.701 3250.437, 346.319 3339.867 C 338.925 3355.468, 333.110 3368.845, 333.397 3369.593 C 334.028 3371.235, 349.920 3371.399, 544.721 3371.774 L 679.942 3372.035 682.179 3367.767 C 685.003 3362.381, 707.282 3315.139, 771.901 3177.513 C 800.046 3117.570, 823.429 3068.171, 823.862 3067.738 C 824.296 3067.304, 832.267 3072.867, 841.575 3080.099 C 878.238 3108.583, 932.127 3146.348, 973 3172.199 C 1210.326 3322.302, 1480.115 3411.861, 1760 3433.452 C 1807.407 3437.109, 1820.146 3437.500, 1892 3437.500 C 1963.854 3437.500, 1976.593 3437.109, 2024 3433.452 C 2341.232 3408.980, 2644.693 3297.300, 2902.025 3110.321 C 2927.238 3092.002, 2955.445 3070.306, 2976.742 3052.852 C 2984.025 3046.883, 2990.360 3042, 2990.821 3042 C 2991.281 3042, 2996.062 3051.338, 3001.444 3062.750 C 3006.826 3074.162, 3014.109 3089, 3017.627 3095.721 C 3021.146 3102.443, 3030.939 3122.693, 3039.391 3140.721 C 3057.840 3180.075, 3100.530 3270.902, 3106.499 3283.500 C 3128.378 3329.679, 3144.451 3364.216, 3145.650 3367.623 L 3147.102 3371.746 3314.301 3372.207 C 3406.260 3372.460, 3482.040 3372.478, 3482.699 3372.246 C 3483.452 3371.982, 3466.848 3337.714, 3438.082 3280.163 C 3412.884 3229.748, 3389.224 3181.750, 3385.504 3173.500 C 3381.785 3165.250, 3376.515 3153.550, 3373.793 3147.500 C 3371.070 3141.450, 3366.887 3132.225, 3364.497 3127 C 3362.107 3121.775, 3354.457 3104.900, 3347.498 3089.500 C 3340.539 3074.100, 3333.115 3057.675, 3331 3053 C 3328.885 3048.325, 3321.461 3031.900, 3314.502 3016.500 C 3307.543 3001.100, 3299.893 2984.225, 3297.503 2979 C 3295.113 2973.775, 3290.931 2964.550, 3288.210 2958.500 C 3281.816 2944.284, 3263.022 2902.766, 3247.469 2868.500 C 3225.924 2821.031, 3222 2811.997, 3222 2809.862 C 3222 2808.712, 3224.172 2805.235, 3226.826 2802.136 C 3235.772 2791.688, 3264.144 2754.666, 3281.321 2731.025 C 3468.381 2473.580, 3580.301 2169.316, 3604.477 1852.500 C 3606.217 1829.701, 3607.976 1800.536, 3607.990 1794.250 L 3608 1790 3176 1790 C 2822.960 1790, 2744 1789.763, 2744 1788.704 C 2744 1787.992, 2739.549 1777.979, 2734.108 1766.454 C 2728.667 1754.929, 2708.810 1712.425, 2689.981 1672 C 2671.152 1631.575, 2652.378 1591.300, 2648.262 1582.500 C 2639.665 1564.123, 2597.007 1472.818, 2580.751 1438 C 2574.717 1425.075, 2566.964 1408.425, 2563.523 1401 C 2560.081 1393.575, 2544.319 1359.825, 2528.496 1326 C 2512.673 1292.175, 2496.921 1258.425, 2493.493 1251 C 2490.065 1243.575, 2474.100 1209.375, 2458.017 1175 C 2422.307 1098.679, 2342.958 928.784, 2319.770 879 C 2310.420 858.925, 2274.399 781.750, 2239.724 707.500 C 2205.048 633.250, 2173.659 565.975, 2169.969 558 C 2150.233 515.343, 2090.730 388.295, 2084.028 374.500 C 2079.752 365.700, 2073.089 351.300, 2069.221 342.500 C 2054.797 309.686, 2051 300.927, 2051 300.470 C 2051 299.019, 2069.824 300.446, 2091.113 303.512 C 2242.507 325.312, 2385.507 369.078, 2520.975 435.074 L 2530.450 439.690 2557.671 381.323 C 2572.643 349.222, 2587.138 318.354, 2589.881 312.729 C 2600.172 291.623, 2651.972 180.639, 2651.672 180.338 C 2650.870 179.536, 2604.306 157.886, 2586 149.804 C 2500.674 112.131, 2410.383 80.825, 2320 57.575 C 2298.836 52.131, 2249.798 40.627, 2241 39.042 C 2238.525 38.596, 2223.225 35.738, 2207 32.691 C 2134.808 19.135, 2073.126 11.623, 1987 5.898 C 1971.797 4.887, 1840.222 3.832, 1826.500 4.611 M 1772 294.134 C 1689.255 301.646, 1605.857 316.141, 1530.522 336.106 C 1517.860 339.461, 1504.800 342.856, 1501.500 343.649 C 1486.409 347.276, 1441.201 361.783, 1411.291 372.598 C 1323.441 404.361, 1247.576 439.650, 1169 485.303 C 1068.339 543.787, 971.990 617.718, 886.616 701.979 C 793.300 794.081, 717.897 891.344, 652.547 1003.907 C 633.777 1036.239, 608.708 1084.157, 595.997 1112 C 593.110 1118.325, 589.407 1126.425, 587.770 1130 C 567.922 1173.328, 540.043 1245.772, 526.966 1288 C 524.666 1295.425, 522.173 1303.300, 521.425 1305.500 C 514.536 1325.770, 496.797 1396.508, 489.703 1432 C 477.512 1492.997, 471.074 1535.830, 465.281 1594.500 L 462.515 1622.500 462.508 1720.500 C 462.500 1824.691, 462.280 1818.226, 467.552 1869 C 472.612 1917.729, 482.021 1975.905, 493.105 2027 C 496.158 2041.073, 505.786 2080.527, 507.991 2088 C 509.046 2091.575, 510.196 2096.075, 510.546 2098 C 511.283 2102.046, 511.501 2102.948, 512.234 2105 C 512.529 2105.825, 514.208 2111.675, 515.967 2118 C 527.638 2159.986, 551.142 2226.479, 571.288 2274.500 C 597.473 2336.919, 629.130 2399.395, 664.774 2459 C 678.396 2481.780, 720.485 2546.001, 721.790 2545.999 C 723.258 2545.997, 732.624 2526.679, 802.023 2380.500 C 863.746 2250.491, 1104.734 1743.061, 1304.249 1323 C 1338.601 1250.675, 1376.848 1170.125, 1389.241 1144 C 1401.635 1117.875, 1435.951 1045.650, 1465.500 983.500 C 1495.048 921.350, 1558.045 788.825, 1605.493 689 C 1652.940 589.175, 1709.199 470.825, 1730.513 426 C 1763.457 356.715, 1790.716 298.954, 1792.690 294.250 C 1793.299 292.797, 1787.112 292.762, 1772 294.134 M 1910.203 759.142 C 1908.600 762.639, 1868.460 847.850, 1821.004 948.500 C 1773.547 1049.150, 1708.197 1187.750, 1675.782 1256.500 C 1643.366 1325.250, 1574.339 1471.950, 1522.388 1582.500 C 1470.438 1693.050, 1426.648 1785.975, 1425.076 1789 C 1422.461 1794.035, 1411.088 1818.088, 1352.496 1942.500 C 1341.358 1966.150, 1321.103 2009.125, 1307.485 2038 C 1280.337 2095.563, 1278.926 2098.611, 1278.912 2099.733 C 1278.907 2100.155, 1278.298 2101.423, 1277.559 2102.551 C 1276.820 2103.679, 1271.379 2114.929, 1265.468 2127.551 C 1259.557 2140.173, 1214.337 2236.225, 1164.980 2341 C 1071.942 2538.498, 964.946 2765.838, 955.453 2786.193 C 952.454 2792.624, 950 2798.294, 950 2798.793 C 950 2799.293, 956.617 2805.281, 964.705 2812.101 C 1045.059 2879.854, 1123.951 2933.579, 1216 2983.232 C 1276.545 3015.891, 1351.741 3049.042, 1418 3072.287 C 1451.501 3084.040, 1501.570 3099.131, 1536 3107.854 C 1610.467 3126.718, 1680.183 3139.369, 1743.500 3145.507 C 1752.300 3146.360, 1764 3147.490, 1769.500 3148.019 C 1813.068 3152.206, 1923.672 3153.524, 1977 3150.490 C 2092.869 3143.899, 2206.439 3122.841, 2320.466 3086.805 C 2329.248 3084.030, 2336.898 3081.663, 2337.466 3081.546 C 2344.324 3080.129, 2387.577 3064.714, 2411.745 3055.073 C 2443.903 3042.245, 2468.266 3031.752, 2499 3017.494 C 2506.975 3013.794, 2515.859 3009.683, 2518.742 3008.358 C 2539.028 2999.035, 2596.326 2967.785, 2629.993 2947.682 C 2705.041 2902.870, 2788.036 2841.298, 2851.707 2783.198 C 2862.912 2772.973, 2862.987 2772.875, 2861.606 2770.198 C 2860.440 2767.936, 2811.022 2662.962, 2571.339 2153.615 C 2562.310 2134.428, 2552.970 2114.628, 2550.584 2109.615 C 2548.197 2104.602, 2544.645 2096.900, 2542.690 2092.500 C 2536.934 2079.548, 2532.821 2070.695, 2522.625 2049.317 C 2517.331 2038.216, 2513 2028.812, 2513 2028.419 C 2513 2027.731, 2507.515 2016.251, 2498.285 1997.621 C 2495.865 1992.738, 2492.783 1985.812, 2491.434 1982.229 C 2490.086 1978.647, 2487.228 1972.292, 2485.083 1968.108 C 2482.938 1963.924, 2478.170 1953.975, 2474.488 1946 C 2470.806 1938.025, 2465.628 1927, 2462.981 1921.500 C 2460.335 1916, 2454.116 1902.725, 2449.161 1892 C 2428.106 1846.425, 2401.127 1789.796, 2399.715 1788.212 C 2398.875 1787.270, 2396.074 1781.775, 2393.489 1776 C 2389.255 1766.540, 2362.609 1709.679, 2329.523 1639.500 C 2322.782 1625.200, 2312.304 1602.925, 2306.239 1590 C 2251.375 1473.080, 2232.865 1433.707, 2179.894 1321.250 C 2173.352 1307.362, 2162.549 1284.412, 2155.887 1270.250 C 2149.225 1256.088, 2138.475 1233.250, 2131.999 1219.500 C 2125.522 1205.750, 2109.307 1171.325, 2095.965 1143 C 2082.623 1114.675, 2068.672 1084.975, 2064.963 1077 C 2061.254 1069.025, 2055.644 1057.100, 2052.497 1050.500 C 2049.349 1043.900, 2041.920 1028.150, 2035.987 1015.500 C 2030.054 1002.850, 2019.357 980.125, 2012.216 965 C 2005.076 949.875, 1982.027 901.050, 1960.997 856.500 C 1939.967 811.950, 1920.746 770.550, 1918.284 764.500 C 1915.821 758.450, 1913.651 753.339, 1913.462 753.142 C 1913.273 752.945, 1911.806 755.645, 1910.203 759.142 M 2891.040 2101.250 C 2891.062 2101.938, 2893.649 2107.997, 2896.790 2114.716 C 2899.930 2121.435, 2943.185 2214.004, 2992.912 2320.425 C 3042.638 2426.846, 3083.654 2513.714, 3084.059 2513.464 C 3084.463 2513.214, 3090.195 2504.570, 3096.795 2494.255 C 3166.806 2384.848, 3221.678 2266.674, 3258.965 2145 C 3266.161 2121.516, 3272 2101.629, 3272 2100.601 C 3272 2100.270, 3186.275 2100, 3081.500 2100 C 2929.745 2100, 2891.008 2100.254, 2891.040 2101.250" stroke="none" fill="#000000" fill-rule="evenodd"/>
</svg>