<svg id="svg" version="1.1" xmlns="http://www.w3.org/2000/svg" xmlns:xlink="http://www.w3.org/1999/xlink" width="400" height="364.375" viewBox="0, 0, 400,364.375"><g id="svgg"><path id="path0" d="M151.160 188.968 C 150.836 189.052,150.160 190.057,149.556 191.353 C 148.541 193.531,147.589 195.556,144.534 202.031 C 142.477 206.393,141.029 209.477,139.840 212.031 C 139.280 213.234,138.022 215.892,137.044 217.936 C 135.662 220.827,135.359 221.712,135.680 221.916 C 136.265 222.287,269.063 222.265,269.063 221.893 C 269.063 221.617,268.390 220.131,265.275 213.516 C 264.566 212.012,263.598 209.938,263.124 208.906 C 262.649 207.875,261.495 205.414,260.559 203.438 C 259.624 201.461,257.755 197.488,256.408 194.609 C 255.038 191.682,253.775 189.375,253.542 189.375 C 253.312 189.375,253.125 189.234,253.125 189.063 C 253.125 188.750,152.356 188.657,151.160 188.968 " stroke="none" fill="#04cb13" fill-rule="evenodd"></path><path id="path1" d="M291.328 189.385 C 290.552 189.697,290.462 190.048,290.949 190.864 C 291.128 191.162,294.487 198.297,298.415 206.719 L 305.556 222.031 325.794 222.031 L 346.032 222.031 346.926 218.438 C 349.236 209.152,351.741 192.224,351.143 189.938 C 351.067 189.645,351.165 189.339,351.361 189.258 C 351.558 189.178,338.289 189.110,321.875 189.107 C 304.796 189.104,291.731 189.223,291.328 189.385 " stroke="none" fill="#044cfb" fill-rule="evenodd"></path><path id="path2" d="M365.469 189.064 C 357.563 189.158,351.072 189.266,351.045 189.305 C 351.018 189.343,351.061 189.622,351.139 189.923 C 351.313 190.586,350.483 199.512,349.825 204.063 C 348.898 210.471,346.414 221.481,345.771 222.031 C 345.527 222.240,350.701 222.315,361.368 222.257 C 370.147 222.210,377.419 222.069,377.529 221.945 C 378.460 220.891,380.854 204.987,381.373 196.406 C 381.836 188.766,381.832 188.721,380.670 188.822 C 380.215 188.861,373.375 188.970,365.469 189.064 M290.456 189.396 C 290.140 189.908,290.392 189.935,291.250 189.483 C 291.999 189.089,292.003 189.072,291.347 189.067 C 290.970 189.065,290.569 189.212,290.456 189.396 " stroke="none" fill="#5805d3" fill-rule="evenodd"></path><path id="path3" d="M186.250 0.329 C 184.617 0.477,182.086 0.771,180.625 0.984 C 179.164 1.196,177.863 1.343,177.734 1.310 C 177.605 1.277,177.500 1.407,177.500 1.598 C 177.500 1.834,177.020 1.880,176.016 1.741 C 174.941 1.593,174.661 1.627,175.000 1.863 C 175.343 2.102,175.077 2.145,174.008 2.024 C 173.157 1.927,172.464 1.992,172.348 2.180 C 172.238 2.358,171.788 2.412,171.340 2.299 C 170.826 2.170,170.603 2.212,170.728 2.414 C 170.847 2.606,170.463 2.744,169.759 2.763 C 168.072 2.808,167.500 2.893,167.500 3.099 C 167.500 3.199,166.773 3.312,165.884 3.349 C 164.995 3.387,164.186 3.528,164.087 3.662 C 163.988 3.796,163.766 3.910,163.594 3.916 C 161.751 3.970,157.755 4.819,158.281 5.044 C 158.735 5.238,158.640 5.264,157.931 5.139 C 156.862 4.952,155.237 5.251,155.451 5.596 C 155.524 5.715,155.076 5.812,154.454 5.812 C 153.832 5.812,153.272 5.966,153.209 6.154 C 153.146 6.342,152.785 6.429,152.407 6.346 C 151.849 6.224,151.807 6.260,152.188 6.535 C 152.544 6.793,152.400 6.825,151.592 6.670 C 150.832 6.523,150.591 6.567,150.749 6.823 C 150.892 7.054,150.799 7.115,150.485 6.994 C 150.218 6.892,150.000 6.972,150.000 7.173 C 150.000 7.373,149.877 7.461,149.726 7.368 C 149.431 7.185,146.196 8.061,145.938 8.393 C 145.852 8.504,145.430 8.633,145.000 8.681 C 144.570 8.729,144.179 8.884,144.130 9.026 C 144.081 9.168,143.673 9.214,143.224 9.128 C 142.705 9.029,142.480 9.091,142.608 9.297 C 142.719 9.476,142.587 9.707,142.316 9.811 C 141.565 10.100,141.353 10.028,141.875 9.662 C 142.235 9.410,142.163 9.381,141.563 9.536 C 139.720 10.013,138.152 10.728,138.327 11.011 C 138.443 11.199,138.245 11.231,137.813 11.094 C 137.286 10.927,137.171 10.971,137.356 11.270 C 137.531 11.553,137.452 11.611,137.083 11.469 C 136.797 11.359,136.563 11.414,136.563 11.591 C 136.563 11.767,136.441 11.837,136.293 11.745 C 135.952 11.535,133.438 12.507,133.438 12.850 C 133.438 12.991,133.203 13.016,132.917 12.906 C 132.540 12.761,132.468 12.820,132.653 13.120 C 132.809 13.372,132.787 13.459,132.597 13.341 C 132.148 13.064,129.949 13.728,130.164 14.076 C 130.264 14.236,130.120 14.282,129.845 14.176 C 129.550 14.063,129.150 14.224,128.868 14.570 C 128.606 14.893,128.479 14.982,128.587 14.769 C 128.715 14.515,128.617 14.446,128.299 14.568 C 128.034 14.670,127.909 14.903,128.022 15.086 C 128.152 15.297,128.030 15.343,127.688 15.212 C 127.064 14.972,125.313 15.782,125.313 16.310 C 125.313 16.506,125.231 16.585,125.131 16.485 C 124.902 16.257,122.726 17.146,122.455 17.579 C 122.344 17.755,121.804 17.935,121.254 17.978 C 120.705 18.021,120.093 18.221,119.893 18.422 C 119.618 18.700,119.681 18.733,120.156 18.562 C 121.036 18.247,120.661 18.572,119.419 19.205 C 118.841 19.499,118.462 19.588,118.576 19.404 C 118.703 19.199,118.596 19.141,118.299 19.255 C 118.034 19.357,117.885 19.552,117.969 19.688 C 118.053 19.823,117.904 20.018,117.638 20.120 C 117.372 20.222,117.234 20.177,117.331 20.021 C 117.427 19.865,116.063 20.497,114.300 21.426 C 112.537 22.355,111.132 23.269,111.180 23.456 C 111.227 23.643,111.121 23.707,110.944 23.598 C 110.499 23.323,107.473 25.016,107.714 25.405 C 107.829 25.592,107.752 25.624,107.525 25.484 C 107.303 25.347,106.855 25.509,106.461 25.869 C 106.087 26.211,105.463 26.587,105.074 26.705 C 104.684 26.823,104.441 27.041,104.532 27.188 C 104.623 27.336,104.533 27.559,104.332 27.683 C 104.103 27.824,104.050 27.774,104.189 27.548 C 104.506 27.034,104.252 27.097,102.987 27.843 C 102.376 28.204,101.968 28.647,102.080 28.829 C 102.200 29.023,102.135 29.067,101.922 28.935 C 101.638 28.760,99.523 30.165,98.438 31.250 C 98.352 31.336,98.070 31.406,97.813 31.406 C 97.555 31.406,97.373 31.565,97.410 31.760 C 97.446 31.955,97.238 32.095,96.948 32.073 C 96.659 32.050,96.418 32.195,96.414 32.396 C 96.410 32.596,96.278 32.878,96.122 33.021 C 95.956 33.172,95.931 33.118,96.062 32.891 C 96.512 32.109,95.742 32.539,93.959 34.065 C 92.957 34.923,91.999 35.625,91.831 35.625 C 91.663 35.625,91.603 35.750,91.697 35.902 C 91.791 36.055,91.624 36.160,91.325 36.137 C 91.026 36.113,90.815 36.264,90.856 36.473 C 90.897 36.682,90.735 36.778,90.497 36.686 C 90.073 36.524,89.560 37.034,89.522 37.656 C 89.511 37.828,89.319 37.929,89.095 37.880 C 88.870 37.831,88.084 38.323,87.347 38.974 C 86.610 39.624,85.637 40.411,85.185 40.723 C 84.732 41.034,84.438 41.411,84.530 41.560 C 84.622 41.710,84.533 41.934,84.332 42.058 C 84.103 42.199,84.050 42.149,84.189 41.923 C 84.312 41.725,84.285 41.563,84.129 41.563 C 83.775 41.562,82.865 42.551,82.835 42.969 C 82.823 43.141,82.701 43.281,82.565 43.281 C 82.027 43.281,79.697 45.388,79.891 45.701 C 80.017 45.905,79.947 45.942,79.710 45.795 C 79.267 45.521,77.425 47.126,77.691 47.556 C 77.783 47.705,77.717 47.789,77.543 47.742 C 77.083 47.617,72.459 51.869,72.676 52.219 C 72.776 52.382,72.673 52.477,72.445 52.430 C 72.217 52.382,72.066 52.520,72.109 52.734 C 72.152 52.949,72.012 53.090,71.797 53.047 C 71.582 53.004,71.441 53.145,71.484 53.359 C 71.527 53.574,71.430 53.715,71.269 53.672 C 70.890 53.571,65.908 58.761,66.094 59.063 C 66.241 59.301,65.386 60.194,64.844 60.368 C 64.672 60.424,64.566 60.574,64.609 60.703 C 64.652 60.832,64.569 60.902,64.425 60.859 C 64.067 60.753,61.233 64.095,61.422 64.400 C 61.505 64.535,61.408 64.746,61.207 64.870 C 60.963 65.021,60.918 64.950,61.073 64.658 C 61.200 64.416,61.022 64.566,60.677 64.991 C 60.331 65.416,60.119 65.877,60.204 66.015 C 60.289 66.153,60.173 66.227,59.945 66.180 C 59.717 66.132,59.570 66.280,59.617 66.508 C 59.664 66.735,59.565 66.836,59.397 66.733 C 59.097 66.547,56.562 69.483,56.562 70.017 C 56.562 70.168,56.137 70.726,55.618 71.257 C 55.098 71.789,54.768 72.378,54.885 72.566 C 55.001 72.755,54.969 72.832,54.814 72.737 C 54.658 72.642,54.261 72.925,53.931 73.365 C 53.601 73.805,53.494 74.065,53.693 73.941 C 53.930 73.795,53.991 73.885,53.870 74.201 C 53.768 74.466,53.566 74.610,53.420 74.521 C 53.136 74.345,52.319 75.613,52.441 76.039 C 52.482 76.181,52.382 76.214,52.219 76.113 C 52.056 76.013,51.631 76.340,51.274 76.841 C 50.551 77.857,50.441 78.276,50.986 77.939 C 51.211 77.800,51.262 77.853,51.120 78.082 C 50.996 78.283,50.780 78.377,50.640 78.290 C 50.500 78.204,50.211 78.553,49.998 79.066 C 49.786 79.580,49.473 80.000,49.304 80.000 C 49.134 80.000,49.075 80.206,49.172 80.459 C 49.268 80.711,49.191 81.014,49.001 81.132 C 48.790 81.262,48.741 81.204,48.876 80.986 C 48.999 80.787,49.041 80.625,48.969 80.625 C 48.727 80.625,46.458 84.206,46.458 84.588 C 46.458 84.795,46.324 84.938,46.159 84.905 C 45.994 84.871,45.788 85.039,45.702 85.278 C 45.596 85.569,45.676 85.630,45.945 85.464 C 46.210 85.300,46.270 85.340,46.120 85.582 C 45.996 85.783,45.769 85.870,45.617 85.776 C 45.232 85.539,44.299 87.430,44.569 87.900 C 44.689 88.110,44.670 88.174,44.525 88.043 C 44.183 87.732,41.808 91.826,42.077 92.262 C 42.195 92.452,42.138 92.506,41.946 92.387 C 41.622 92.188,41.049 93.307,41.196 93.851 C 41.234 93.993,41.127 94.024,40.959 93.919 C 40.561 93.674,39.594 95.533,39.879 95.995 C 40.004 96.197,39.957 96.260,39.769 96.144 C 39.375 95.900,38.975 96.792,39.266 97.264 C 39.397 97.475,39.321 97.503,39.058 97.341 C 38.755 97.153,38.699 97.229,38.850 97.621 C 38.988 97.983,38.937 98.085,38.693 97.934 C 38.449 97.783,38.398 97.885,38.537 98.246 C 38.650 98.541,38.619 98.706,38.467 98.612 C 38.106 98.389,37.750 99.326,38.018 99.794 C 38.132 99.993,38.121 100.063,37.993 99.948 C 37.701 99.687,35.572 103.724,35.804 104.099 C 35.898 104.251,35.852 104.375,35.701 104.375 C 35.315 104.375,34.327 106.544,34.549 106.904 C 34.651 107.069,34.548 107.164,34.320 107.117 C 34.038 107.059,33.928 107.331,33.975 107.969 C 34.018 108.561,33.949 108.755,33.787 108.495 C 33.602 108.197,33.423 108.343,33.142 109.023 C 32.927 109.539,32.858 110.133,32.987 110.342 C 33.126 110.567,33.091 110.641,32.901 110.523 C 32.598 110.336,31.497 112.716,31.408 113.750 C 31.386 114.008,31.208 114.513,31.012 114.873 C 30.282 116.212,27.786 122.890,27.952 123.056 C 28.047 123.151,28.125 123.042,28.125 122.813 C 28.125 122.583,28.199 122.469,28.289 122.559 C 28.525 122.795,28.102 123.773,27.836 123.608 C 27.502 123.402,26.468 126.491,26.683 127.050 C 26.785 127.315,26.750 127.459,26.605 127.370 C 26.333 127.202,25.496 129.740,25.018 132.188 C 24.866 132.961,24.301 135.211,23.762 137.188 C 22.342 142.396,22.406 142.107,22.787 141.563 C 22.984 141.281,23.117 141.241,23.120 141.462 C 23.123 141.665,22.937 142.018,22.707 142.248 C 22.478 142.478,22.306 143.040,22.326 143.496 C 22.346 143.953,22.232 144.246,22.073 144.148 C 21.904 144.044,21.873 144.324,21.998 144.823 C 22.139 145.383,22.100 145.608,21.888 145.476 C 21.709 145.366,21.561 145.530,21.558 145.841 C 21.556 146.152,21.483 146.758,21.396 147.188 C 21.253 147.890,21.270 147.906,21.563 147.344 C 21.855 146.782,21.872 146.797,21.729 147.500 C 21.642 147.930,21.569 148.395,21.567 148.534 C 21.564 148.673,21.435 148.708,21.279 148.612 C 20.923 148.392,20.488 151.400,20.802 151.909 C 20.958 152.161,20.901 152.202,20.628 152.033 C 20.322 151.844,20.261 151.986,20.380 152.610 C 20.467 153.065,20.417 153.438,20.269 153.438 C 20.121 153.438,20.002 153.684,20.005 153.984 C 20.009 154.453,20.054 154.464,20.319 154.063 C 20.552 153.709,20.612 153.838,20.562 154.588 C 20.525 155.134,20.399 155.522,20.280 155.449 C 19.736 155.113,18.616 164.225,18.800 167.488 C 18.858 168.526,18.822 169.376,18.719 169.376 C 18.308 169.374,18.114 183.710,18.427 190.943 C 18.863 201.007,19.512 207.958,19.990 207.663 C 20.118 207.584,20.156 207.866,20.075 208.291 C 19.989 208.739,20.074 209.063,20.276 209.063 C 20.468 209.063,20.623 209.309,20.620 209.609 C 20.616 210.077,20.571 210.088,20.312 209.688 C 20.054 209.287,20.009 209.298,20.005 209.766 C 20.002 210.066,20.149 210.313,20.331 210.313 C 20.513 210.312,20.573 210.456,20.465 210.630 C 20.203 211.055,20.955 215.651,21.256 215.465 C 21.386 215.385,21.576 215.634,21.679 216.019 C 21.958 217.060,21.906 217.403,21.548 216.875 C 21.317 216.533,21.289 216.661,21.445 217.344 C 21.563 217.859,21.758 218.321,21.878 218.370 C 21.998 218.419,22.036 218.841,21.961 219.308 C 21.856 219.968,21.899 220.052,22.154 219.688 C 22.397 219.340,22.433 219.523,22.294 220.391 C 22.165 221.194,22.223 221.563,22.478 221.563 C 22.682 221.563,22.771 221.689,22.675 221.844 C 22.579 221.999,22.925 223.722,23.442 225.672 C 23.960 227.623,24.675 230.450,25.032 231.954 C 25.443 233.683,25.804 234.614,26.014 234.484 C 26.212 234.361,26.255 234.427,26.119 234.647 C 25.760 235.227,26.247 237.061,26.617 236.526 C 26.828 236.221,26.855 236.308,26.711 236.820 C 26.568 237.327,26.679 237.687,27.081 238.015 C 27.397 238.273,27.480 238.395,27.266 238.286 C 27.051 238.177,26.875 238.141,26.875 238.206 C 26.875 238.445,29.026 244.297,30.003 246.719 C 30.559 248.094,31.144 249.679,31.305 250.242 C 31.481 250.862,31.732 251.182,31.940 251.053 C 32.148 250.925,32.195 250.985,32.059 251.205 C 31.744 251.716,32.161 252.866,32.571 252.613 C 32.773 252.487,32.819 252.549,32.684 252.767 C 32.369 253.278,32.786 254.428,33.196 254.175 C 33.406 254.045,33.443 254.113,33.294 254.354 C 33.008 254.817,34.033 257.243,34.415 257.007 C 34.561 256.916,34.588 257.084,34.475 257.379 C 34.336 257.740,34.387 257.842,34.631 257.691 C 34.875 257.540,34.926 257.642,34.787 258.004 C 34.636 258.396,34.692 258.472,34.995 258.284 C 35.260 258.120,35.334 258.150,35.201 258.366 C 34.915 258.828,35.640 260.340,36.031 260.098 C 36.213 259.986,36.250 260.060,36.119 260.271 C 35.827 260.744,38.466 266.250,38.984 266.250 C 39.199 266.250,39.375 266.399,39.375 266.581 C 39.375 266.763,39.213 266.812,39.016 266.690 C 38.819 266.568,38.982 267.046,39.379 267.753 C 39.776 268.459,40.240 268.951,40.411 268.845 C 40.583 268.739,40.624 268.811,40.503 269.008 C 40.223 269.460,40.872 270.702,41.262 270.461 C 41.428 270.359,41.466 270.513,41.350 270.816 C 41.199 271.209,41.255 271.284,41.558 271.097 C 41.803 270.945,41.896 270.963,41.786 271.141 C 41.540 271.539,43.560 275.085,43.862 274.784 C 43.990 274.656,44.016 274.759,43.918 275.013 C 43.692 275.602,46.328 279.873,46.846 279.758 C 47.060 279.711,47.146 279.814,47.039 279.987 C 46.850 280.294,49.233 284.115,49.744 284.323 C 49.885 284.380,50.000 284.593,50.000 284.796 C 50.000 285.420,52.178 288.438,52.571 288.357 C 52.774 288.315,52.964 288.457,52.994 288.672 C 53.023 288.887,53.064 289.211,53.086 289.393 C 53.107 289.575,53.266 289.637,53.437 289.531 C 53.609 289.425,53.750 289.583,53.750 289.883 C 53.750 290.183,54.279 291.070,54.926 291.855 C 55.573 292.639,56.516 293.892,57.020 294.639 C 58.350 296.606,59.852 298.166,60.152 297.893 C 60.296 297.763,60.319 297.820,60.204 298.021 C 60.088 298.224,60.387 298.709,60.879 299.115 L 61.763 299.844 60.890 301.326 C 60.397 302.166,60.095 303.047,60.195 303.358 C 60.332 303.783,60.302 303.809,60.064 303.474 C 59.759 303.047,59.272 303.857,59.401 304.577 C 59.508 305.173,59.359 305.652,59.114 305.501 C 58.758 305.280,57.750 307.458,58.012 307.882 C 58.130 308.074,58.078 308.133,57.890 308.017 C 57.691 307.894,57.159 308.781,56.560 310.234 C 56.011 311.566,55.093 313.548,54.521 314.638 C 53.947 315.729,53.564 316.841,53.668 317.111 C 53.784 317.414,53.728 317.523,53.523 317.397 C 53.126 317.151,52.723 318.039,53.016 318.514 C 53.130 318.698,53.075 318.756,52.894 318.644 C 52.500 318.400,52.100 319.292,52.391 319.764 C 52.504 319.947,52.457 320.010,52.287 319.905 C 52.117 319.800,51.587 320.587,51.110 321.654 C 50.632 322.721,49.473 325.171,48.533 327.098 C 47.576 329.060,46.925 330.766,47.054 330.974 C 47.191 331.196,47.151 331.264,46.956 331.144 C 46.562 330.900,46.162 331.792,46.454 332.264 C 46.584 332.475,46.508 332.503,46.245 332.341 C 45.942 332.153,45.886 332.229,46.037 332.621 C 46.176 332.983,46.125 333.085,45.881 332.934 C 45.637 332.783,45.586 332.885,45.725 333.246 C 45.838 333.541,45.813 333.710,45.670 333.621 C 45.526 333.533,45.085 334.193,44.690 335.089 C 44.295 335.986,43.144 338.449,42.133 340.563 C 41.122 342.677,40.391 344.562,40.508 344.752 C 40.629 344.947,40.580 345.009,40.394 344.894 C 40.000 344.650,39.600 345.542,39.891 346.014 C 40.005 346.198,39.950 346.256,39.769 346.144 C 39.375 345.900,38.975 346.792,39.266 347.264 C 39.379 347.447,39.329 347.508,39.154 347.401 C 38.980 347.293,38.586 347.798,38.280 348.524 C 37.973 349.250,37.321 350.737,36.831 351.829 C 36.341 352.921,36.019 353.941,36.115 354.097 C 36.211 354.252,36.062 354.467,35.783 354.574 C 35.505 354.681,35.353 354.968,35.447 355.213 C 35.542 355.459,35.480 355.572,35.309 355.467 C 35.139 355.362,35.000 355.565,35.000 355.919 C 35.000 356.273,35.132 356.563,35.294 356.563 C 35.456 356.563,43.855 356.582,53.959 356.606 L 72.328 356.650 72.900 355.626 C 73.215 355.064,73.399 354.413,73.310 354.180 C 73.220 353.948,73.291 353.791,73.466 353.832 C 73.641 353.873,74.250 352.746,74.820 351.328 C 75.389 349.910,75.768 348.748,75.662 348.745 C 75.556 348.743,75.626 348.637,75.818 348.511 C 76.400 348.129,77.850 345.002,77.619 344.627 C 77.499 344.433,77.543 344.365,77.719 344.473 C 78.110 344.715,78.835 343.203,78.549 342.741 C 78.416 342.525,78.490 342.495,78.755 342.659 C 79.058 342.847,79.114 342.771,78.963 342.379 C 78.824 342.017,78.875 341.915,79.119 342.066 C 79.363 342.217,79.414 342.115,79.275 341.754 C 79.162 341.459,79.195 341.295,79.347 341.389 C 79.500 341.483,80.260 340.049,81.036 338.202 C 81.812 336.355,83.023 333.719,83.727 332.345 C 84.432 330.970,84.937 329.662,84.851 329.438 C 84.765 329.214,84.812 329.103,84.957 329.192 C 85.101 329.281,85.712 328.309,86.316 327.032 L 87.413 324.711 88.091 325.433 C 88.700 326.080,89.932 327.006,93.037 329.149 C 93.591 329.531,94.645 330.333,95.381 330.932 C 96.117 331.530,96.508 331.753,96.250 331.427 C 95.808 330.869,95.821 330.857,96.493 331.215 C 96.885 331.423,97.126 331.721,97.030 331.877 C 96.933 332.033,97.281 332.381,97.802 332.651 C 98.324 332.921,98.750 333.040,98.750 332.915 C 98.750 332.791,99.207 333.117,99.766 333.639 C 101.287 335.061,102.768 336.002,103.131 335.778 C 103.308 335.668,103.414 335.749,103.367 335.957 C 103.320 336.165,104.081 336.773,105.059 337.308 C 106.036 337.843,107.842 338.879,109.072 339.610 C 110.301 340.341,111.457 340.847,111.639 340.734 C 111.823 340.620,111.881 340.675,111.769 340.856 C 111.522 341.256,112.415 341.645,112.919 341.357 C 113.118 341.243,113.176 341.266,113.047 341.408 C 112.759 341.725,117.121 344.140,117.527 343.889 C 117.687 343.791,117.904 343.938,118.011 344.217 C 118.118 344.495,118.406 344.647,118.650 344.553 C 118.895 344.459,119.012 344.516,118.911 344.679 C 118.811 344.842,119.290 345.263,119.977 345.613 C 121.373 346.326,122.023 346.431,121.689 345.889 C 121.550 345.664,121.603 345.613,121.832 345.755 C 122.033 345.879,122.117 346.112,122.018 346.272 C 121.919 346.432,122.022 346.563,122.247 346.564 C 122.472 346.565,123.627 347.064,124.814 347.673 C 126.000 348.282,127.166 348.705,127.404 348.614 C 127.642 348.523,127.919 348.665,128.021 348.929 C 128.123 349.194,128.406 349.334,128.650 349.240 C 128.895 349.146,129.015 349.199,128.918 349.356 C 128.688 349.728,129.883 350.109,130.358 349.816 C 130.601 349.666,130.637 349.728,130.466 350.005 C 130.278 350.308,130.354 350.364,130.746 350.213 C 131.042 350.100,131.203 350.136,131.105 350.294 C 130.889 350.643,132.058 351.054,132.497 350.783 C 132.671 350.676,132.813 350.707,132.812 350.852 C 132.812 351.155,135.649 352.267,135.867 352.049 C 135.947 351.970,136.224 352.117,136.484 352.377 C 136.743 352.636,137.139 352.778,137.364 352.692 C 137.588 352.606,137.818 352.673,137.874 352.842 C 138.041 353.341,142.203 354.722,142.929 354.520 C 143.411 354.385,143.475 354.416,143.162 354.633 C 142.671 354.973,144.436 355.505,144.966 355.177 C 145.127 355.078,145.306 355.113,145.364 355.255 C 145.528 355.662,150.914 357.239,151.307 356.996 C 151.537 356.854,151.571 356.921,151.406 357.188 C 151.217 357.494,151.324 357.553,151.827 357.422 C 152.254 357.310,152.427 357.366,152.298 357.574 C 152.167 357.785,152.388 357.847,152.913 357.747 C 153.420 357.650,153.657 357.711,153.535 357.907 C 153.416 358.101,153.601 358.155,154.014 358.047 C 154.385 357.950,154.619 357.983,154.534 358.120 C 154.331 358.449,156.471 358.843,156.929 358.561 C 157.128 358.438,157.199 358.479,157.090 358.654 C 156.905 358.954,158.598 359.425,161.406 359.855 C 162.094 359.960,164.097 360.325,165.858 360.667 C 167.619 361.009,169.189 361.209,169.347 361.111 C 169.505 361.013,169.683 361.080,169.742 361.258 C 169.802 361.437,170.727 361.613,171.797 361.651 C 172.868 361.688,173.746 361.804,173.747 361.909 C 173.750 362.107,179.039 362.903,179.551 362.782 C 179.712 362.744,180.055 362.791,180.313 362.886 C 181.309 363.253,188.578 363.787,195.000 363.965 C 201.849 364.154,214.028 363.824,213.060 363.474 C 212.766 363.368,213.540 363.271,214.779 363.258 C 217.853 363.227,221.909 362.808,221.743 362.538 C 221.668 362.417,222.054 362.367,222.600 362.427 C 223.594 362.537,226.804 362.047,235.313 360.487 C 242.485 359.173,243.141 359.029,243.004 358.805 C 242.933 358.689,243.318 358.582,243.859 358.568 C 244.401 358.554,247.234 357.822,250.156 356.942 C 253.078 356.062,255.861 355.261,256.341 355.162 C 256.880 355.050,257.130 354.848,256.996 354.630 C 256.859 354.410,256.920 354.366,257.157 354.512 C 257.708 354.853,259.134 354.431,258.871 354.005 C 258.741 353.796,258.794 353.740,259.000 353.868 C 259.563 354.215,261.087 353.731,260.577 353.367 C 260.267 353.145,260.310 353.116,260.739 353.256 C 261.078 353.366,262.716 352.901,264.646 352.147 C 266.473 351.432,268.706 350.571,269.606 350.233 C 270.507 349.894,271.175 349.506,271.090 349.369 C 271.006 349.233,271.224 349.196,271.575 349.288 C 271.990 349.396,272.182 349.317,272.123 349.063 C 272.072 348.848,272.227 348.601,272.465 348.514 C 272.733 348.417,272.815 348.493,272.680 348.712 C 272.518 348.974,272.667 348.973,273.252 348.707 C 273.687 348.508,273.955 348.204,273.848 348.031 C 273.741 347.858,273.801 347.807,273.982 347.919 C 274.304 348.118,277.035 347.017,280.156 345.432 C 287.217 341.845,288.421 341.164,288.235 340.863 C 288.119 340.675,288.174 340.619,288.361 340.734 C 288.833 341.025,289.725 340.625,289.481 340.231 C 289.365 340.044,289.428 339.996,289.628 340.120 C 289.821 340.239,290.874 339.770,291.970 339.078 C 293.065 338.386,294.723 337.408,295.653 336.903 C 296.583 336.399,297.310 335.840,297.269 335.661 C 297.228 335.482,297.375 335.404,297.594 335.488 C 297.814 335.572,298.570 335.148,299.274 334.545 C 299.979 333.942,300.931 333.306,301.390 333.131 C 301.901 332.937,302.138 332.673,302.002 332.452 C 301.865 332.231,301.915 332.176,302.130 332.308 C 302.539 332.561,304.131 331.613,303.907 331.251 C 303.824 331.117,303.941 331.027,304.166 331.051 C 304.391 331.074,305.175 330.608,305.909 330.015 C 306.642 329.422,307.546 328.778,307.918 328.583 C 308.290 328.389,308.564 328.082,308.528 327.902 C 308.492 327.721,308.703 327.592,308.997 327.615 C 309.291 327.638,309.493 327.470,309.445 327.242 C 309.398 327.015,309.481 326.903,309.629 326.995 C 310.038 327.248,311.290 326.255,311.051 325.868 C 310.927 325.668,310.986 325.618,311.193 325.746 C 311.386 325.865,311.855 325.606,312.235 325.169 C 312.615 324.732,313.061 324.375,313.227 324.375 C 313.393 324.375,314.120 323.891,314.841 323.300 L 316.154 322.225 317.433 324.784 C 318.137 326.192,319.091 328.220,319.553 329.291 C 320.029 330.395,320.531 331.152,320.713 331.039 C 320.906 330.920,320.938 330.996,320.795 331.228 C 320.541 331.638,321.521 333.750,321.965 333.750 C 322.107 333.750,322.156 333.861,322.072 333.996 C 321.988 334.132,322.479 335.356,323.163 336.717 C 323.847 338.077,324.773 340.111,325.221 341.236 C 325.669 342.361,327.279 345.791,328.799 348.857 C 330.319 351.924,331.563 354.640,331.563 354.891 C 331.563 355.158,331.713 355.256,331.923 355.126 C 332.146 354.989,332.199 355.041,332.063 355.262 C 331.941 355.459,331.962 355.836,332.110 356.100 C 332.440 356.690,368.197 357.204,368.555 356.625 C 368.840 356.164,368.431 355.279,368.044 355.519 C 367.862 355.631,367.808 355.573,367.921 355.389 C 368.213 354.917,367.813 354.025,367.419 354.269 C 367.239 354.380,367.180 354.328,367.288 354.153 C 367.551 353.728,361.107 340.879,360.780 341.175 C 360.640 341.302,360.618 341.243,360.732 341.044 C 361.020 340.540,360.631 339.647,360.231 339.894 C 360.050 340.006,359.995 339.948,360.109 339.764 C 360.400 339.292,360.000 338.400,359.606 338.644 C 359.425 338.756,359.370 338.698,359.484 338.514 C 359.754 338.077,359.389 337.142,359.033 337.362 C 358.881 337.456,358.850 337.291,358.963 336.996 C 359.114 336.604,359.058 336.528,358.755 336.716 C 358.481 336.885,358.416 336.851,358.562 336.614 C 358.683 336.417,358.232 335.095,357.558 333.675 C 356.884 332.255,355.800 329.786,355.148 328.187 C 354.305 326.119,353.879 325.397,353.671 325.687 C 353.458 325.983,353.426 325.945,353.554 325.547 C 353.786 324.827,353.460 324.012,353.044 324.269 C 352.862 324.381,352.808 324.323,352.921 324.139 C 353.034 323.957,352.423 322.319,351.563 320.501 C 350.703 318.682,350.000 317.104,350.000 316.994 C 350.000 316.375,347.388 310.970,347.158 311.112 C 347.006 311.206,346.959 311.082,347.053 310.838 C 347.147 310.593,346.995 310.306,346.717 310.199 C 346.438 310.092,346.302 309.857,346.413 309.677 C 346.524 309.496,346.024 308.124,345.301 306.628 C 344.578 305.131,343.787 303.344,343.543 302.656 C 343.299 301.969,342.666 300.464,342.136 299.313 L 341.172 297.219 342.103 296.032 C 342.616 295.378,343.217 294.492,343.439 294.063 C 343.662 293.633,343.964 293.202,344.111 293.106 C 344.680 292.731,345.908 290.830,345.748 290.571 C 345.655 290.420,345.709 290.336,345.868 290.383 C 346.210 290.484,348.059 288.240,349.274 286.250 C 349.745 285.477,350.521 284.299,350.998 283.633 C 351.474 282.967,351.773 282.264,351.663 282.070 C 351.553 281.877,351.580 281.825,351.723 281.956 C 352.060 282.261,353.150 280.614,352.901 280.176 C 352.797 279.993,352.824 279.944,352.960 280.068 C 353.358 280.426,354.398 278.872,354.190 278.231 C 354.046 277.787,354.074 277.756,354.315 278.094 C 354.558 278.436,354.778 278.230,355.318 277.157 C 355.698 276.400,356.495 274.974,357.088 273.988 C 357.681 273.001,358.083 272.059,357.981 271.894 C 357.878 271.729,358.091 271.435,358.453 271.242 C 358.828 271.041,359.038 270.700,358.942 270.449 C 358.848 270.203,358.941 270.040,359.152 270.082 C 359.361 270.123,359.512 269.912,359.488 269.613 C 359.465 269.314,359.556 269.137,359.690 269.220 C 360.022 269.425,360.366 268.464,360.109 268.049 C 359.995 267.864,360.050 267.806,360.231 267.919 C 360.625 268.162,361.025 267.270,360.734 266.799 C 360.619 266.613,360.675 266.557,360.861 266.671 C 361.054 266.791,361.472 266.254,361.857 265.392 C 362.223 264.575,362.872 263.231,363.301 262.406 C 363.729 261.581,363.984 260.751,363.867 260.561 C 363.728 260.337,363.799 260.306,364.067 260.472 C 364.370 260.659,364.426 260.584,364.275 260.191 C 364.162 259.896,364.194 259.732,364.346 259.826 C 364.707 260.049,365.063 259.112,364.795 258.644 C 364.681 258.444,364.700 258.383,364.837 258.507 C 365.181 258.817,366.331 256.600,366.117 256.042 C 366.022 255.795,366.069 255.669,366.221 255.763 C 366.576 255.983,366.942 255.048,366.671 254.611 C 366.555 254.423,366.613 254.369,366.804 254.488 C 367.214 254.741,367.631 253.591,367.316 253.080 C 367.186 252.869,367.226 252.800,367.412 252.914 C 367.689 253.085,368.750 250.927,368.750 250.193 C 368.750 250.053,368.952 249.495,369.199 248.953 C 370.222 246.711,371.525 243.004,371.374 242.761 C 371.286 242.617,371.349 242.500,371.515 242.500 C 371.681 242.500,371.743 242.219,371.653 241.875 C 371.558 241.512,371.643 241.250,371.857 241.250 C 372.059 241.250,372.137 241.109,372.031 240.938 C 371.925 240.766,371.973 240.625,372.138 240.625 C 372.304 240.625,372.588 240.198,372.769 239.677 C 372.951 239.155,372.985 238.799,372.845 238.886 C 372.705 238.973,372.663 238.665,372.751 238.202 C 372.882 237.516,372.948 237.465,373.109 237.924 C 373.249 238.323,373.424 238.028,373.710 236.912 C 373.932 236.045,374.010 235.169,373.884 234.964 C 373.745 234.739,373.786 234.673,373.989 234.798 C 374.393 235.048,374.837 233.308,374.506 232.772 C 374.372 232.554,374.412 232.486,374.605 232.605 C 374.798 232.725,374.994 232.393,375.083 231.794 C 375.166 231.237,375.521 229.744,375.873 228.476 C 376.224 227.207,376.429 225.954,376.328 225.690 C 376.217 225.401,376.274 225.291,376.471 225.412 C 376.835 225.637,377.157 224.358,377.048 223.125 L 376.980 222.344 361.464 222.263 L 345.948 222.182 345.578 223.652 C 345.317 224.686,345.150 224.958,345.014 224.570 C 344.886 224.207,344.625 224.768,344.252 226.205 C 343.940 227.408,343.771 228.531,343.876 228.701 C 343.981 228.870,343.929 229.056,343.761 229.114 C 343.593 229.172,343.417 229.570,343.369 230.000 C 343.321 230.430,343.095 230.978,342.866 231.218 C 342.638 231.459,342.520 231.916,342.603 232.235 C 342.686 232.553,342.627 232.735,342.471 232.638 C 342.315 232.542,342.188 232.624,342.188 232.820 C 342.188 233.016,341.755 234.161,341.227 235.365 C 340.699 236.569,340.345 237.760,340.442 238.012 C 340.539 238.264,340.489 238.390,340.331 238.293 C 340.055 238.122,339.616 239.033,339.714 239.577 C 339.821 240.178,339.671 240.652,339.421 240.497 C 339.123 240.313,338.738 241.072,337.611 244.063 C 337.189 245.180,336.288 247.125,335.608 248.386 C 334.928 249.647,334.464 250.829,334.578 251.013 C 334.700 251.210,334.636 251.255,334.423 251.124 C 334.071 250.906,333.929 251.288,334.046 252.141 C 334.078 252.373,333.969 252.479,333.804 252.377 C 333.430 252.146,333.048 253.060,333.329 253.514 C 333.451 253.713,333.385 253.755,333.164 253.618 C 332.919 253.466,332.424 254.159,331.694 255.679 C 330.437 258.296,328.538 261.526,327.734 262.414 C 327.114 263.099,327.006 263.587,327.548 263.251 C 327.774 263.112,327.824 263.166,327.683 263.394 C 327.559 263.596,327.327 263.680,327.167 263.581 C 327.008 263.483,326.716 263.757,326.518 264.191 C 326.071 265.172,325.777 265.008,325.295 263.511 C 324.601 261.357,322.734 257.511,322.463 257.679 C 322.315 257.770,322.287 257.604,322.400 257.309 C 322.551 256.916,322.495 256.841,322.192 257.028 C 321.923 257.195,321.853 257.163,321.993 256.937 C 322.111 256.746,321.657 255.493,320.984 254.154 C 320.311 252.815,319.381 250.805,318.918 249.688 C 317.139 245.395,316.154 243.460,315.847 243.650 C 315.669 243.760,315.623 243.693,315.743 243.499 C 315.861 243.309,315.301 241.845,314.498 240.248 C 313.696 238.651,312.703 236.453,312.293 235.363 C 311.286 232.690,310.368 230.938,309.975 230.938 C 309.797 230.938,309.730 230.810,309.826 230.653 C 310.095 230.218,309.665 229.352,309.294 229.581 C 309.110 229.695,309.058 229.635,309.175 229.445 C 309.412 229.062,306.795 223.661,305.914 222.716 C 305.598 222.376,305.033 221.451,304.658 220.659 C 303.313 217.815,298.976 208.506,296.598 203.359 C 296.101 202.285,295.035 200.000,294.227 198.281 C 290.982 191.374,289.970 189.065,290.021 188.682 C 290.132 187.846,289.988 187.471,289.639 187.686 C 289.420 187.822,289.363 187.772,289.494 187.560 C 289.613 187.368,289.355 186.511,288.922 185.655 C 288.488 184.800,287.725 183.072,287.225 181.815 C 286.013 178.767,284.811 176.549,284.515 176.815 C 284.383 176.934,284.369 176.866,284.485 176.664 C 284.767 176.171,284.054 174.656,283.656 174.902 C 283.481 175.010,283.437 174.942,283.556 174.748 C 283.675 174.557,283.359 173.583,282.855 172.584 C 282.351 171.585,281.596 169.927,281.178 168.899 C 279.618 165.066,276.750 159.415,276.457 159.596 C 276.290 159.700,276.251 159.627,276.370 159.434 C 276.489 159.241,276.316 158.552,275.987 157.901 C 275.657 157.251,275.017 155.805,274.564 154.688 C 273.135 151.160,271.698 148.407,271.419 148.661 C 271.271 148.796,271.253 148.728,271.378 148.510 C 271.504 148.292,271.331 147.659,270.994 147.104 C 270.658 146.548,269.938 145.039,269.395 143.750 C 267.520 139.299,267.090 138.461,266.779 138.653 C 266.607 138.760,266.558 138.697,266.671 138.514 C 266.963 138.042,266.563 137.150,266.169 137.394 C 265.983 137.509,265.933 137.447,266.054 137.252 C 266.171 137.062,265.419 135.143,264.384 132.986 C 263.348 130.830,262.500 128.971,262.500 128.855 C 262.500 128.190,260.488 124.423,260.222 124.587 C 260.047 124.696,259.996 124.634,260.109 124.451 C 260.400 123.980,260.000 123.088,259.606 123.331 C 259.412 123.452,259.372 123.383,259.508 123.163 C 259.634 122.958,259.217 121.780,258.578 120.536 C 257.940 119.296,256.809 116.822,256.065 115.038 C 255.321 113.254,254.462 111.519,254.157 111.182 C 253.852 110.845,253.587 110.406,253.567 110.206 C 253.467 109.157,253.409 109.043,253.077 109.249 C 252.864 109.380,252.800 109.335,252.921 109.139 C 253.213 108.667,252.813 107.775,252.419 108.019 C 252.232 108.135,252.183 108.072,252.306 107.874 C 252.424 107.682,252.045 106.571,251.463 105.404 C 250.882 104.236,250.024 102.270,249.558 101.035 C 249.092 99.800,248.285 98.202,247.765 97.484 C 247.245 96.766,246.974 96.274,247.162 96.391 C 247.400 96.538,247.394 96.360,247.144 95.811 C 246.946 95.376,246.642 95.107,246.469 95.214 C 246.295 95.321,246.245 95.261,246.357 95.079 C 246.470 94.898,246.113 93.856,245.565 92.765 C 245.017 91.674,244.052 89.516,243.421 87.969 C 242.790 86.422,242.118 85.190,241.929 85.231 C 241.740 85.272,241.665 85.096,241.763 84.840 C 241.862 84.584,241.786 84.375,241.596 84.375 C 241.406 84.375,241.284 84.270,241.325 84.141 C 241.473 83.680,240.254 80.937,239.977 81.108 C 239.822 81.204,239.778 81.065,239.880 80.800 C 239.989 80.516,239.859 80.239,239.565 80.126 C 239.291 80.021,239.140 79.814,239.231 79.667 C 239.322 79.520,238.988 78.586,238.489 77.591 C 237.990 76.595,237.476 75.430,237.347 75.000 C 236.822 73.250,235.562 70.940,235.240 71.139 C 235.041 71.261,234.994 71.200,235.125 70.989 C 235.411 70.525,233.093 65.608,232.701 65.850 C 232.537 65.951,232.495 65.886,232.607 65.705 C 232.718 65.525,232.409 64.483,231.919 63.391 C 231.429 62.300,230.777 60.812,230.470 60.087 C 230.164 59.361,229.770 58.855,229.596 58.963 C 229.421 59.071,229.371 59.009,229.484 58.826 C 229.775 58.355,229.375 57.463,228.981 57.706 C 228.786 57.827,228.747 57.758,228.885 57.535 C 229.139 57.123,226.632 51.875,226.180 51.875 C 226.026 51.875,225.978 51.750,226.072 51.598 C 226.326 51.186,224.545 47.438,224.231 47.724 C 224.083 47.859,224.071 47.781,224.204 47.551 C 224.511 47.019,223.459 44.637,223.033 44.901 C 222.859 45.008,222.808 44.947,222.921 44.764 C 223.213 44.292,222.813 43.400,222.419 43.644 C 222.236 43.757,222.183 43.698,222.299 43.510 C 222.413 43.325,221.613 41.299,220.521 39.009 C 218.544 34.863,217.575 32.321,217.862 32.033 C 217.945 31.950,219.761 32.187,221.897 32.560 C 224.033 32.933,226.295 33.248,226.923 33.260 C 227.551 33.272,228.000 33.387,227.920 33.516 C 227.841 33.645,228.020 33.750,228.319 33.750 C 228.818 33.750,231.123 34.250,238.554 35.970 C 240.080 36.324,242.365 36.961,243.633 37.387 C 244.901 37.813,246.101 38.061,246.299 37.939 C 246.509 37.809,246.575 37.853,246.457 38.043 C 246.217 38.432,247.685 38.866,248.188 38.555 C 248.380 38.436,248.447 38.482,248.338 38.659 C 248.169 38.931,252.316 40.444,253.281 40.463 C 253.453 40.466,253.664 40.555,253.750 40.661 C 254.129 41.129,258.486 42.819,258.805 42.622 C 259.008 42.497,259.073 42.542,258.959 42.728 C 258.842 42.917,259.569 43.349,260.707 43.766 C 261.779 44.158,263.743 45.019,265.071 45.677 C 268.019 47.139,267.907 47.138,268.410 45.703 C 268.636 45.059,269.602 42.936,270.556 40.987 C 271.511 39.037,272.292 37.244,272.292 37.002 C 272.292 36.760,272.382 36.563,272.492 36.563 C 272.602 36.563,273.161 35.543,273.735 34.297 C 274.309 33.051,275.461 30.577,276.296 28.800 C 277.131 27.023,277.721 25.406,277.607 25.206 C 277.493 25.007,277.522 24.955,277.671 25.091 C 277.978 25.371,280.625 20.262,280.625 19.391 C 280.625 18.652,279.826 18.005,279.206 18.243 C 278.925 18.351,278.799 18.299,278.908 18.121 C 279.013 17.952,278.943 17.813,278.751 17.813 C 278.559 17.813,277.600 17.415,276.620 16.928 C 275.640 16.442,274.644 16.108,274.407 16.187 C 274.169 16.266,274.063 16.190,274.169 16.018 C 274.275 15.846,273.539 15.335,272.533 14.884 C 270.496 13.970,270.173 13.897,270.499 14.423 C 270.638 14.649,270.584 14.699,270.356 14.558 C 270.154 14.434,270.060 14.218,270.147 14.078 C 270.341 13.763,267.808 13.091,267.392 13.348 C 267.227 13.450,267.183 13.385,267.295 13.204 C 267.521 12.838,265.722 12.091,265.277 12.366 C 265.124 12.460,265.000 12.373,265.000 12.173 C 265.000 11.972,264.782 11.892,264.515 11.994 C 264.198 12.116,264.108 12.055,264.254 11.818 C 264.403 11.577,264.305 11.523,263.958 11.656 C 263.672 11.766,263.438 11.724,263.438 11.562 C 263.438 11.401,263.203 11.359,262.917 11.469 C 262.537 11.615,262.467 11.556,262.656 11.250 C 262.845 10.944,262.775 10.885,262.395 11.031 C 261.766 11.272,260.876 10.978,261.106 10.605 C 261.197 10.457,260.247 10.046,258.995 9.689 C 257.743 9.333,256.263 8.897,255.705 8.720 C 255.147 8.543,254.562 8.478,254.404 8.576 C 254.245 8.674,254.064 8.599,254.001 8.411 C 253.939 8.222,253.505 8.045,253.037 8.018 C 252.570 7.991,252.188 7.870,252.188 7.749 C 252.187 7.526,250.043 7.007,249.609 7.124 C 249.480 7.159,249.375 7.044,249.375 6.869 C 249.375 6.685,249.014 6.629,248.516 6.738 C 247.828 6.888,247.750 6.854,248.125 6.569 C 248.494 6.288,248.378 6.255,247.578 6.412 C 246.793 6.567,246.516 6.493,246.361 6.089 C 246.212 5.699,245.927 5.612,245.252 5.746 C 244.723 5.852,244.419 5.806,244.524 5.636 C 244.753 5.266,242.670 4.858,242.159 5.174 C 241.928 5.316,241.859 5.279,241.983 5.078 C 242.112 4.869,241.582 4.666,240.547 4.528 C 239.645 4.408,237.730 4.035,236.293 3.698 C 234.856 3.361,233.485 3.160,233.246 3.251 C 233.008 3.343,232.813 3.265,232.813 3.079 C 232.813 2.892,232.531 2.813,232.188 2.903 C 231.844 2.993,231.494 2.954,231.409 2.817 C 231.324 2.680,230.745 2.637,230.122 2.721 C 229.463 2.810,229.063 2.752,229.168 2.583 C 229.267 2.423,229.149 2.292,228.906 2.292 C 228.664 2.292,228.525 2.389,228.598 2.507 C 228.671 2.625,228.371 2.653,227.931 2.569 C 227.332 2.455,227.236 2.345,227.549 2.133 C 227.809 1.957,227.387 1.930,226.440 2.061 C 225.335 2.213,224.972 2.174,225.130 1.917 C 225.259 1.708,225.141 1.562,224.844 1.563 C 224.566 1.563,224.424 1.701,224.528 1.870 C 224.765 2.253,222.824 1.919,222.266 1.480 C 221.994 1.267,221.874 1.304,221.870 1.602 C 221.866 1.939,221.801 1.930,221.569 1.563 C 221.360 1.232,220.726 1.094,219.416 1.094 C 218.395 1.094,217.699 1.007,217.870 0.902 C 218.041 0.796,216.867 0.617,215.262 0.503 C 213.657 0.389,211.570 0.228,210.625 0.146 C 209.680 0.064,209.153 0.105,209.454 0.237 C 209.963 0.460,193.260 0.397,190.469 0.165 C 189.781 0.108,187.883 0.182,186.250 0.329 M188.661 31.641 C 188.576 31.855,188.260 32.664,187.959 33.438 C 187.658 34.211,186.849 36.039,186.162 37.500 C 185.474 38.961,184.908 40.326,184.904 40.533 C 184.899 40.740,184.798 40.850,184.679 40.776 C 184.331 40.561,183.343 43.032,183.607 43.459 C 183.753 43.695,183.718 43.767,183.519 43.644 C 183.125 43.400,182.725 44.292,183.016 44.764 C 183.129 44.947,183.079 45.008,182.904 44.901 C 182.730 44.793,182.338 45.298,182.033 46.024 C 181.728 46.750,180.433 49.486,179.155 52.104 C 177.871 54.735,176.933 57.028,177.058 57.230 C 177.191 57.446,177.149 57.513,176.956 57.394 C 176.562 57.150,176.162 58.042,176.454 58.514 C 176.567 58.698,176.513 58.756,176.331 58.644 C 175.957 58.412,174.891 60.821,175.169 61.271 C 175.268 61.431,175.220 61.563,175.061 61.563 C 174.634 61.563,172.458 66.241,172.701 66.635 C 172.823 66.832,172.763 66.881,172.557 66.754 C 172.138 66.495,170.214 70.525,170.521 71.021 C 170.631 71.200,170.579 71.258,170.404 71.151 C 170.230 71.043,169.837 71.548,169.531 72.274 C 169.225 73.000,168.429 74.763,167.762 76.191 C 167.095 77.620,166.644 78.942,166.761 79.130 C 166.880 79.323,166.828 79.383,166.644 79.269 C 166.250 79.025,165.850 79.917,166.141 80.389 C 166.259 80.580,166.199 80.631,166.001 80.508 C 165.568 80.240,164.891 81.453,165.129 82.072 C 165.226 82.325,165.181 82.456,165.029 82.362 C 164.674 82.142,164.308 83.077,164.579 83.514 C 164.692 83.697,164.643 83.760,164.471 83.653 C 164.299 83.547,163.866 84.123,163.508 84.933 C 163.149 85.743,162.390 87.457,161.819 88.741 C 161.248 90.025,160.826 91.270,160.880 91.507 C 160.935 91.744,160.844 91.854,160.679 91.752 C 160.305 91.521,159.923 92.435,160.204 92.889 C 160.317 93.073,160.263 93.131,160.081 93.019 C 159.687 92.775,159.287 93.667,159.579 94.139 C 159.692 94.323,159.638 94.381,159.456 94.269 C 159.062 94.025,158.662 94.917,158.954 95.389 C 159.084 95.600,159.008 95.628,158.745 95.466 C 158.442 95.278,158.386 95.354,158.537 95.746 C 158.650 96.041,158.623 96.208,158.477 96.118 C 158.250 95.978,156.250 99.829,156.250 100.404 C 156.250 100.514,155.478 102.170,154.534 104.085 C 153.590 106.001,152.908 107.715,153.020 107.895 C 153.131 108.074,153.080 108.134,152.906 108.027 C 152.566 107.816,152.415 108.095,150.562 112.344 C 149.888 113.891,148.635 116.529,147.777 118.207 C 146.920 119.885,146.317 121.419,146.439 121.615 C 146.561 121.813,146.522 121.887,146.349 121.780 C 145.925 121.518,144.228 125.134,144.539 125.638 C 144.693 125.887,144.658 125.956,144.446 125.825 C 144.255 125.707,144.014 125.925,143.893 126.324 C 143.775 126.713,142.779 128.835,141.679 131.039 C 140.580 133.244,139.761 135.178,139.860 135.338 C 139.959 135.498,139.830 135.710,139.573 135.809 C 139.022 136.020,138.357 137.742,138.646 138.209 C 138.756 138.388,138.701 138.444,138.522 138.334 C 138.342 138.222,138.031 138.585,137.824 139.145 C 137.618 139.701,136.326 142.385,134.953 145.109 C 133.580 147.833,132.535 150.266,132.631 150.516 C 132.727 150.766,132.681 150.893,132.529 150.799 C 132.174 150.580,131.808 151.514,132.079 151.951 C 132.194 152.139,132.137 152.193,131.948 152.077 C 131.751 151.955,131.461 152.330,131.243 152.989 C 131.040 153.605,130.052 155.707,129.048 157.659 C 127.836 160.015,127.348 161.261,127.595 161.361 C 127.811 161.449,127.752 161.524,127.456 161.538 C 126.874 161.566,125.808 163.913,126.136 164.444 C 126.256 164.638,126.203 164.695,126.011 164.577 C 125.813 164.454,125.517 164.848,125.289 165.539 C 125.077 166.183,124.222 168.036,123.389 169.657 C 122.556 171.278,121.937 172.666,122.012 172.741 C 122.088 172.817,121.891 173.157,121.575 173.496 C 121.258 173.836,120.547 175.192,119.995 176.510 C 119.442 177.828,118.227 180.491,117.293 182.428 C 116.360 184.366,115.695 186.110,115.815 186.305 C 115.943 186.511,115.895 186.573,115.702 186.454 C 115.277 186.191,113.935 188.916,114.243 189.415 C 114.375 189.628,114.338 189.701,114.154 189.588 C 113.980 189.480,113.590 189.986,113.287 190.712 C 112.984 191.437,112.042 193.473,111.194 195.235 C 110.346 196.997,109.752 198.601,109.874 198.799 C 110.004 199.009,109.960 199.075,109.769 198.956 C 109.394 198.725,108.968 199.595,109.241 200.036 C 109.340 200.197,109.254 200.289,109.050 200.242 C 108.846 200.195,108.186 201.281,107.583 202.656 C 106.980 204.031,105.765 206.691,104.884 208.567 C 104.002 210.442,103.323 212.167,103.374 212.399 C 103.425 212.631,103.241 212.907,102.965 213.013 C 102.690 213.119,102.541 213.406,102.635 213.650 C 102.743 213.932,102.673 214.013,102.443 213.871 C 102.199 213.720,102.148 213.822,102.287 214.184 C 102.400 214.479,102.377 214.648,102.235 214.561 C 102.093 214.473,101.584 215.274,101.103 216.341 C 100.622 217.408,99.403 220.016,98.394 222.136 C 97.384 224.256,96.652 226.141,96.765 226.325 C 96.879 226.509,96.832 226.573,96.662 226.468 C 96.272 226.227,95.228 228.361,95.512 228.820 C 95.630 229.011,95.578 229.070,95.392 228.955 C 95.199 228.836,94.820 229.364,94.484 230.217 C 94.166 231.024,93.167 233.214,92.262 235.085 C 91.358 236.956,90.712 238.638,90.826 238.823 C 90.941 239.008,90.897 239.075,90.730 238.971 C 90.309 238.711,88.723 242.045,88.943 242.727 C 89.073 243.130,89.041 243.170,88.829 242.873 C 88.616 242.577,88.383 242.876,87.976 243.967 C 87.668 244.793,86.804 246.715,86.056 248.239 C 85.307 249.762,84.785 251.155,84.895 251.334 C 85.021 251.538,84.942 251.564,84.683 251.403 C 84.380 251.216,84.324 251.291,84.475 251.684 C 84.613 252.045,84.562 252.147,84.318 251.996 C 84.074 251.845,84.023 251.947,84.162 252.309 C 84.275 252.604,84.244 252.768,84.092 252.674 C 83.736 252.455,83.371 253.389,83.641 253.826 C 83.754 254.009,83.705 254.071,83.531 253.964 C 83.188 253.752,83.005 254.094,81.232 258.281 C 80.042 261.088,76.719 267.758,76.287 268.205 C 76.162 268.335,75.388 267.314,74.568 265.935 C 73.749 264.557,72.964 263.500,72.824 263.587 C 72.685 263.673,72.590 263.502,72.613 263.207 C 72.637 262.913,72.445 262.668,72.188 262.664 C 71.930 262.660,71.714 262.445,71.706 262.188 C 71.683 261.387,70.863 260.009,70.531 260.214 C 70.358 260.321,70.306 260.263,70.416 260.085 C 70.526 259.907,70.247 259.218,69.796 258.553 C 69.345 257.888,68.841 256.958,68.676 256.485 C 68.509 256.006,68.230 255.716,68.046 255.830 C 67.862 255.944,67.807 255.887,67.921 255.701 C 68.178 255.286,67.834 254.325,67.503 254.530 C 67.368 254.613,67.277 254.436,67.301 254.137 C 67.325 253.837,67.159 253.632,66.930 253.680 C 66.702 253.727,66.599 253.631,66.701 253.467 C 66.967 253.036,65.894 250.927,65.525 251.155 C 65.355 251.261,65.308 251.197,65.421 251.014 C 65.713 250.542,65.313 249.650,64.919 249.894 C 64.730 250.010,64.683 249.947,64.808 249.745 C 65.013 249.413,64.237 247.882,63.652 247.465 C 63.505 247.360,63.421 247.219,63.465 247.153 C 63.643 246.887,61.170 240.950,60.941 241.092 C 60.806 241.175,60.702 241.069,60.710 240.856 C 60.745 239.883,60.602 239.352,60.348 239.509 C 60.195 239.604,60.077 239.507,60.085 239.294 C 60.120 238.321,59.977 237.790,59.723 237.947 C 59.570 238.041,59.452 237.944,59.460 237.731 C 59.496 236.728,59.348 236.230,59.066 236.404 C 58.895 236.510,58.833 236.397,58.928 236.150 C 59.022 235.906,58.903 235.510,58.665 235.272 C 58.426 235.033,58.296 234.644,58.375 234.407 C 58.461 234.148,58.379 234.062,58.169 234.191 C 57.956 234.323,57.884 234.239,57.985 233.977 C 58.076 233.741,57.722 232.479,57.200 231.175 C 56.677 229.870,56.250 228.620,56.250 228.398 C 56.250 227.526,54.592 222.210,54.363 222.351 C 54.230 222.433,54.196 222.215,54.287 221.865 C 54.383 221.497,54.224 220.976,53.907 220.626 C 53.603 220.289,53.447 219.800,53.556 219.518 C 53.828 218.809,53.442 217.460,53.039 217.710 C 52.826 217.841,52.784 217.713,52.922 217.353 C 53.221 216.574,52.824 214.643,52.417 214.895 C 52.228 215.012,52.184 214.946,52.312 214.739 C 52.565 214.329,51.896 210.577,51.601 210.754 C 51.494 210.819,51.379 210.151,51.345 209.270 C 51.312 208.389,51.135 207.618,50.953 207.557 C 50.770 207.496,50.702 207.316,50.800 207.157 C 50.899 206.997,50.766 205.498,50.506 203.824 C 50.245 202.151,49.944 199.234,49.836 197.344 C 49.728 195.453,49.578 193.714,49.503 193.478 C 49.300 192.845,49.189 169.699,49.391 170.025 C 49.485 170.178,49.726 168.154,49.926 165.527 C 50.136 162.770,50.758 158.399,51.395 155.189 C 52.003 152.131,52.429 149.513,52.342 149.372 C 52.255 149.231,52.325 149.069,52.498 149.011 C 52.671 148.953,52.848 148.344,52.891 147.656 C 52.934 146.969,53.152 146.213,53.376 145.977 C 53.636 145.703,53.708 145.209,53.577 144.610 C 53.419 143.893,53.465 143.730,53.770 143.918 C 54.053 144.094,54.111 144.015,53.969 143.645 C 53.859 143.357,53.921 143.125,54.108 143.125 C 54.304 143.125,54.389 142.740,54.311 142.204 C 54.236 141.697,54.280 141.348,54.408 141.427 C 54.656 141.580,55.298 139.576,56.077 136.217 C 56.338 135.088,56.843 133.507,57.199 132.704 C 57.554 131.900,57.766 131.116,57.671 130.961 C 57.575 130.805,57.610 130.631,57.749 130.574 C 58.217 130.380,59.762 126.312,59.518 125.916 C 59.376 125.686,59.407 125.608,59.595 125.724 C 59.769 125.832,60.128 125.397,60.393 124.757 C 60.657 124.117,61.504 122.047,62.274 120.156 C 63.045 118.266,64.393 115.401,65.270 113.790 C 66.147 112.180,66.787 110.735,66.691 110.579 C 66.595 110.424,66.702 110.336,66.930 110.383 C 67.179 110.435,67.335 110.195,67.321 109.781 C 67.308 109.403,67.416 109.167,67.562 109.257 C 67.707 109.347,68.036 108.916,68.294 108.299 C 68.551 107.683,69.325 106.259,70.013 105.134 C 70.702 104.010,71.170 102.935,71.053 102.746 C 70.933 102.552,70.983 102.492,71.169 102.606 C 71.489 102.804,72.031 101.974,71.917 101.461 C 71.885 101.319,71.986 101.282,72.141 101.377 C 72.296 101.473,73.171 100.323,74.087 98.823 C 75.003 97.322,76.180 95.523,76.704 94.825 C 81.458 88.494,82.958 86.400,82.891 86.186 C 82.848 86.050,82.919 85.973,83.050 86.016 C 83.433 86.141,89.844 78.854,89.844 78.293 C 89.844 78.115,90.055 77.962,90.313 77.955 C 90.570 77.947,90.734 77.736,90.677 77.486 C 90.620 77.236,90.682 77.141,90.816 77.274 C 91.116 77.574,95.034 73.745,94.805 73.376 C 94.715 73.229,94.827 73.148,95.055 73.195 C 95.283 73.243,95.434 73.105,95.391 72.891 C 95.348 72.676,95.488 72.535,95.703 72.578 C 95.918 72.621,96.055 72.470,96.008 72.242 C 95.961 72.015,96.051 71.908,96.209 72.006 C 96.367 72.104,97.812 70.949,99.420 69.441 C 101.028 67.933,102.703 66.472,103.142 66.195 C 103.581 65.918,104.706 64.993,105.642 64.140 C 106.578 63.288,107.766 62.369,108.281 62.100 C 108.797 61.830,110.063 60.900,111.094 60.033 C 112.125 59.165,113.531 58.150,114.219 57.777 C 114.906 57.405,116.453 56.366,117.656 55.470 C 118.859 54.573,120.593 53.468,121.509 53.014 C 123.583 51.986,124.416 51.410,124.217 51.144 C 124.132 51.030,124.145 50.997,124.246 51.069 C 124.348 51.142,125.086 50.820,125.887 50.354 C 128.168 49.028,137.461 44.494,139.450 43.738 C 140.495 43.340,141.160 42.919,141.042 42.729 C 140.920 42.532,140.994 42.498,141.227 42.642 C 141.620 42.885,146.002 41.057,146.199 40.569 C 146.256 40.426,146.421 40.382,146.566 40.471 C 146.710 40.560,147.155 40.498,147.555 40.333 C 147.954 40.168,149.095 39.810,150.089 39.536 C 151.255 39.215,151.821 38.915,151.682 38.690 C 151.554 38.483,151.607 38.428,151.812 38.555 C 152.275 38.841,153.792 38.445,153.575 38.095 C 153.482 37.944,153.612 37.899,153.865 37.996 C 154.117 38.093,155.285 37.830,156.459 37.412 C 157.633 36.994,159.859 36.355,161.406 35.991 C 165.552 35.017,171.216 33.805,172.741 33.565 C 173.476 33.450,174.153 33.231,174.247 33.079 C 174.341 32.927,174.530 32.871,174.666 32.956 C 174.911 33.107,178.463 32.606,179.375 32.292 C 179.633 32.203,180.617 32.070,181.563 31.996 C 182.508 31.922,183.984 31.740,184.844 31.592 C 187.312 31.168,188.842 31.187,188.661 31.641 M204.137 84.466 C 205.123 86.565,206.285 89.195,206.719 90.313 C 207.152 91.430,207.695 92.484,207.925 92.656 C 208.155 92.828,208.332 93.039,208.318 93.125 C 208.229 93.679,209.484 96.219,209.762 96.047 C 209.950 95.932,210.006 95.987,209.891 96.174 C 209.642 96.577,209.974 97.553,210.293 97.356 C 210.418 97.278,210.521 97.385,210.521 97.593 C 210.521 97.802,211.021 99.096,211.631 100.470 C 212.242 101.844,213.127 103.845,213.598 104.916 C 214.069 105.986,214.576 106.788,214.724 106.696 C 214.872 106.605,214.900 106.771,214.787 107.066 C 214.636 107.459,214.692 107.534,214.995 107.347 C 215.258 107.184,215.334 107.212,215.204 107.424 C 214.912 107.895,215.312 108.787,215.706 108.544 C 215.888 108.431,215.942 108.489,215.829 108.674 C 215.537 109.145,215.937 110.037,216.331 109.794 C 216.518 109.678,216.567 109.740,216.444 109.939 C 216.325 110.131,216.638 111.102,217.138 112.097 C 217.639 113.092,218.514 115.029,219.084 116.401 C 220.378 119.520,221.389 121.319,221.683 121.026 C 221.807 120.902,221.825 121.017,221.723 121.281 C 221.621 121.549,222.308 123.304,223.269 125.234 C 224.221 127.143,225.000 128.809,225.000 128.937 C 225.000 129.616,227.007 133.393,227.278 133.225 C 227.453 133.117,227.504 133.178,227.391 133.361 C 227.100 133.833,227.500 134.725,227.894 134.481 C 228.081 134.365,228.129 134.428,228.007 134.626 C 227.888 134.818,228.312 135.999,228.949 137.253 C 229.585 138.506,230.708 140.938,231.444 142.656 C 232.180 144.375,232.940 145.743,233.133 145.695 C 233.326 145.648,233.398 145.748,233.294 145.917 C 233.189 146.086,234.093 148.256,235.302 150.738 C 236.511 153.220,237.500 155.333,237.500 155.435 C 237.500 156.101,239.512 159.952,239.775 159.790 C 239.952 159.680,240.004 159.741,239.891 159.924 C 239.600 160.395,240.000 161.287,240.394 161.044 C 240.584 160.926,240.629 160.991,240.501 161.198 C 240.379 161.395,240.857 162.700,241.562 164.098 C 242.267 165.496,243.404 167.994,244.089 169.648 C 244.774 171.303,245.505 172.797,245.714 172.969 C 245.923 173.141,246.137 173.535,246.189 173.845 C 246.242 174.154,247.040 175.912,247.963 177.751 C 248.885 179.589,249.919 181.805,250.261 182.675 C 251.251 185.199,252.685 187.836,252.931 187.590 C 253.056 187.465,253.069 187.594,252.961 187.876 C 252.835 188.205,252.982 188.506,253.371 188.715 C 253.966 189.033,254.732 190.444,257.039 195.469 C 259.129 200.023,259.758 201.372,261.606 205.264 C 262.613 207.385,263.438 209.162,263.438 209.211 C 263.438 209.260,264.297 211.110,265.348 213.322 C 269.264 221.566,270.012 223.362,269.359 222.959 C 269.201 222.861,269.338 223.386,269.664 224.125 C 270.853 226.822,271.446 227.826,271.708 227.587 C 271.855 227.453,271.881 227.509,271.765 227.711 C 271.483 228.204,272.196 229.719,272.594 229.473 C 272.769 229.365,272.813 229.433,272.693 229.627 C 272.575 229.819,272.859 230.720,273.325 231.629 C 273.791 232.538,274.701 234.547,275.346 236.094 C 275.992 237.641,276.681 238.868,276.877 238.820 C 277.073 238.773,277.151 238.868,277.051 239.031 C 276.783 239.465,277.535 240.952,277.906 240.723 C 278.080 240.616,278.129 240.678,278.016 240.861 C 277.746 241.298,278.111 242.233,278.467 242.013 C 278.619 241.919,278.665 242.046,278.569 242.295 C 278.474 242.544,278.818 243.500,279.334 244.421 C 279.851 245.341,280.756 247.289,281.346 248.750 C 282.914 252.634,283.819 254.369,284.166 254.155 C 284.334 254.051,284.375 254.122,284.257 254.313 C 284.139 254.504,284.754 256.078,285.624 257.811 C 286.494 259.544,287.493 261.731,287.845 262.672 C 288.197 263.613,288.590 264.317,288.719 264.238 C 288.847 264.159,288.942 264.403,288.929 264.781 C 288.915 265.195,289.071 265.435,289.320 265.383 C 289.548 265.336,289.653 265.428,289.553 265.589 C 289.281 266.030,289.706 266.900,290.081 266.669 C 290.261 266.557,290.321 266.609,290.213 266.784 C 289.930 267.242,290.965 269.708,291.342 269.474 C 291.521 269.363,291.563 269.433,291.439 269.635 C 291.318 269.831,291.565 270.591,291.988 271.324 C 292.412 272.057,293.409 274.218,294.204 276.127 C 295.000 278.035,295.891 279.864,296.185 280.189 C 296.478 280.515,296.733 280.957,296.750 281.172 C 296.824 282.092,296.894 282.213,297.236 282.001 C 297.452 281.868,297.512 281.915,297.386 282.119 C 297.104 282.575,298.464 285.333,298.853 285.093 C 299.021 284.989,299.064 285.057,298.949 285.244 C 298.833 285.431,299.011 286.191,299.345 286.933 C 299.679 287.674,300.443 289.360,301.043 290.678 L 302.133 293.075 300.051 295.065 C 298.906 296.159,297.547 297.376,297.031 297.769 C 296.516 298.162,296.291 298.381,296.533 298.256 C 296.824 298.105,296.895 298.152,296.745 298.394 C 296.621 298.596,296.382 298.675,296.215 298.572 C 295.787 298.308,294.964 299.058,295.210 299.489 C 295.321 299.684,295.301 299.743,295.165 299.620 C 295.029 299.497,294.198 300.007,293.318 300.752 C 292.439 301.497,291.297 302.325,290.781 302.591 C 290.266 302.857,289.135 303.683,288.268 304.428 C 287.401 305.172,285.754 306.330,284.607 307.000 C 283.460 307.670,282.608 308.360,282.715 308.533 C 282.822 308.705,282.763 308.757,282.586 308.647 C 282.408 308.537,281.718 308.885,281.053 309.421 C 280.388 309.958,279.243 310.667,278.508 310.997 C 277.774 311.328,277.254 311.729,277.353 311.889 C 277.452 312.049,277.320 312.099,277.061 312.000 C 276.796 311.898,276.261 312.138,275.835 312.550 C 275.420 312.952,274.957 313.309,274.806 313.342 C 273.851 313.554,266.911 317.437,267.105 317.650 C 267.236 317.795,267.174 317.815,266.966 317.696 C 266.758 317.577,265.599 317.977,264.389 318.587 C 263.180 319.196,261.522 319.919,260.704 320.193 C 259.887 320.468,258.046 321.250,256.612 321.931 C 255.178 322.613,252.366 323.699,250.362 324.345 C 248.131 325.065,246.900 325.602,247.188 325.731 C 247.445 325.847,247.281 325.870,246.822 325.783 C 245.905 325.610,244.923 325.872,245.144 326.231 C 245.222 326.356,244.842 326.458,244.300 326.458 C 243.759 326.458,243.266 326.607,243.206 326.790 C 243.145 326.972,242.799 327.044,242.436 326.949 C 242.016 326.839,241.852 326.897,241.983 327.109 C 242.112 327.319,241.957 327.381,241.563 327.278 C 241.199 327.183,240.938 327.268,240.938 327.482 C 240.938 327.684,240.818 327.776,240.672 327.685 C 240.526 327.595,239.436 327.786,238.250 328.109 C 237.064 328.433,234.729 328.945,233.062 329.247 C 231.282 329.570,230.109 329.923,230.220 330.103 C 230.324 330.271,230.255 330.314,230.067 330.198 C 229.584 329.899,227.162 330.330,227.376 330.677 C 227.478 330.842,227.191 330.872,226.698 330.748 C 226.118 330.603,225.912 330.643,226.054 330.873 C 226.198 331.106,225.902 331.154,225.115 331.026 C 224.256 330.887,224.025 330.936,224.201 331.221 C 224.379 331.509,224.149 331.548,223.267 331.383 C 222.587 331.255,222.171 331.282,222.272 331.447 C 222.370 331.605,221.891 331.677,221.183 331.610 C 220.321 331.527,219.985 331.598,220.129 331.831 C 220.275 332.067,219.950 332.118,219.076 331.996 C 218.381 331.899,217.813 331.946,217.813 332.101 C 217.813 332.256,217.004 332.385,216.016 332.387 C 215.027 332.390,213.516 332.479,212.656 332.586 C 211.797 332.693,210.061 332.780,208.799 332.779 C 207.269 332.779,206.572 332.888,206.708 333.108 C 206.849 333.335,204.769 333.438,200.000 333.438 C 195.177 333.438,193.150 333.337,193.294 333.104 C 193.434 332.877,192.762 332.783,191.204 332.810 C 189.940 332.831,187.922 332.697,186.719 332.511 C 185.516 332.325,184.004 332.243,183.359 332.328 C 182.656 332.420,182.188 332.351,182.188 332.156 C 182.188 331.977,181.871 331.861,181.484 331.899 C 181.098 331.937,180.529 331.859,180.221 331.727 C 179.912 331.594,179.171 331.565,178.573 331.662 C 177.884 331.773,177.557 331.723,177.680 331.524 C 177.805 331.322,177.444 331.281,176.671 331.410 C 175.725 331.567,175.569 331.532,175.938 331.248 C 176.309 330.961,176.161 330.920,175.227 331.049 C 174.418 331.162,174.115 331.106,174.260 330.870 C 174.406 330.634,174.160 330.590,173.471 330.728 C 172.760 330.870,172.533 330.824,172.689 330.572 C 172.847 330.316,172.564 330.271,171.689 330.411 C 171.018 330.519,170.646 330.497,170.862 330.362 C 171.102 330.212,170.469 329.959,169.241 329.715 C 168.132 329.495,167.055 329.420,166.846 329.549 C 166.618 329.690,166.547 329.653,166.667 329.458 C 166.791 329.259,166.295 329.052,165.387 328.925 C 164.573 328.811,162.669 328.369,161.158 327.943 C 159.646 327.517,158.253 327.265,158.062 327.382 C 157.838 327.521,157.805 327.452,157.969 327.187 C 158.158 326.881,158.051 326.822,157.549 326.953 C 157.178 327.050,156.875 326.993,156.875 326.826 C 156.875 326.660,156.629 326.548,156.328 326.579 C 155.314 326.682,154.961 326.565,155.187 326.201 C 155.340 325.953,155.198 325.895,154.736 326.015 C 154.365 326.112,154.127 326.087,154.206 325.958 C 154.343 325.736,147.295 323.439,146.195 323.347 C 145.907 323.323,145.730 323.208,145.802 323.091 C 145.923 322.896,144.639 322.402,143.906 322.361 C 143.734 322.352,143.453 322.179,143.281 321.978 C 142.861 321.485,139.261 320.009,138.283 319.928 C 137.852 319.893,137.500 319.770,137.500 319.656 C 137.500 319.353,132.444 317.013,132.052 317.135 C 131.869 317.193,131.828 317.131,131.961 316.998 C 132.198 316.761,127.395 314.302,126.654 314.281 C 126.447 314.276,126.344 314.164,126.425 314.033 C 126.573 313.793,125.356 313.261,124.922 313.376 C 124.793 313.410,124.723 313.276,124.766 313.079 C 124.809 312.882,123.684 312.113,122.266 311.371 C 120.848 310.629,119.687 310.069,119.688 310.126 C 119.688 310.183,119.185 309.757,118.572 309.178 C 117.958 308.599,116.798 307.753,115.994 307.298 C 115.189 306.842,114.180 306.254,113.750 305.989 C 113.320 305.725,112.911 305.547,112.841 305.595 C 112.770 305.642,112.586 305.455,112.431 305.178 C 112.276 304.901,112.014 304.758,111.848 304.860 C 111.682 304.963,111.586 304.868,111.633 304.650 C 111.680 304.432,110.525 303.442,109.067 302.451 C 107.608 301.460,106.272 300.466,106.098 300.244 C 105.383 299.332,103.675 298.135,103.363 298.327 C 103.179 298.441,103.105 298.407,103.199 298.251 C 103.293 298.096,102.765 297.488,102.028 296.901 L 100.686 295.833 102.383 292.539 C 103.316 290.727,104.007 289.056,103.918 288.825 C 103.830 288.594,103.881 288.482,104.033 288.576 C 104.370 288.784,104.761 287.871,104.509 287.464 C 104.410 287.303,104.488 287.211,104.682 287.258 C 104.877 287.305,105.498 286.219,106.062 284.844 C 106.626 283.469,107.607 281.318,108.242 280.065 C 108.877 278.812,109.299 277.630,109.181 277.439 C 109.058 277.240,109.107 277.178,109.294 277.294 C 109.688 277.537,110.088 276.645,109.796 276.174 C 109.683 275.991,109.730 275.927,109.900 276.032 C 110.320 276.292,111.279 274.211,111.057 273.521 C 110.927 273.119,110.958 273.080,111.171 273.377 C 111.384 273.673,111.618 273.374,112.026 272.283 C 112.335 271.457,113.198 269.533,113.944 268.007 C 114.690 266.481,115.210 265.074,115.100 264.882 C 114.990 264.689,115.011 264.632,115.148 264.755 C 115.471 265.047,117.867 260.281,117.663 259.749 C 117.577 259.526,117.628 259.417,117.776 259.509 C 117.924 259.600,118.296 259.010,118.603 258.197 C 118.910 257.384,120.195 254.648,121.458 252.118 C 122.721 249.588,124.379 246.072,125.142 244.306 C 125.906 242.539,127.321 239.547,128.288 237.656 C 129.255 235.766,130.530 233.050,131.123 231.622 C 131.715 230.194,132.851 227.733,133.646 226.154 C 134.442 224.574,135.129 222.859,135.174 222.344 C 135.218 221.828,135.952 219.930,136.805 218.125 C 137.658 216.320,138.952 213.578,139.682 212.031 C 140.411 210.484,141.695 207.768,142.535 205.994 C 143.375 204.221,144.062 202.727,144.063 202.674 C 144.063 202.622,145.204 200.205,146.599 197.305 C 147.994 194.404,149.407 191.398,149.738 190.625 C 150.070 189.852,150.516 189.078,150.730 188.906 C 151.436 188.339,153.150 184.981,152.929 184.596 C 152.810 184.389,152.828 184.323,152.968 184.451 C 153.199 184.660,155.908 179.615,155.929 178.939 C 155.934 178.786,157.289 175.903,158.940 172.533 C 160.591 169.163,162.120 165.913,162.337 165.310 C 162.554 164.707,164.015 161.597,165.584 158.398 C 167.154 155.199,168.438 152.468,168.438 152.328 C 168.438 152.189,169.824 149.252,171.519 145.803 C 173.214 142.354,174.706 139.180,174.834 138.750 C 174.962 138.320,176.291 135.508,177.788 132.500 C 179.284 129.492,180.692 126.539,180.917 125.938 C 181.141 125.336,182.625 122.172,184.214 118.906 C 185.803 115.641,187.201 112.655,187.321 112.270 C 187.441 111.886,188.165 110.295,188.931 108.733 C 189.697 107.172,190.229 105.742,190.113 105.555 C 189.995 105.365,190.047 105.305,190.231 105.419 C 190.625 105.662,191.025 104.770,190.734 104.299 C 190.621 104.116,190.663 104.049,190.828 104.151 C 190.993 104.253,191.637 103.255,192.259 101.934 C 194.437 97.311,196.042 93.619,196.042 93.231 C 196.042 93.016,196.139 92.900,196.258 92.974 C 196.607 93.189,197.594 90.718,197.331 90.291 C 197.185 90.055,197.219 89.983,197.419 90.106 C 197.813 90.350,198.213 89.458,197.921 88.986 C 197.808 88.803,197.860 88.743,198.037 88.852 C 198.219 88.964,198.722 88.208,199.199 87.103 C 201.268 82.319,202.042 80.647,202.188 80.649 C 202.273 80.651,203.151 82.368,204.137 84.466 M202.875 363.671 C 201.276 363.727,198.745 363.727,197.250 363.670 C 195.755 363.613,197.063 363.566,200.156 363.567 C 203.250 363.567,204.473 363.614,202.875 363.671 " stroke="none" fill="#040404" fill-rule="evenodd"></path><path id="path4" d="M190.686 0.266 C 190.289 0.377,194.468 0.469,199.971 0.469 C 205.474 0.469,209.736 0.373,209.442 0.256 C 208.759 -0.014,191.648 -0.006,190.686 0.266 M176.563 1.563 L 175.781 1.813 176.641 1.844 C 177.113 1.861,177.500 1.734,177.500 1.563 C 177.500 1.391,177.465 1.264,177.422 1.281 C 177.379 1.298,176.992 1.425,176.563 1.563 M222.344 1.488 C 222.516 1.656,223.144 1.884,223.740 1.996 C 224.399 2.119,224.705 2.087,224.521 1.914 C 224.355 1.757,223.727 1.528,223.125 1.406 C 222.414 1.262,222.141 1.291,222.344 1.488 M227.195 2.293 C 227.285 2.387,228.059 2.557,228.914 2.671 C 229.769 2.785,230.395 2.801,230.305 2.707 C 230.215 2.613,229.441 2.443,228.586 2.329 C 227.731 2.215,227.105 2.199,227.195 2.293 M119.297 18.929 C 118.085 19.586,118.222 19.813,119.453 19.187 C 120.631 18.588,120.840 18.433,120.443 18.450 C 120.285 18.457,119.770 18.672,119.297 18.929 M21.429 147.679 C 21.314 148.137,21.280 148.572,21.354 148.645 C 21.427 148.719,21.581 148.404,21.696 147.946 C 21.811 147.488,21.845 147.053,21.771 146.980 C 21.698 146.906,21.544 147.221,21.429 147.679 M20.146 154.406 C 20.032 154.768,20.063 155.188,20.215 155.340 C 20.377 155.502,20.522 155.227,20.564 154.684 C 20.647 153.598,20.445 153.464,20.146 154.406 M21.277 215.781 C 21.267 216.125,21.396 216.617,21.563 216.875 C 21.964 217.496,21.964 216.716,21.563 215.781 L 21.294 215.156 21.277 215.781 M345.171 223.626 C 344.877 225.193,345.162 225.294,345.551 223.761 C 345.727 223.068,345.761 222.500,345.627 222.500 C 345.492 222.500,345.287 223.007,345.171 223.626 M196.484 333.358 C 198.418 333.413,201.582 333.413,203.516 333.358 C 205.449 333.303,203.867 333.259,200.000 333.259 C 196.133 333.259,194.551 333.303,196.484 333.358 M44.766 356.797 C 49.191 356.846,56.434 356.846,60.859 356.797 C 65.285 356.748,61.664 356.708,52.813 356.708 C 43.961 356.708,40.340 356.748,44.766 356.797 M336.187 356.795 C 337.613 356.853,339.863 356.853,341.187 356.795 C 342.511 356.736,341.344 356.689,338.594 356.689 C 335.844 356.689,334.761 356.737,336.187 356.795 M345.234 356.783 C 345.621 356.858,346.254 356.858,346.641 356.783 C 347.027 356.709,346.711 356.648,345.938 356.648 C 345.164 356.648,344.848 356.709,345.234 356.783 M197.250 363.670 C 198.745 363.727,201.276 363.727,202.875 363.671 C 204.473 363.614,203.250 363.567,200.156 363.567 C 197.063 363.566,195.755 363.613,197.250 363.670 " stroke="none" fill="#141414" fill-rule="evenodd"></path></g></svg>